<svg id="Capa_1" enable-background="new 0 0 512 512" height="512" viewBox="0 0 512 512" width="512" xmlns="http://www.w3.org/2000/svg"><g><g><circle cx="256" cy="256" fill="#dcf5ff" r="228.7"/></g><g><path d="m366.958 55.991c41.723 41.431 67.563 98.835 67.563 162.28 0 126.308-102.393 228.7-228.7 228.7-40.267 0-78.095-10.42-110.958-28.691 41.34 41.051 98.274 66.42 161.137 66.42 126.307 0 228.7-102.392 228.7-228.7 0-86.04-47.522-160.97-117.742-200.009z" fill="#97e4f9"/></g><g><g><path d="m256 504.555c-66.392 0-128.809-25.854-175.755-72.8-46.945-46.946-72.8-109.364-72.8-175.755s25.855-128.809 72.8-175.755c46.946-46.945 109.363-72.8 175.755-72.8s128.809 25.854 175.755 72.8c46.945 46.946 72.8 109.364 72.8 175.755s-25.855 128.809-72.8 175.755c-46.946 46.945-109.363 72.8-175.755 72.8zm0-457.4c-115.158 0-208.845 93.687-208.845 208.845s93.687 208.845 208.845 208.845 208.845-93.687 208.845-208.845-93.687-208.845-208.845-208.845z" fill="#0acefa"/></g></g><g><g><path d="m431.755 80.245c-3.822-3.822-7.756-7.489-11.777-11.028 39.941 45.368 61.773 102.992 61.773 163.979 0 66.391-25.855 128.809-72.8 175.755-46.946 46.946-109.363 72.8-175.755 72.8-60.987 0-118.61-21.831-163.978-61.772 3.539 4.02 7.206 7.954 11.027 11.776 46.946 46.946 109.363 72.8 175.755 72.8s128.809-25.854 175.755-72.8c46.945-46.946 72.8-109.364 72.8-175.755s-25.855-128.809-72.8-175.755z" fill="#09a6ee"/></g></g><g><g><path d="m253.034 358.57-83.751-58.684c-.936-.656-2.087.469-1.453 1.42l83.87 125.794c2.046 3.068 6.555 3.068 8.601 0l83.87-125.794c.634-.951-.517-2.076-1.453-1.42l-83.751 58.684c-1.782 1.247-4.152 1.247-5.933 0z" fill="#b1abb5"/></g><g><path d="m355.137 248.065-94.616-170.823c-1.968-3.552-7.075-3.552-9.043 0l-94.616 170.823z" fill="#b1abb5"/></g><g><path d="m256 248.065h99.136l-94.615-170.823c-.984-1.776-2.753-2.664-4.521-2.664z" fill="#786e79"/></g><g><path d="m253.034 321.023-94.603-66.288c-2.937-2.058-2.937-6.408 0-8.466l94.603-66.288c1.78-1.248 4.151-1.248 5.932 0l94.603 66.288c2.937 2.058 2.937 6.408 0 8.466l-94.603 66.288c-1.781 1.248-4.152 1.248-5.932 0z" fill="#786e79"/></g><g><path d="m258.966 321.023 94.603-66.288c2.937-2.058 2.937-6.408 0-8.466l-94.603-66.288c-.89-.624-1.928-.936-2.966-.936v142.913c1.038.001 2.076-.311 2.966-.935z" fill="#554e57"/></g><g><path d="m327.543 240.926c1.533 2.238 1.104 5.451-1.291 7.139h28.884l-94.614-170.823c-.984-1.776-2.753-2.664-4.521-2.664v37.181z" fill="#554e57"/></g><g><path d="m260.3 427.099 83.87-125.794c.634-.951-.517-2.076-1.453-1.42l-83.751 58.684c-.89.624-1.928.936-2.966.936v69.895c1.639.001 3.278-.766 4.3-2.301z" fill="#554e57"/></g><g><path d="m353.569 246.27-37.696-26.413 11.67 21.07c1.536 2.242 1.104 5.464-1.302 7.149l-70.241 49.217v24.667c1.038 0 2.075-.312 2.966-.936l94.603-66.288c2.937-2.058 2.937-6.408 0-8.466z" fill="#453e43"/></g><g><path d="m342.717 299.885-44.239 30.998-42.478 63.712v34.806c1.639 0 3.277-.767 4.3-2.301l83.87-125.794c.635-.952-.517-2.077-1.453-1.421z" fill="#453e43"/></g></g><g><path d="m94.355 376.007c-2.455-3.298-7.12-3.981-10.418-1.526-3.298 2.456-3.982 7.12-1.526 10.418 19.732 26.508 45.65 48.488 74.95 63.563 30.73 15.811 63.917 23.828 98.639 23.828 119.263 0 216.291-97.028 216.291-216.291s-97.028-216.29-216.291-216.29-216.291 97.028-216.291 216.291c0 33.969 7.689 66.509 22.852 96.718 1.844 3.675 6.32 5.157 9.994 3.314 3.675-1.845 5.159-6.319 3.315-9.995-14.113-28.116-21.27-58.409-21.27-90.037 0-111.052 90.348-201.4 201.4-201.4s201.4 90.348 201.4 201.4-90.348 201.4-201.4 201.4c-63.277 0-123.705-30.427-161.645-81.393z"/><path d="m437.02 74.981c-22.969-22.969-49.519-41.097-78.912-53.882-3.772-1.642-8.158.087-9.797 3.857-1.639 3.771.087 8.158 3.858 9.797 27.672 12.037 52.678 29.114 74.321 50.757 45.539 45.54 70.619 106.088 70.619 170.49s-25.08 124.95-70.619 170.49c-45.54 45.54-106.087 70.619-170.49 70.619s-124.95-25.079-170.49-70.619c-45.539-45.54-70.619-106.088-70.619-170.49s25.08-124.95 70.619-170.49c45.54-45.54 106.088-70.619 170.49-70.619 21.259 0 42.322 2.745 62.602 8.158 3.974 1.063 8.053-1.3 9.114-5.273s-1.3-8.053-5.273-9.113c-21.533-5.749-43.887-8.663-66.443-8.663-68.38 0-132.667 26.629-181.02 74.981-48.352 48.352-74.98 112.64-74.98 181.019s26.628 132.667 74.98 181.019c48.353 48.352 112.64 74.981 181.02 74.981s132.667-26.629 181.02-74.981c48.352-48.352 74.98-112.64 74.98-181.019s-26.628-132.667-74.98-181.019z"/><path d="m363.218 250.503c0-2.229-.609-4.375-1.687-6.258l-94.497-170.611c-2.222-4.01-6.45-6.501-11.034-6.501-4.585 0-8.812 2.491-11.034 6.502l-94.506 170.624c-2.717 4.428-2.088 12.406 3.698 16.574l94.603 66.287c3.552 2.311 8.894 3.51 14.477 0l94.602-66.287c3.367-2.358 5.378-6.22 5.378-10.33zm-30.851-28.18-68.943-48.308-.011-76.186zm-106.186-23.525c-2.361-3.368-7.002-4.186-10.37-1.825l-36.179 25.35 68.89-124.378.03 210.846-83.189-58.289 58.992-41.335c3.369-2.359 4.186-7.002 1.826-10.369zm37.263 109.996-.016-116.595 83.208 58.303z"/><path d="m338.445 293.788-82.445 57.768-82.444-57.768c-3.339-2.339-7.878-1.969-10.792.879-2.915 2.848-3.39 7.377-1.129 10.769l83.871 125.795c2.184 3.276 5.743 5.297 9.636 5.562 3.964.244 8.09-1.129 11.354-5.563l83.87-125.794c2.262-3.392 1.786-7.921-1.131-10.77-2.918-2.849-7.457-3.217-10.79-.878zm-145.496 31.771 55.605 38.962v44.439zm70.496 83.402v-44.439l55.605-38.963z"/></g></g></svg>