<svg width="16" height="16" viewBox="0 0 16 16" fill="none" xmlns="http://www.w3.org/2000/svg">
<path d="M12.142 5.50311C12.612 5.03309 12.612 4.32808 12.142 3.85806C11.672 3.38805 10.967 3.38805 10.4969 3.85806C10.0269 4.32808 10.0269 5.03309 10.4969 5.50311C10.967 5.97312 11.672 5.97312 12.142 5.50311ZM6.11016 13.8067L5.0918 14.0417C4.85679 14.12 4.70012 14.2767 4.62179 14.5117L4.38678 15.53L4.15177 15.6867C3.9951 15.8434 3.68176 16 3.44676 16H0.783354C0.313341 16 0 15.6867 0 15.2167V12.5533C0 12.3183 0.156671 12.0049 0.313341 11.8483L5.24847 6.91314C4.70012 5.11143 5.17013 3.07471 6.58017 1.58634C8.69523 -0.528718 12.142 -0.528718 14.3354 1.58634C16.4504 3.70139 16.4504 7.22648 14.3354 9.34154C12.9253 10.7516 10.8886 11.2216 9.0869 10.7516L6.11016 13.8067ZM1.56671 12.7883V14.4333H3.21175L3.52509 13.3366C3.60343 13.1016 3.7601 12.945 3.9951 12.8666L5.01346 12.6316L7.28519 10.3599L8.46022 9.18487C8.61689 9.0282 8.93023 8.94986 9.0869 9.10653C9.0869 9.10653 9.16524 9.18487 9.40024 9.18487C10.7319 9.57654 12.2987 9.2632 13.317 8.24484C14.8054 6.75647 14.8054 4.24974 13.317 2.68303C11.7503 1.11633 9.32191 1.11633 7.7552 2.68303C6.50184 3.9364 6.26683 5.81645 7.05018 7.30482C7.5202 7.77483 7.5202 8.47985 7.05018 8.94986L5.24847 10.7516C4.77846 11.2216 4.07344 11.2216 3.60343 10.7516L1.56671 12.7883Z" fill="black"/>
</svg>
