<svg width="167" height="66" viewBox="0 0 167 66" fill="none" xmlns="http://www.w3.org/2000/svg">
<g clip-path="url(#clip0)">
<path d="M62.999 65.9961C52.502 65.9961 43.999 57.2307 43.999 46.4961C43.999 35.7614 52.5396 26.9961 62.999 26.9961C73.4584 26.9961 81.999 35.7614 81.999 46.4961C81.999 57.2307 73.4584 65.9961 62.999 65.9961ZM62.999 31.4367C54.9099 31.4367 48.3258 38.1941 48.3258 46.4961C48.3258 54.7981 54.9099 61.5555 62.999 61.5555C71.0881 61.5555 77.6723 54.7981 77.6723 46.4961C77.6723 38.1941 71.0881 31.4367 62.999 31.4367Z" fill="#CCFF00"/>
<path d="M9.33632 45.3909C8.15002 45.3909 7.1168 44.5083 6.92546 43.3188L0.0372864 2.87482C-0.0775165 2.2225 0.075554 1.57018 0.45823 1.03297C0.840906 0.495764 1.41492 0.150416 2.06547 0.0353008C3.40484 -0.194931 4.66767 0.725995 4.89727 2.06901L11.7472 42.513C11.862 43.1653 11.7089 43.8176 11.3262 44.3548C10.9436 44.892 10.3695 45.2374 9.71899 45.3525C9.60419 45.3909 9.45112 45.3909 9.33632 45.3909Z" fill="#CCFF00"/>
<path d="M20.8165 26.7422C16.9132 26.7422 13.2395 27.9317 10.1781 29.9271L11.02 34.8387C13.6605 32.5363 17.0663 31.155 20.8165 31.155C29.0441 31.155 35.7409 37.87 35.7409 46.12C35.7409 54.3699 29.0441 61.085 20.8165 61.085C12.589 61.085 5.89217 54.3699 5.89217 46.12C5.89217 45.0072 6.00697 43.9328 6.23658 42.8968L4.89721 35.1073C2.75422 38.2538 1.45312 42.0142 1.45312 46.12C1.45312 56.8257 10.1399 65.4978 20.7783 65.4978C31.4167 65.4978 40.1034 56.7874 40.1034 46.12C40.1034 35.4526 31.4932 26.7422 20.8165 26.7422Z" fill="#CCFF00"/>
<path d="M19.7833 57.4399C21.2416 57.4399 22.4238 56.2545 22.4238 54.7922C22.4238 53.3299 21.2416 52.1445 19.7833 52.1445C18.325 52.1445 17.1428 53.3299 17.1428 54.7922C17.1428 56.2545 18.325 57.4399 19.7833 57.4399Z" fill="#1CD8D2"/>
<path d="M27.9727 54.3715C29.431 54.3715 30.6132 53.1861 30.6132 51.7238C30.6132 50.2616 29.431 49.0762 27.9727 49.0762C26.5145 49.0762 25.3323 50.2616 25.3323 51.7238C25.3323 53.1861 26.5145 54.3715 27.9727 54.3715Z" fill="#1CD8D2"/>
<path d="M21.5438 48.6918C23.0021 48.6918 24.1842 47.5064 24.1842 46.0441C24.1842 44.5819 23.0021 43.3965 21.5438 43.3965C20.0855 43.3965 18.9033 44.5819 18.9033 46.0441C18.9033 47.5064 20.0855 48.6918 21.5438 48.6918Z" fill="#1CD8D2"/>
<path d="M13.3543 51.4164C14.8126 51.4164 15.9948 50.231 15.9948 48.7688C15.9948 47.3065 14.8126 46.1211 13.3543 46.1211C11.896 46.1211 10.7139 47.3065 10.7139 48.7688C10.7139 50.231 11.896 51.4164 13.3543 51.4164Z" fill="#1CD8D2"/>
<path d="M29.6563 46.0063C31.1146 46.0063 32.2968 44.8209 32.2968 43.3586C32.2968 41.8963 31.1146 40.7109 29.6563 40.7109C28.198 40.7109 27.0159 41.8963 27.0159 43.3586C27.0159 44.8209 28.198 46.0063 29.6563 46.0063Z" fill="#1CD8D2"/>
<path d="M23.2657 39.9809C24.724 39.9809 25.9062 38.7955 25.9062 37.3332C25.9062 35.8709 24.724 34.6855 23.2657 34.6855C21.8074 34.6855 20.6252 35.8709 20.6252 37.3332C20.6252 38.7955 21.8074 39.9809 23.2657 39.9809Z" fill="#1CD8D2"/>
<path d="M15.0382 43.0512C16.4965 43.0512 17.6786 41.8658 17.6786 40.4035C17.6786 38.9413 16.4965 37.7559 15.0382 37.7559C13.5799 37.7559 12.3977 38.9413 12.3977 40.4035C12.3977 41.8658 13.5799 43.0512 15.0382 43.0512Z" fill="#1CD8D2"/>
<path d="M93.8698 45.3909C92.6835 45.3909 91.6503 44.5083 91.459 43.3188L84.6091 2.87482C84.4943 2.2225 84.6473 1.57018 85.03 1.03297C85.4127 0.495764 85.9867 0.150416 86.6372 0.0353008C87.9766 -0.194931 89.2394 0.725995 89.469 2.06901L96.3189 42.513C96.4338 43.1653 96.2807 43.8176 95.898 44.3548C95.5153 44.892 94.9413 45.2374 94.2908 45.3525C94.176 45.3909 94.0229 45.3909 93.8698 45.3909Z" fill="#CCFF00"/>
<path d="M105.388 26.7422C101.485 26.7422 97.8113 27.9317 94.7499 29.9271L95.5918 34.8387C98.2323 32.5363 101.638 31.155 105.388 31.155C113.616 31.155 120.313 37.87 120.313 46.12C120.313 54.3699 113.616 61.085 105.388 61.085C97.1608 61.085 90.4639 54.3699 90.4639 46.12C90.4639 45.0072 90.5787 43.9328 90.8084 42.8968L89.469 35.1073C87.326 38.2538 86.0249 42.0142 86.0249 46.12C86.0249 56.8257 94.7116 65.4978 105.35 65.4978C115.988 65.4978 124.675 56.7874 124.675 46.12C124.675 35.4526 116.027 26.7422 105.388 26.7422Z" fill="#CCFF00"/>
<path d="M104.317 57.4399C105.775 57.4399 106.957 56.2545 106.957 54.7922C106.957 53.3299 105.775 52.1445 104.317 52.1445C102.858 52.1445 101.676 53.3299 101.676 54.7922C101.676 56.2545 102.858 57.4399 104.317 57.4399Z" fill="#1CD8D2"/>
<path d="M112.544 54.3715C114.003 54.3715 115.185 53.1861 115.185 51.7238C115.185 50.2616 114.003 49.0762 112.544 49.0762C111.086 49.0762 109.904 50.2616 109.904 51.7238C109.904 53.1861 111.086 54.3715 112.544 54.3715Z" fill="#1CD8D2"/>
<path d="M106.077 48.6918C107.535 48.6918 108.717 47.5064 108.717 46.0441C108.717 44.5819 107.535 43.3965 106.077 43.3965C104.619 43.3965 103.437 44.5819 103.437 46.0441C103.437 47.5064 104.619 48.6918 106.077 48.6918Z" fill="#1CD8D2"/>
<path d="M97.9261 51.4164C99.3844 51.4164 100.567 50.231 100.567 48.7688C100.567 47.3065 99.3844 46.1211 97.9261 46.1211C96.4678 46.1211 95.2856 47.3065 95.2856 48.7688C95.2856 50.231 96.4678 51.4164 97.9261 51.4164Z" fill="#1CD8D2"/>
<path d="M114.228 46.0063C115.686 46.0063 116.868 44.8209 116.868 43.3586C116.868 41.8963 115.686 40.7109 114.228 40.7109C112.77 40.7109 111.587 41.8963 111.587 43.3586C111.587 44.8209 112.77 46.0063 114.228 46.0063Z" fill="#1CD8D2"/>
<path d="M107.837 39.9809C109.296 39.9809 110.478 38.7955 110.478 37.3332C110.478 35.8709 109.296 34.6855 107.837 34.6855C106.379 34.6855 105.197 35.8709 105.197 37.3332C105.197 38.7955 106.379 39.9809 107.837 39.9809Z" fill="#1CD8D2"/>
<path d="M99.6099 43.0512C101.068 43.0512 102.25 41.8658 102.25 40.4035C102.25 38.9413 101.068 37.7559 99.6099 37.7559C98.1517 37.7559 96.9695 38.9413 96.9695 40.4035C96.9695 41.8658 98.1517 43.0512 99.6099 43.0512Z" fill="#1CD8D2"/>
<path d="M159.154 46.8105C160.34 46.8105 161.374 47.6931 161.565 48.8826L164.014 63.4256C164.129 64.0779 163.976 64.7302 163.593 65.2674C163.21 65.8046 162.636 66.15 161.986 66.2651C160.647 66.4953 159.384 65.5744 159.154 64.2314L156.705 49.6884C156.59 49.0361 156.743 48.3838 157.126 47.8466C157.509 47.3094 158.083 46.964 158.733 46.8489C158.848 46.8105 159.001 46.8105 159.154 46.8105Z" fill="#CCFF00"/>
<path d="M147.636 65.4587C151.539 65.4587 155.213 64.2692 158.274 62.2739L157.432 57.3623C154.792 59.6646 151.386 61.046 147.636 61.046C139.408 61.046 132.711 54.3309 132.711 46.0809C132.711 37.831 139.408 31.1159 147.636 31.1159C155.863 31.1159 162.56 37.831 162.56 46.0809C162.56 47.1937 162.445 48.2681 162.215 49.3042L163.555 57.0937C165.698 53.9472 166.999 50.1867 166.999 46.0809C166.999 35.3752 158.312 26.7031 147.674 26.7031C137.035 26.7031 128.349 35.4135 128.349 46.0809C128.349 56.7483 136.997 65.4587 147.636 65.4587Z" fill="#CCFF00"/>
</g>
<defs>
<clipPath id="clip0">
<rect width="167" height="66" fill="white"/>
</clipPath>
</defs>
</svg>
