<?xml version="1.0" encoding="utf-8"?>
<!-- Generator: Adobe Illustrator 25.4.1, SVG Export Plug-In . SVG Version: 6.00 Build 0)  -->
<svg version="1.1" id="Layer_1" xmlns="http://www.w3.org/2000/svg" xmlns:xlink="http://www.w3.org/1999/xlink" x="0px" y="0px"
	 viewBox="0 0 170.17 66" style="enable-background:new 0 0 170.17 66;" xml:space="preserve">
<style type="text/css">
	.st0{fill:none;}
	.st1{fill:#CCFF00;}
	.st2{fill:#1CD8D2;}
	.st3{fill:#0099FF;}
</style>
<rect class="st0" width="167" height="66"/>
<path class="st1" d="M63,66c-10.5,0-19-8.77-19-19.5C44,35.76,52.54,27,63,27s19,8.77,19,19.5S73.46,66,63,66z M63,31.44
	c-8.09,0-14.67,6.76-14.67,15.06S54.91,61.56,63,61.56S77.67,54.8,77.67,46.5S71.09,31.44,63,31.44z"/>
<path class="st1" d="M9.34,45.39c-1.19,0-2.22-0.88-2.41-2.07L0.04,2.87c-0.11-0.65,0.04-1.3,0.42-1.84s0.96-0.88,1.61-1
	c1.33-0.22,2.6,0.7,2.83,2.04l6.85,40.44c0.11,0.65-0.04,1.3-0.42,1.84s-0.96,0.88-1.61,1C9.6,45.39,9.45,45.39,9.34,45.39z"/>
<path class="st1" d="M20.82,26.74c-3.9,0-7.58,1.19-10.64,3.18l0.84,4.91c2.64-2.3,6.05-3.68,9.8-3.68
	c8.23,0,14.92,6.71,14.92,14.96s-6.7,14.97-14.92,14.97c-8.23,0-14.92-6.72-14.92-14.97c0-1.11,0.11-2.19,0.34-3.22L4.9,35.11
	c-2.14,3.15-3.44,6.91-3.44,11.01c0,10.71,8.69,19.38,19.33,19.38S40.1,56.79,40.1,46.12S31.49,26.74,20.82,26.74z"/>
<path class="st1" d="M93.87,45.39c-1.19,0-2.22-0.88-2.41-2.07L84.61,2.87c-0.11-0.65,0.04-1.3,0.42-1.84s0.96-0.88,1.61-1
	c1.34-0.23,2.6,0.69,2.83,2.03l6.85,40.44c0.11,0.65-0.04,1.3-0.42,1.84s-0.96,0.88-1.61,1C94.18,45.39,94.02,45.39,93.87,45.39z"/>
<path class="st1" d="M105.39,26.74c-3.9,0-7.58,1.19-10.64,3.18l0.84,4.91c2.64-2.3,6.05-3.68,9.8-3.68
	c8.23,0,14.93,6.71,14.93,14.96s-6.7,14.97-14.93,14.97s-14.92-6.72-14.92-14.97c0-1.11,0.11-2.19,0.34-3.22l-1.34-7.79
	c-2.14,3.15-3.44,6.91-3.44,11.01c0,10.71,8.69,19.38,19.33,19.38s19.33-8.71,19.33-19.38S116.03,26.74,105.39,26.74z"/>
<path class="st2" d="M104.32,57.44c1.46,0,2.64-1.19,2.64-2.65c0-1.46-1.18-2.65-2.64-2.65s-2.64,1.19-2.64,2.65
	S102.86,57.44,104.32,57.44z"/>
<path class="st3" d="M111.59,54.79c1.46,0,2.64-1.19,2.64-2.65c0-1.46-1.18-2.65-2.64-2.65s-2.64,1.19-2.64,2.65
	C108.95,53.61,110.13,54.79,111.59,54.79z"/>
<path class="st2" d="M105.35,49.5c1.46,0,2.64-1.19,2.64-2.65c0-1.46-1.18-2.65-2.64-2.65s-2.64,1.19-2.64,2.65
	S103.89,49.5,105.35,49.5z"/>
<path class="st3" d="M96.97,52.14c1.46,0,2.64-1.19,2.64-2.65c0-1.46-1.18-2.65-2.64-2.65s-2.64,1.19-2.64,2.65
	C94.33,50.96,95.51,52.14,96.97,52.14z"/>
<path class="st2" d="M114.23,46.01c1.46,0,2.64-1.19,2.64-2.65s-1.18-2.65-2.64-2.65s-2.64,1.19-2.64,2.65
	S112.77,46.01,114.23,46.01z"/>
<path class="st3" d="M108.95,40.4c1.46,0,2.64-1.19,2.64-2.65c0-1.46-1.18-2.65-2.64-2.65s-2.64,1.19-2.64,2.65
	C106.31,39.22,107.49,40.4,108.95,40.4z"/>
<path class="st2" d="M99.61,43.05c1.46,0,2.64-1.19,2.64-2.65c0-1.46-1.18-2.65-2.64-2.65s-2.64,1.19-2.64,2.65
	C96.97,41.87,98.15,43.05,99.61,43.05z"/>
<path class="st1" d="M164.32,46.5c1.19,0,1.65-1.19,1.84,0l3.02,16.62c0.11,0.65-0.04,1.3-0.42,1.84s-0.96,0.88-1.61,1
	c-1.34,0.23-2.6-0.69-2.83-2.03l-0.71-3.47c-0.12-0.65-0.84-2.37-2.3-1.34c-0.54,0.38,1.94-12.46,2.59-12.58
	C164.02,46.5,164.17,46.5,164.32,46.5z"/>
<path class="st1" d="M147.16,65.62c-10.5,0-19-8.77-19-19.5s8.54-19.5,19-19.5s19,8.77,19,19.5
	C166.16,56.86,157.62,65.62,147.16,65.62z M147.16,31.06c-8.09,0-14.67,6.76-14.67,15.06s6.58,15.06,14.67,15.06
	s14.67-6.76,14.67-15.06S155.25,31.06,147.16,31.06z"/>
<path class="st2" d="M19.5,57.17c1.46,0,2.64-1.19,2.64-2.65c0-1.46-1.18-2.65-2.64-2.65s-2.64,1.19-2.64,2.65
	C16.86,55.99,18.04,57.17,19.5,57.17z"/>
<path class="st3" d="M26.77,54.52c1.46,0,2.64-1.19,2.64-2.65c0-1.46-1.18-2.65-2.64-2.65s-2.64,1.19-2.64,2.65
	C24.13,53.34,25.31,54.52,26.77,54.52z"/>
<path class="st2" d="M20.53,49.23c1.46,0,2.64-1.19,2.64-2.65c0-1.46-1.18-2.65-2.64-2.65s-2.64,1.19-2.64,2.65
	C17.89,48.04,19.07,49.23,20.53,49.23z"/>
<path class="st3" d="M12.15,51.88c1.46,0,2.64-1.19,2.64-2.65c0-1.46-1.18-2.65-2.64-2.65s-2.64,1.19-2.64,2.65
	C9.51,50.69,10.69,51.88,12.15,51.88z"/>
<path class="st2" d="M29.41,45.74c1.46,0,2.64-1.19,2.64-2.65s-1.18-2.65-2.64-2.65s-2.64,1.19-2.64,2.65S27.95,45.74,29.41,45.74z"
	/>
<path class="st3" d="M24.13,40.14c1.46,0,2.64-1.19,2.64-2.65c0-1.46-1.18-2.65-2.64-2.65c-1.46,0-2.64,1.19-2.64,2.65
	S22.67,40.14,24.13,40.14z"/>
<path class="st2" d="M14.79,42.78c1.46,0,2.64-1.19,2.64-2.65c0-1.46-1.18-2.65-2.64-2.65s-2.64,1.19-2.64,2.65
	C12.15,41.6,13.33,42.78,14.79,42.78z"/>
</svg>
