<svg width="161" height="38" viewBox="0 0 161 38" fill="none" xmlns="http://www.w3.org/2000/svg">
<g opacity="0.8">
<path d="M39.0517 19C39.0517 7.97161 30.5935 0 19.6158 0C8.57817 0 0 7.97161 0 19C0 30.0284 8.57817 38 19.6158 38C30.5935 38 39.0517 30.0284 39.0517 19ZM31.3733 19C31.3733 26.7918 26.6943 32.1861 19.6158 32.1861C12.4173 32.1861 7.67836 26.7918 7.67836 19C7.67836 11.2082 12.4173 5.81388 19.6158 5.81388C26.6943 5.81388 31.3733 11.2082 31.3733 19Z" fill="url(#paint0_linear)"/>
<path d="M83.7313 36.9811V1.01893H76.173L64.3555 27.3312L52.478 1.01893H44.6797V36.9811H51.0983V14.9243C51.0983 14.0852 50.9184 11.6877 50.9184 11.5079C51.0383 11.8675 51.8181 14.0852 52.1781 14.9243L61.836 36.9811H66.3351L75.993 14.9243L77.3127 11.5079C77.2527 11.7476 77.0728 14.0852 77.0728 14.9243V36.9811H83.7313Z" fill="url(#paint1_linear)"/>
<path d="M123.288 34.4637V18.5804H109.911V23.9748H116.269V30.9874C114.41 31.9464 112.07 32.4858 109.311 32.4858C102.112 32.4858 97.0134 27.3912 97.0134 19.2997C97.0134 11.0284 102.232 6.11356 109.731 6.11356C115.069 6.11356 118.789 8.03155 121.788 10.5489V3.8959C118.789 1.6183 113.75 0.239747 109.011 0.239747C98.513 0.239747 89.395 7.37224 89.395 19C89.395 30.6278 98.1531 38 108.531 38C115.609 38 121.248 35.3028 123.288 34.4637Z" fill="url(#paint2_linear)"/>
<path d="M161 36.9811L147.683 18.5205L160.28 1.01893H152.182L143.244 13.7256L134.426 1.01893H126.087L138.685 18.5804L125.368 36.9811H133.466L143.124 23.3155L152.662 36.9811H161Z" fill="url(#paint3_linear)"/>
</g>
<defs>
<linearGradient id="paint0_linear" x1="96.0289" y1="-14.9647" x2="96.0289" y2="66.2828" gradientUnits="userSpaceOnUse">
<stop stop-color="#111112"/>
<stop offset="0.707628" stop-color="#121315" stop-opacity="0.69"/>
</linearGradient>
<linearGradient id="paint1_linear" x1="96.0289" y1="-14.9647" x2="96.0289" y2="66.2828" gradientUnits="userSpaceOnUse">
<stop stop-color="#111112"/>
<stop offset="0.707628" stop-color="#121315" stop-opacity="0.69"/>
</linearGradient>
<linearGradient id="paint2_linear" x1="96.0289" y1="-14.9647" x2="96.0289" y2="66.2828" gradientUnits="userSpaceOnUse">
<stop stop-color="#111112"/>
<stop offset="0.707628" stop-color="#121315" stop-opacity="0.69"/>
</linearGradient>
<linearGradient id="paint3_linear" x1="96.0289" y1="-14.9647" x2="96.0289" y2="66.2828" gradientUnits="userSpaceOnUse">
<stop stop-color="#111112"/>
<stop offset="0.707628" stop-color="#121315" stop-opacity="0.69"/>
</linearGradient>
</defs>
</svg>
