<?xml version="1.0" encoding="utf-8"?>
<!-- Generator: Adobe Illustrator 25.4.1, SVG Export Plug-In . SVG Version: 6.00 Build 0)  -->
<svg version="1.1" id="Layer_1" xmlns="http://www.w3.org/2000/svg" xmlns:xlink="http://www.w3.org/1999/xlink" x="0px" y="0px"
	 viewBox="0 0 41.22 39.93" style="enable-background:new 0 0 41.22 39.93;" xml:space="preserve">
<style type="text/css">
	.st0{fill:#CCFF00;}
	.st1{fill:#1CD8D2;}
</style>
<path class="st0" d="M9.34,19.32c-1.19,0-2.22-0.88-2.41-2.07L0.04-23.2c-0.11-0.65,0.04-1.3,0.42-1.84c0.38-0.54,0.96-0.88,1.61-1
	c1.33-0.22,2.6,0.7,2.83,2.04l6.85,40.44c0.11,0.65-0.04,1.3-0.42,1.84s-0.96,0.88-1.61,1C9.6,19.32,9.45,19.32,9.34,19.32z"/>
<path class="st0" d="M20.82,0.67c-3.9,0-7.58,1.19-10.64,3.18l0.84,4.91c2.64-2.3,6.05-3.68,9.8-3.68c8.23,0,14.92,6.71,14.92,14.96
	s-6.7,14.97-14.92,14.97c-8.23,0-14.92-6.72-14.92-14.97c0-1.11,0.11-2.19,0.34-3.22L4.9,9.04c-2.14,3.15-3.44,6.91-3.44,11.01
	c0,10.71,8.69,19.38,19.33,19.38S40.1,30.72,40.1,20.05S31.49,0.67,20.82,0.67z"/>
<g>
	<g>
		<path class="st1" d="M19.5,31.1c1.46,0,2.64-1.19,2.64-2.65c0-1.46-1.18-2.65-2.64-2.65s-2.64,1.19-2.64,2.65
			C16.86,29.92,18.04,31.1,19.5,31.1z"/>
		<path class="st1" d="M26.77,28.45c1.46,0,2.64-1.19,2.64-2.65c0-1.46-1.18-2.65-2.64-2.65s-2.64,1.19-2.64,2.65
			C24.13,27.27,25.31,28.45,26.77,28.45z"/>
		<path class="st1" d="M20.53,23.16c1.46,0,2.64-1.19,2.64-2.65c0-1.46-1.18-2.65-2.64-2.65s-2.64,1.19-2.64,2.65
			C17.89,21.97,19.07,23.16,20.53,23.16z"/>
		<path class="st1" d="M12.15,25.81c1.46,0,2.64-1.19,2.64-2.65c0-1.46-1.18-2.65-2.64-2.65s-2.64,1.19-2.64,2.65
			C9.51,24.62,10.69,25.81,12.15,25.81z"/>
		<path class="st1" d="M29.41,19.67c1.46,0,2.64-1.19,2.64-2.65s-1.18-2.65-2.64-2.65s-2.64,1.19-2.64,2.65S27.95,19.67,29.41,19.67
			z"/>
		<path class="st1" d="M24.13,14.07c1.46,0,2.64-1.19,2.64-2.65c0-1.46-1.18-2.65-2.64-2.65c-1.46,0-2.64,1.19-2.64,2.65
			S22.67,14.07,24.13,14.07z"/>
	</g>
	<path class="st1" d="M14.79,16.71c1.46,0,2.64-1.19,2.64-2.65c0-1.46-1.18-2.65-2.64-2.65s-2.64,1.19-2.64,2.65
		C12.15,15.53,13.33,16.71,14.79,16.71z"/>
</g>
</svg>
