<svg xmlns:xlink="http://www.w3.org/1999/xlink" xmlns="http://www.w3.org/2000/svg" width="55" height="56" viewBox="0 0 55 56" fill="none"><ellipse cx="27.4717" cy="28" rx="27.4717" ry="28" fill="#0E0E21"></ellipse><path d="M41.3111 33.9471L38.2766 28.78C38.1621 28.589 37.9174 28.5306 37.7301 28.6473L35.7574 29.9365C35.5804 30.0532 35.5232 30.2919 35.6325 30.4776L37.3657 33.4272C37.4178 33.5174 37.3917 33.6394 37.3033 33.6977L27.1953 40.3025C27.1328 40.3449 27.0495 40.3449 26.9871 40.3025L16.8738 33.6977C16.7854 33.6394 16.7593 33.5227 16.8114 33.4272L18.5446 30.4776C18.6539 30.2919 18.5967 30.0532 18.4197 29.9365L16.447 28.6473C16.2597 28.5253 16.015 28.5837 15.9005 28.78L12.866 33.9471C12.6474 34.3184 12.7619 34.7959 13.1159 35.024L26.6643 43.8728C26.9194 44.0426 27.2525 44.0426 27.5076 43.8728L41.056 35.024C41.4152 34.7959 41.5245 34.3184 41.3111 33.9471Z" fill="#FFFFFF"></path><path d="M18.0291 25.9045L20.0018 27.1936C20.1892 27.3156 20.4338 27.2573 20.5483 27.061L26.9192 16.2016C26.9972 16.0743 27.1794 16.0743 27.2523 16.2016L33.6283 27.061C33.7429 27.252 33.9875 27.3103 34.1749 27.1936L36.1475 25.9045C36.3245 25.7878 36.3818 25.5491 36.2725 25.3634L28.6576 12.3873C28.5119 12.1485 28.2621 12 27.9862 12H26.1905C25.9146 12 25.6596 12.1485 25.519 12.3873L17.9042 25.3634C17.7949 25.5491 17.8522 25.7878 18.0291 25.9045Z" fill="#2AE7A8"></path></svg>