<svg width="15" height="15" viewBox="0 0 15 15" fill="none" xmlns="http://www.w3.org/2000/svg">
<path d="M9 1.5H1.5V9H4.5V6C4.5 5.175 5.175 4.5 6 4.5H9V1.5ZM13.5 4.5C14.325 4.5 15 5.175 15 6V13.5C15 14.325 14.325 15 13.5 15H6C5.175 15 4.5 14.325 4.5 13.5V10.5H1.5C0.675 10.5 0 9.825 0 9V1.5C0 0.675 0.675 0 1.5 0H9C9.825 0 10.5 0.675 10.5 1.5V4.5H13.5ZM8.1 8.025C7.8 7.725 7.8 7.275 8.1 6.975C8.4 6.675 8.85 6.675 9.15 6.975L11.4 9.225C11.7 9.525 11.7 9.975 11.4 10.275L9.15 12.525C8.85 12.825 8.4 12.825 8.1 12.525C7.8 12.225 7.8 11.775 8.1 11.475L9.075 10.5H6V13.5H13.5V6H6V9H9.075L8.1 8.025Z" fill="black"/>
</svg>
