<svg width="11" height="18" viewBox="0 0 11 18" fill="none" xmlns="http://www.w3.org/2000/svg">
<path d="M0.339814 9.36268L4.52738 18V12.1904C4.52738 12.139 4.50317 12.0618 4.45476 12.0361L0.339814 9.36268ZM9.8284 9.36268L5.56822 12.0618C5.51981 12.0875 5.4956 12.139 5.4956 12.2161V18L9.8284 9.36268ZM4.2127 0.0826984L0.0493472 7.53753C-0.0474751 7.71747 0.00093608 7.92312 0.170375 8.02595L4.28532 10.7251C4.40635 10.8022 4.52738 10.7251 4.52738 10.5709V0.185524C4.52738 0.00557947 4.30953 -0.0715395 4.2127 0.0826984ZM5.4956 0.185524V10.5709C5.4956 10.6994 5.64083 10.8022 5.73766 10.7251L9.8526 8.05166C9.99784 7.94883 10.0462 7.74318 9.97363 7.56324L5.81027 0.108405C5.71345 -0.0715395 5.4956 0.00557947 5.4956 0.185524Z" fill="#101010"/>
</svg>
