<svg id="Layer_1" data-name="Layer 1" xmlns="http://www.w3.org/2000/svg" viewBox="0 0 479.41 153"><defs><style>.cls-1{fill:#2a308e;}</style></defs><path class="cls-1" d="M124.52,22.44,77,132.34H51.83L4.42,22.44H31.89l33.44,78.5,33.91-78.5Z"/><path class="cls-1" d="M189.83,56q10.51,9.34,10.52,28.18v48.2H177.43V121.82q-6.92,11.77-25.75,11.78a40,40,0,0,1-16.88-3.3,25.18,25.18,0,0,1-10.91-9.1A23.74,23.74,0,0,1,120.12,108q0-11.78,8.88-18.53t27.39-6.75h19.47q0-8-4.87-12.32t-14.6-4.32a42.67,42.67,0,0,0-13.26,2.12,34.86,34.86,0,0,0-11.07,5.73l-8.79-17.11a52.84,52.84,0,0,1,16.56-7.54,74.15,74.15,0,0,1,19.86-2.67Q179.31,46.62,189.83,56ZM169,114.21a15.93,15.93,0,0,0,6.91-8.56V97h-16.8Q144,97,144,106.91a8.81,8.81,0,0,0,3.69,7.46q3.69,2.75,10.12,2.74A21.28,21.28,0,0,0,169,114.21Z"/><path class="cls-1" d="M257.73,49.76a44,44,0,0,1,17.19-3.14V69.23c-2.72-.21-4.55-.32-5.49-.32q-10.51,0-16.48,5.89t-6,17.66v39.88H222.49V47.88h23.39V59A27.29,27.29,0,0,1,257.73,49.76Z"/><path class="cls-1" d="M366.22,56q9.66,9.42,9.66,27.95v48.35h-24.5V87.75q0-10-4.39-15t-12.72-4.94q-9.27,0-14.76,5.73t-5.49,17v41.76H289.53V47.88h23.39v9.89A32.31,32.31,0,0,1,325,49.53a42,42,0,0,1,15.86-2.91Q356.56,46.62,366.22,56Z"/><path class="cls-1" d="M462.23,56q10.51,9.34,10.51,28.18v48.2H449.82V121.82q-6.92,11.77-25.75,11.78a39.89,39.89,0,0,1-16.87-3.3,25.13,25.13,0,0,1-10.91-9.1A23.66,23.66,0,0,1,392.52,108q0-11.78,8.87-18.53t27.39-6.75h19.47q0-8-4.87-12.32t-14.6-4.32a42.67,42.67,0,0,0-13.26,2.12,34.86,34.86,0,0,0-11.07,5.73l-8.79-17.11a52.84,52.84,0,0,1,16.56-7.54,74.2,74.2,0,0,1,19.86-2.67Q451.7,46.62,462.23,56Zm-20.89,58.25a15.88,15.88,0,0,0,6.91-8.56V97h-16.8q-15.06,0-15.07,9.89a8.81,8.81,0,0,0,3.69,7.46q3.69,2.75,10.13,2.74A21.27,21.27,0,0,0,441.34,114.21Z"/></svg>