<svg id="Layer_1" data-name="Layer 1" xmlns="http://www.w3.org/2000/svg" viewBox="0 0 139.05 138.3"><defs><style>.cls-1{fill:#fcaf38;}.cls-2{fill:#f8c255;}.cls-3{fill:#eae1e0;}.cls-4{fill:#f5a123;}.cls-5{fill:#f6dead;}.cls-6{fill:#554b45;}.cls-7{fill:#e29624;}.cls-8{fill:#f7e6c4;}.cls-9{fill:#d9d2d0;}.cls-10{fill:#a56b20;}.cls-11{fill:#715533;}.cls-12{fill:#fac474;}.cls-13{fill:#998688;}.cls-14{fill:#231c18;}.cls-15{fill:#794b12;}</style></defs><path class="cls-1" d="M84,64.66a17.53,17.53,0,0,1,3.6-1.46l0,.09c0,.52-.73.23-.85.66a6.45,6.45,0,0,0,9-2.19c.74-.14-.09-.3,0-.44a21,21,0,0,1,5.27-1,34.87,34.87,0,0,1,5.07,1.55,7.14,7.14,0,0,1,3.55,3.17,6.31,6.31,0,0,0,3.36,3.59,4.8,4.8,0,0,1-2-.14c-.71-.22-1.3-.78-2.1-.74-1,.12-1.11-.77-1.37-1.37-1.38-3.28-7.59-4.38-9.42-.78-1.08,0-2.15-.08-3.22-.17a10.54,10.54,0,0,0-5.42.59,5.38,5.38,0,0,1-3.24.53A2.72,2.72,0,0,0,83.21,68c-.81-1.17-.81-1.17-1.63.16l-.18.29a1.08,1.08,0,0,0,0,1.91v1.44c-.48,0-.49.37-.46.73v.7c0,.7,0,1.41,0,2.11,0,.52.14.84.73.77.37.07.94-.15,1.09.24.34,1,1.09.7,1.76.75.42,0,.88-.18,1.22.23,0,.77.46.74,1,.69h0c.19.42.22,1.07,1,.66a.81.81,0,0,0,.22.07c.2.92,1.11.54,1.61.9s1.06.54,1.31.09-.28-.92-.74-1.18a4.64,4.64,0,0,0-.77-.26C88.52,77.91,88,77,87,77.07A6.54,6.54,0,0,0,84.78,76a2.63,2.63,0,0,1-1.85-1.7,13.19,13.19,0,0,1-.57-5.12c0-.49.18-.75.7-.73,0,.32-.12.63-.14.94a1.43,1.43,0,0,0,.85,1.34c.49.29.61-.32.88-.58a7.77,7.77,0,0,1,2.65-1.67c2-.73,4.11.26,6.2,0a.74.74,0,0,1-.64.64c-.89.18-1.18.65-.89,1.52a1.28,1.28,0,0,1,0,.7c-.16.57.13.84.62.93s.92,0,1.05-.52A10.6,10.6,0,0,0,94,70.05a2.57,2.57,0,0,1,2-2.27c.71-.07,1.42-.1,2.12-.15-.11,2.53,1.2,4.13,3.4,5.16H97.25a18.3,18.3,0,0,0-2.87,0c-1,.14-2.4.13-2.68,1.07-.43,1.47-1.3,3.14.09,4.65a.25.25,0,0,1,.19,0,3.61,3.61,0,0,0,.09,1.29,3.32,3.32,0,0,1-.59,3.94,1.2,1.2,0,0,0-.89.25c-1.94,1.84-4.37,3-6.52,4.5-.72.51-1.63.74-2.19,1.48-1.09.12-1.82.91-2.74,1.37-3.3,1.64-7,2.13-10.4,3.48-.7.09-1.1-.09-1.26-.89-.39-2-2.37-2.34-3.62-3.45l-.23-.23-.23-.26h0c-.15-.31-.44-.25-.7-.25l-.48-.24c0-.82-.4-1.43-1.14-1.36-1.91.18-3.23-1.58-5.3-1.26a21.14,21.14,0,0,1-3.47-.18c-1.14-.05-2.33.14-3.3-.62a2.58,2.58,0,0,0-1.69-.38c-.07-.43-.41-.66-.71-.92A9,9,0,0,1,45,83.47c-.9-1.27-1.64-2.63-2.45-4,.06-.44.14-1-.16-1.26-.68-.66-.43-1.37-.31-2.09.06-.32,1.07-.63,0-1v-.49a2.75,2.75,0,0,0,1-2.39c1.57-1,1.71-2.11.42-3.28-.18-.16-.46-.27-.19-.53.56-.55-.09-.84-.23-1.23a1.92,1.92,0,0,1,1.2-1.21c1.91.33,3,2.08,4.72,2.77.86.34,1.75.68,2.59,1.08a29.17,29.17,0,0,0,6.1,2.36,48.84,48.84,0,0,0,7.47,1.32,19.25,19.25,0,0,0,9-1.24,1.14,1.14,0,0,0,.83-1c1,0,1.35-1.11,2.16-1.45.55-.07.94-.32,1-.93,0-.3.1-.53.45-.53.09.81.17,1.63.25,2.44-.44,0-.43.4-.45.72A5.21,5.21,0,0,0,79,75c.07.95-.23,1.92.25,2.83.14.25.34.49.66.37s.27-.45.21-.71a2.06,2.06,0,0,0-.27-.79c-.5-.66-.18-1.18.12-1.82a3.43,3.43,0,0,0,.19-3.09L80,71.61c-.06-.83.29-1.77-.15-2.47s-.14-1,.25-1.52C81.13,66.28,82.85,65.83,84,64.66ZM65.78,85.44c.24.32.62.44.68,0,.09-.73.4-1.62-.6-2.07,0-.7,0-1.33-1-1.21.09-.21.16-.44.27-.64a1.55,1.55,0,0,0-.18-1.45c-.23-.53-.69,0-1,0-.66,2,.5,3.48,1.69,4.89h0C65.59,85.1,65.57,85.32,65.78,85.44Zm-6-7.25c.1-.47.18-.94.32-1.39s.32-.86-.21-1-.51.34-.58.7-.18.77-.27,1.16c-.24,0-.56-.07-.59.22a6.79,6.79,0,0,0,.21,3.52c.12.27.36.27.61.22.63.52.88-.24.91-.45A4.39,4.39,0,0,0,60.25,79C60.29,78.63,60,78.44,59.79,78.19Zm7.22.38a5.23,5.23,0,0,1,.08-1.49c.33-1-.21-1-.87-.9s-.65.64-.66,1.13c0,1.6,0,3.21,1.14,4.51.13.41.28.78.54.08a5.7,5.7,0,0,0,.23-2.43A.9.9,0,0,0,67,78.57Zm9.57-3c0-.47.15-1-.15-1.38s-.08-1.27-.63-1.21-.53.85-.62,1.38A1.93,1.93,0,0,0,74.72,76a6.22,6.22,0,0,1,0,2.11c-.36,1.13.18,1.52,1.09,1.79l1,.29c.42.26.65.29.77-.35.17-.86-.63-1.44-.51-2.24C78,76.66,77.47,76.06,76.58,75.56Zm7,5.61c0-.46-.32-.71-.62-1s-.67-1.1-1.26-.84.18.89,0,1.36c-.26,0-.53.07-.59.32a3.66,3.66,0,0,0,.64,3,3,3,0,0,0,2.65,1.11.8.8,0,0,0,.65-.46A2.85,2.85,0,0,0,83.55,81.17ZM70.12,86c0,.7-.05,1.21.51,1.35a3.79,3.79,0,0,1,1.9,1.54c.88,1,1.9.81,2.33-.48a2.46,2.46,0,0,0-.47-2.65,12.55,12.55,0,0,1-3-4.39c-.13-.39-.15-1-.76-.88s-.59.71-.54,1.17C70.3,83.21,70.63,84.74,70.12,86ZM90,74.7c-1-1.25-1-3.11-1.49-4.86-.1-.4-.53-.42-.91-.39a.66.66,0,0,0-.67.68,4.06,4.06,0,0,1-1,2.47c-.25.27-.42.69-.07,1a8.93,8.93,0,0,1,1.66,2.3c.31.45.75.87,1.4.57A1.56,1.56,0,0,0,90,74.7ZM48.77,80.91c-.11-.52-.39-.89-.94-.89s-1,.33-.9.86.33,1,1,1A.93.93,0,0,0,48.77,80.91Zm8.87-.71c.06-.7-.1-1.18-.87-1.16-.36,0-.79,0-.77.49a1.27,1.27,0,0,0,1.16,1.29C57.82,80.94,57.57,80.43,57.64,80.2Zm-4.78-1c0-.72-.73-.81-1.18-1s-.52.39-.49.75c0,.55.16,1,.87,1C52.61,80,52.85,79.69,52.86,79.15Zm3.27-5.4c-.38,0-.88.06-.82.67a.9.9,0,0,0,.93.77.73.73,0,0,0,.87-.76C57.16,73.81,56.68,73.76,56.13,73.75Zm-9.49,1.33a1,1,0,0,0,1.07.78c.44,0,.57-.36.58-.75s-.19-.88-.76-.85A.93.93,0,0,0,46.64,75.08Zm3.59,9.1a10.43,10.43,0,0,1,1.17.25.67.67,0,0,0,1-.38c.12-.25.31-.52,0-.75a1,1,0,0,0-1.21,0C50.87,83.53,50.62,83.81,50.23,84.18Zm7.43.61c-.42,0-.74.1-.72.65a.71.71,0,0,0,.82.78c.51,0,.92-.31.89-.74S58.2,84.77,57.66,84.79Zm4.08-2.4c-.49,0-.93.08-.92.59s.41.8,1,.84.68-.21.68-.7S62.21,82.34,61.74,82.39ZM68.94,79c0,.45.25.85.67.86s.76-.42.73-.91-.27-.82-.72-.8S69,78.59,68.94,79Zm6.71,3.19c-.06-.57,0-1.23-.76-1.39-.3-.07-.46.3-.42.58.1.63.26,1.34.88,1.55C75.74,83.09,75.57,82.5,75.65,82.22Zm-13-4.8c0-.42-.16-.71-.59-.76a.65.65,0,0,0-.81.64.63.63,0,0,0,.59.75A.65.65,0,0,0,62.67,77.42ZM78,88c0,.42-.06.89.56.86a.6.6,0,0,0,.62-.71.84.84,0,0,0-.69-.87C78,87.17,78.08,87.67,78,88Zm-13.21-.14c.46-.09.49-.44.49-.82s-.14-.75-.59-.74-.6.42-.59.86S64.45,87.74,64.83,87.84Z"/><path class="cls-2" d="M63.86,90.57c1.25,1.11,3.23,1.48,3.62,3.45.16.8.56,1,1.26.89-.11.14-.21.28-.31.43-2.75,0-5.47.33-8.21.42a23.8,23.8,0,0,0-4.84,1,18,18,0,0,0-5.91,2.15,1.2,1.2,0,0,0-.67,1.24c.15,1.37.27,2.73.41,4.1.06.67.31,1.47-.14,2-1.69,1.92-.78,3.91-.1,5.77.57,1.54,1.1,3,.36,4.55-.15.33-.24,1,.22,1,.87-.1,1.9.28,2.61-.57a3.36,3.36,0,0,1,4,.81,1.11,1.11,0,0,1,.33,1.18,1.06,1.06,0,0,1-1.08.77c-.86,0-.93.23-.59,1,.57,1.26.38,1.48-1,1.52-1.55,0-3-.07-4-1.44.07,0,.19,0,.22-.07.34-.66-.18-1.21-.42-1.67s-.75.08-1.1.29a7.56,7.56,0,0,0-.85.64A3,3,0,0,0,47,123.4c-.13.55-.5.35-.8.23s-.28-.27-.43-.39c-.9-.69-1.24-2.29-2.95-1.63-1.12.43-2.45.12-3.46,1-.49.43-.76.26-1-.38-.34-1,.25-1.76.38-2.64a11,11,0,0,1,4.38-.21,1.53,1.53,0,0,0,1.35-.07c.28-.2.5-.42.34-.79a.61.61,0,0,0-.69-.33,18.93,18.93,0,0,1-5.26.22c-.23,0-.35.14-.42.34a1,1,0,0,1-.19-1.51c.32-.43.79-.79,1.35-.24a1.81,1.81,0,0,0,1.88.57,4.52,4.52,0,0,1,3.23.25c.33.21,1,.31,1.12-.41s.27-1.67-.09-2.1c-1.49-1.79,1.5-2.53.8-4a.94.94,0,0,1,.22-.07c.41,0,.78,0,.62-.66s-.43-.88-1-.79h0c-.19-.47.4-1.57-.56-1.35-1.64.37-1.33-.6-1.33-1.48v0c.69-.4.7-.81,0-1.22A33.08,33.08,0,0,1,45,98.29a2.74,2.74,0,0,1,1.73-2.24c.88-.34,1.71-.82,2.56-1.24a20.43,20.43,0,0,1,9.58-3.33c1.5,0,3-.41,4.5,0C63.89,91.58,64.39,91.29,63.86,90.57ZM46.19,104.21c.42,0,.68-.28.63-.7s-.35-.86-.82-.82a.75.75,0,0,0-.57.81C45.44,104,45.71,104.21,46.19,104.21Z"/><path class="cls-3" d="M123.42,74c.44.61,0,1.08-.28,1.53-.9,1.69-1.85,3.23-3.94,3.84-3.19.93-5.78,3-8.57,4.76-3.21,2-6.34,4-10.14,4.81a5.53,5.53,0,0,0-3.26,1.61c-.37,0-.87-.14-1,.48a13.17,13.17,0,0,0-7.2,1.29,32.91,32.91,0,0,0-5.27,3.82c-.3.24-.55.46-.49.87a2.2,2.2,0,0,1-1.43.51c.12-.89-.18-1.35-1.18-1.22a4.9,4.9,0,0,1-2.15-.41c-1-.33-1.46-1.58-2.67-1.6-.27,0-.34-.58-.09-.67.71-.29,1.31-1.05,2.27-.45.77.49,1.58.86,1.94,1.79a2.74,2.74,0,0,0,2.29.32c.55-.63-.22-.88-.5-1.19a1.21,1.21,0,0,1-.24-1.52C81.87,92,82,91.24,83,91.5c1.2.33,1.55-1.27,2.66-1.18a1.15,1.15,0,0,0,.08-.45c0-.68.36-.81.91-.76a1.28,1.28,0,0,0,1.48-.91c.09-.23.14-.51.43-.5,1.63,0,.84-.81.55-1.47h0c.48-.17,1.2.4,1.43-.49h0c1.64.36,3.15-.55,4.77-.48,1.19,0,2.39-.06,3.58,0a2.17,2.17,0,0,0,1.84-.59c.53-.79,1.31-.64,1.89-1,.74-.43,1.87-.6,2.16-1.41.46-1.28,2-1.14,2.5-2.29,1.89,0,3.53-1.19,5.5-1,1.57.12,2.38-.68,2.7-2.22.13-.65.52-.57,1-.61s1,.2.92-.56l0,0,2.08,0c.4,0,.81,0,.85-.54a.58.58,0,0,1,.57,0c.45-.07,1,.36,1.28-.39Z"/><path class="cls-4" d="M43,67.28c.14.39.79.68.23,1.23-.27.26,0,.37.19.53,1.29,1.17,1.15,2.25-.42,3.28-2.31.66-4.68,1.16-6.91,2a8.5,8.5,0,0,0-3.87,2.46A14,14,0,0,0,29.12,86a11,11,0,0,1-1,5.12c-.19.41-.62.76-.5,1.3h0a.43.43,0,0,0-.47.48h0a9.74,9.74,0,0,0-2.33,1.52c-.48.37-1.3.11-1.52.89-.64.07-.42.58-.46,1,.1.71.72,1.16.94,1.85.17.53-.59,1,0,1.42-1.86.3-2.48.05-2.83-1.17,0-1.73-.06-1.79-1.69-1.23-1.79.6-3.53,1.33-5.28,2a5.58,5.58,0,0,1-1.91-.1c.3-.68-.77-.12-.58-.73.18-.21.61,0,.78-.34l.54,0A5,5,0,0,0,16,96.43c-.82-.16-1.43-.29-2-.46-1.75-.49-3.5-1.43-5.4-.45-.24.13-.46,0-.51-.29a2.14,2.14,0,0,1,2.66-1.49c1.06.28,2.1.66,3.17.94a2.69,2.69,0,0,0,2.38,0c-.05,1-1,.11-1.26.6.94.38,1.76-.17,2.63-.35,0,.16,0,.34.23.34s.21-.19.22-.35l.51,0c.79-.14,1.63-.2,1.9-1.18h0c1.19-.1,2.05-1.09,3.22-1.2a1.53,1.53,0,0,0,1.57-1.68l0-.7.2,0c-.29-1.43,1.86-2.39.78-4,0,0,0-.17.09-.21.5-.41.26-.92.27-1.43s-.06-1,.38-1.19c.95-.48.59-1.16.4-1.84h0c.32-.15.26-.44.27-.71-.07-.58.42-1.09.21-1.69a6,6,0,0,1,3.88-5.24c1.93-.84,3.91-1.53,5.86-2.28.54-.21.75-.33.32-.87-.63-.8-1-1.78-2-2.3-.76-.42-.51-1.4-1-2v-.08c.53.09.52-.62,1-.65A1.42,1.42,0,0,0,37,64.24a.44.44,0,0,1,.08-.11.83.83,0,0,0,.41-.88l0-.06.2-.44,0,0c.49,0,.7-.46,1-.72.71-.54,1.29-1.3,2.31-1.24.79-.12,1.64.31,2.37-.29a6.11,6.11,0,0,0,1.94-.62A28.14,28.14,0,0,0,49.77,59l.65-.09a1.93,1.93,0,0,1,1.17.26l.1,1.15c-.1.62-.82,0-1,.52a9.57,9.57,0,0,0-4.48-.11,15.28,15.28,0,0,0-9.29,5.62c-.42.5-1.26,1.17-.71,1.68s1.12-.43,1.52-.85c2.85-3,6.16-5,10.35-5.35-.26,1.15-1.38,1.33-2.16,1.9-.21,0-.4,0-.49.25h0a4.39,4.39,0,0,0-2.25,1.18,18.45,18.45,0,0,0-4.34,4.56c-.23.31-.86.53-.38,1.06s.95.17,1.35-.14a6.21,6.21,0,0,0,.61-.73C41.25,69,41.85,67.84,43,67.28Zm-15.83,17c0,.42,0,.89.54.9a.89.89,0,0,0,.85-.84.88.88,0,0,0-.85-1C27.21,83.4,27.18,83.9,27.18,84.31Z"/><path class="cls-2" d="M45.92,63.68c.78-.57,1.9-.75,2.16-1.9,1-.11,1.62-1,2.61-1,.18-.47.9.1,1-.52l1-.17c-.35,1-.13,2.13-1,2.92-.49.41-1.46.55-1.29,1.37s1.19.25,1.76.58c0,.51-.53,1.08,0,1.53s1.16.15,1.69-.06a3.35,3.35,0,0,0,1.91-1.33.14.14,0,0,0,0-.15c.19,0,.42-.06.48-.3h0c.94-.31,1.89-.58,2.81-.94.39-.15.8-.43.58-1a.83.83,0,0,0-1-.63c-.59.19-1-.14-1.45-.33A22.52,22.52,0,0,1,55,60.32c-.32-.54-.91-.49-1.4-.66a.7.7,0,0,1,1-.42c.36.14.61.08.72-.32,2.56,0,5.1-.26,7.64.47a8.34,8.34,0,0,1,3.22,2.06A9.48,9.48,0,0,0,68.86,63l-.93.05c.72.32.3,1.11.66,1.5,1.45,1.6,2.23,3.64,3.59,5.28.68.83,1.44,1.73,2.74,1.56a1.14,1.14,0,0,1-.83,1,19.25,19.25,0,0,1-9,1.24,48.84,48.84,0,0,1-7.47-1.32,29.17,29.17,0,0,1-6.1-2.36c-.84-.4-1.73-.74-2.59-1.08-1.74-.69-2.81-2.44-4.72-2.77-.09-1,1-1.29,1.21-2.14h0A.45.45,0,0,0,45.92,63.68ZM61,66a2.71,2.71,0,0,1-1.68.51c-.18,0-.45.06-.52.18s.09.45.29.57a13.74,13.74,0,0,1,2,1.62c.37.34,1.22.21,1.85.21.19,0,.24-.37.12-.5-.71-.76-.76-1.93-1.62-2.59.43-.82,1.19-.91,2-.94a4.81,4.81,0,0,0,2.35-.24c.37-.2.91-.29.89-.85s-.61-.65-1-.69a9.64,9.64,0,0,0-5.4,1.06c-.79.41-.66.89.08,1.28C60.63,65.77,60.82,65.91,61,66Zm10.52,5.6a16.33,16.33,0,0,1-1.23-3.13c-.13-.44-.75-.46-1.11-.1a3.34,3.34,0,0,1-1.74.71c-.33.08-.8,0-.86.47s.31.63.66.86c.58.38,1.25.71,1.53,1.45a4.23,4.23,0,0,0,2.57.46C71.55,72.23,71.56,72,71.54,71.64ZM59.42,71.3a2.5,2.5,0,0,0,2.84.24,1.8,1.8,0,0,1,2.11.09,2.17,2.17,0,0,0,2.26.2c.27-.12.55-.24.58-.54s-.28-.54-.58-.66A9.3,9.3,0,0,0,63.26,70,4.87,4.87,0,0,0,59.42,71.3Zm-1.08-4.36c0-.38-.3-.44-.55-.52a4.06,4.06,0,0,0-2.34.15,5.41,5.41,0,0,0-3.05,2c-.23.31-.46.72-.15,1.1s.66.18,1,.06.53-.11.65-.27c.93-1.24,2.36-1.5,3.71-1.93C57.89,67.4,58.23,67.3,58.34,66.94Zm-.51,3.73v-.06a4.21,4.21,0,0,0,.71,0c.52-.1,1.19-.07,1.26-.82s-.5-1-1.11-1.17a2.74,2.74,0,0,0-2.76.58c-.26.26-.75.47-.59.92s.63.26,1,.33C56.81,70.55,57.32,70.6,57.83,70.67Zm6.82-2.87c.65-.13,1.39-.25,2.11-.43.29-.07.67-.21.63-.6a.78.78,0,0,0-.73-.67,3.19,3.19,0,0,0-2.38.52c-.32.22-.81.48-.74.85C63.64,68,64.21,67.63,64.65,67.8Z"/><path class="cls-3" d="M52.16,117c-.71.85-1.74.47-2.61.57-.46.06-.37-.65-.22-1,.74-1.6.21-3-.36-4.55-.68-1.86-1.59-3.85.1-5.77.45-.51.2-1.31.14-2-.14-1.37-.26-2.73-.41-4.1a1.2,1.2,0,0,1,.67-1.24,18,18,0,0,1,5.91-2.15,23.8,23.8,0,0,1,4.84-1c2.74-.09,5.46-.42,8.21-.42,1.32.23,2.49-.53,3.76-.65.2,0,.37-.3.55,0,.43.81,1.35,1.07,2,1.5,1.38.91,2.65,2.19,4.49,2.22a10.41,10.41,0,0,1-6.74.58,13.41,13.41,0,0,0-6.43.19c-.83.25-1.86.3-2.44,1.17-1.59.19-3,1-4.57,1.27a6.6,6.6,0,0,1-2.72.08,7.82,7.82,0,0,0-2.94.12,1.43,1.43,0,0,0-1.27,1.62,64.38,64.38,0,0,1-.23,6.8c-.23,1.95-.28,3.92-.47,5.88C51.38,116.79,51.64,117,52.16,117Z"/><path class="cls-5" d="M96.28,91c.08-.62.58-.43,1-.48s.48.12.51.44c-.88.26-.19.59,0,.77,1.52,1.35,3,2.75,4.62,4s1.52,2,.84,3.7c-.75,1.87-1.15,3.65.12,5.47.43.62.16,1.16-.48,1.62a1.35,1.35,0,0,0-.06,2.23c.63.44,1.29.79.71,1.67-.38.59.11,1.31-.56,2a4.57,4.57,0,0,0-1.86,3.14c-.15.8.25,1,1,.93h0c.08.58.55.52.9.47,1-.16,2.07.48,2.91-.47h0a1.64,1.64,0,0,0,1.66-.93,11.34,11.34,0,0,0,3.94-.17,6.11,6.11,0,0,1,3.67.63,1.21,1.21,0,0,1,.67,1.17c-.08.47-.57.21-.89.12a.48.48,0,0,0-.3-.47,5.13,5.13,0,0,0-5.47.5,5.3,5.3,0,0,1,2.4.69,1,1,0,0,0,1-.1c0,1,0,2,0,2.94,0,.26,0,.59-.38.6-.24,0-.3-.19-.34-.39A2.36,2.36,0,0,0,110.1,119c-1-.35-2-.58-3-.84-.36-.1-.88-.47-1.07,0a1.47,1.47,0,0,0,.27,1.41,1.9,1.9,0,0,0,.5.3,9,9,0,0,1-1.74,2.11.75.75,0,0,1-.85.26c-.33-.14-.25-.46-.27-.72a1.88,1.88,0,0,0-3-1.59,7.69,7.69,0,0,1-4.22,1c-1,0-1-.39-.74-1.2.21-.64,1-.87,1-1.58.7-.23,1.55-.12,2.08-.89-2.67-.87-3.41-.68-4,1-.36,0-.76.45-1.08,0s0-.81.25-1.18a3.58,3.58,0,0,1,4-1.13c.89.37,1.38,0,1.28-.93a52.83,52.83,0,0,1,.48-13.29c.1-.7.16-1.42.28-2.12a1.73,1.73,0,0,0-1.15-2.1c-1.59-.6-3-1.7-4.65-2.06a1,1,0,0,1-.66-.64,2.15,2.15,0,0,1,1.18-1.54A2,2,0,0,0,96.28,91Z"/><path class="cls-2" d="M27.65,92.46c-.12-.54.31-.89.5-1.3a11,11,0,0,0,1-5.12,14,14,0,0,1,3.11-9.24,8.5,8.5,0,0,1,3.87-2.46c2.23-.86,4.6-1.36,6.91-2a2.75,2.75,0,0,1-1,2.39c-1.49.56-.82,1.85-1,2.87h0c-.54,1-.2,2.28-.73,3.32a12.25,12.25,0,0,1-5.51.31c-2.14-.53-2.25-.53-2.77,1.57,0,.19-.09.38-.14.58a9.86,9.86,0,0,0-1,1.42c-.59,1-.3,2.15-.69,3.2S28.81,89.87,29,91.21C29,91.56,28.74,92.73,27.65,92.46Z"/><path class="cls-6" d="M32.57,53.62a28.84,28.84,0,0,0,1.21-4.27,2.3,2.3,0,0,0,1.07-.4A5.81,5.81,0,0,1,38,47.85c.07,1.33-1.29,1-2,1.61,1,.69,1.75,1.43,3.1,1a12,12,0,0,1,4.63-.09c1.42.16,2.77.61,4.28.84a3.08,3.08,0,0,0-1.66-1.08c-.68-.28-1.36-.65-1.1-1.57.18-.66-.31-.63-.66-.72a15.31,15.31,0,0,0-6.39-.28c-.3-.65-.51-1.78-.92-1.87-.79-.16-1.61.48-2.35.94l-.41.24c.06-.77.69-1.2,1.08-1.76A11.11,11.11,0,0,0,37,42.32a12.08,12.08,0,0,1,3-.66,5.41,5.41,0,0,1-.85,1c-.51.4-.5.74-.06,1.15s.81,1-.35,1.39a17,17,0,0,1,7.95,1.57,15.26,15.26,0,0,1-1.15-4c.75,0,1.16.83,1.94.71a6.13,6.13,0,0,0,.34,3.87,1.52,1.52,0,0,1-.44-.15c-.68-.54-1.19-.29-1.54.37s.35.82.75,1a8,8,0,0,0,1.22.42,3.45,3.45,0,0,0,.94,2.38,2.75,2.75,0,0,1,.77,1.7L48,52.66c-3.53-1.15-7.07-1.47-10.61,0-.29.12-.78.29-.78.46-.06,1.46-1.34,1.71-2.32,2.27.37.32.82.16,1,.49l-3,3.52c-.08-1.3.5-2.57.23-3.88,1.49-.34,2.26-1.77,3.57-2.4.14-.06.11-.34,0-.4-.79-.28,0-.79-.18-1.24A34.47,34.47,0,0,0,32.57,53.62Z"/><path class="cls-1" d="M101.08,115.51a4.57,4.57,0,0,1,1.86-3.14c.67-.65.18-1.37.56-2,.58-.88-.08-1.23-.71-1.67a1.35,1.35,0,0,1,.06-2.23c.64-.46.91-1,.48-1.62-1.27-1.82-.87-3.6-.12-5.47.68-1.7.89-2.41-.84-3.7s-3.1-2.61-4.62-4c-.2-.18-.89-.51,0-.77a.76.76,0,0,0,.2.06.72.72,0,0,0,.66.29l0,0,.3.13c2,1.52,4.49,2.31,6.45,3.92a29.7,29.7,0,0,0,.92,5.85,24.9,24.9,0,0,1,0,5.32,5.3,5.3,0,0,1-.09,2.24,11,11,0,0,0-.84,5.18c0,.44,0,.9.42,1.17.65.41.22.85.07,1.28H102A1.24,1.24,0,0,0,101.08,115.51Z"/><path class="cls-7" d="M113.07,68.65a6.31,6.31,0,0,1-3.36-3.59,7.14,7.14,0,0,0-3.55-3.17,34.87,34.87,0,0,0-5.07-1.55,13.27,13.27,0,0,1,8-1.34c1.67.2,3.35.72,5,0a1.08,1.08,0,0,1,1.32.24,10.06,10.06,0,0,0-1.28.62c-1,.62-1.32,1.55-.73,2.29a9.27,9.27,0,0,0,4,3.25h0c0,.12-.13.48.26.23a2.74,2.74,0,0,0,1.91.76c1.71-.18,2.74.84,3.59,2.13-.25,1.37-1.37.82-2.17,1l-.22,0a.48.48,0,0,0-.48-.47c-1.43-1.37-3-.91-4.65-.44Zm-2-5c-.8-.18-1,0-.69.5a5.52,5.52,0,0,0,2.54,2.21,1.2,1.2,0,0,0,1.77-.62c.36-.84-.13-1.33-.85-1.69A7,7,0,0,0,111,63.64Z"/><path class="cls-3" d="M63.86,90.57c.53.72,0,1-.52.87-1.52-.37-3,.06-4.5,0a8.54,8.54,0,0,0-2.38-.68,38.37,38.37,0,0,1-8.66-1.47A8.91,8.91,0,0,1,42.57,85c-.55-1-.79-2.22-1.69-3-.37-.23-.23-.61-.28-.94.55-.1.49-.53.49-.91,0-.83,0-1.65,0-2.48h0c1,.29.79,1.42,1.44,1.93.81,1.33,1.55,2.69,2.45,4a9,9,0,0,0,1.64,1.4c.3.26.64.49.71.92,1,.43,1.81,1.42,3,1.42s2.43-.32,3.43.06c1.42.55,3.26-.38,4.33,1.26.07.11.38.11.57.09a4.44,4.44,0,0,1,3.52,1l.48.24c.14.34.44.26.7.25h0c.07.09.15.17.23.26Z"/><path class="cls-8" d="M79.25,98.46c-1.84,0-3.11-1.31-4.49-2.22-.67-.43-1.59-.69-2-1.5-.18-.35-.35-.07-.55,0-1.27.12-2.44.88-3.76.65.1-.15.2-.29.31-.43,3.4-1.35,7.1-1.84,10.4-3.48.92-.46,1.65-1.25,2.74-1.37a3.21,3.21,0,0,0,1.47-.24c2-1.13,3.72-2.56,5.73-3.59.29.66,1.08,1.51-.55,1.47-.29,0-.34.27-.43.5a1.28,1.28,0,0,1-1.48.91c-.55,0-1,.08-.91.76a1.15,1.15,0,0,1-.08.45c-1.11-.09-1.46,1.51-2.66,1.18-.94-.26-1.1.53-1.41,1.07a1.21,1.21,0,0,0,.24,1.52c.28.31,1,.56.5,1.19A2.74,2.74,0,0,1,80,95c-.36-.93-1.17-1.3-1.94-1.79-1-.6-1.56.16-2.27.45-.25.09-.18.66.09.67,1.21,0,1.62,1.27,2.67,1.6a4.9,4.9,0,0,0,2.15.41c1-.13,1.3.33,1.18,1.22-.15.65-.68.67-1.19.72-.27,0-.56-.06-.74.22Z"/><path class="cls-9" d="M40.88,81.91c.9.82,1.14,2,1.69,3a8.91,8.91,0,0,0,5.23,4.38,38.37,38.37,0,0,0,8.66,1.47,8.54,8.54,0,0,1,2.38.68,20.43,20.43,0,0,0-9.58,3.33,1.36,1.36,0,0,0-.67-.94A21.81,21.81,0,0,1,40.88,81.91Z"/><path class="cls-7" d="M74.92,71.36c-1.3.17-2.06-.73-2.74-1.56-1.36-1.64-2.14-3.68-3.59-5.28-.36-.39.06-1.18-.66-1.5l.93-.05a20,20,0,0,1,5.35,1.55,3.43,3.43,0,0,1,2.12,2.65,8.15,8.15,0,0,0,.75,2.74C76.27,70.25,75.93,71.31,74.92,71.36Z"/><path class="cls-9" d="M96.28,91a2,2,0,0,1-1.21,2,2.15,2.15,0,0,0-1.18,1.54,4.06,4.06,0,0,0-1.93.51,46.16,46.16,0,0,1-5.49.89c-1.1.21-2.09.69-3.15,1-.06-.41.19-.63.49-.87a32.91,32.91,0,0,1,5.27-3.82A13.17,13.17,0,0,1,96.28,91Z"/><path class="cls-6" d="M50.21,54.83c.46.38.87.78.64,1.47a12.75,12.75,0,0,0-6.63-1.25c-.22,0-.59-.08-.58.2s.4.22.65.22c1.15.08,2,1.26,3.22,1a2.33,2.33,0,0,1,2.24.74c-1.73.12-3.48-.19-5.18.33l-.33-.1a3,3,0,0,0-.93-1.14l-.58,1.6-.86.55a1.12,1.12,0,0,0-1.19.15c-.62.41-1.19.87-1.78,1.31-.45-.52-.25-1,.11-1.44a.21.21,0,0,0,.17-.09A3.82,3.82,0,0,0,41.51,56l1.39-.6c-1-.78-2-1-2.77.16a.63.63,0,0,1-.19,0,4.91,4.91,0,0,0-3.61.93c-.28-.14-.3-.39-.29-.66a10,10,0,0,1,5-2A19.65,19.65,0,0,1,50.21,54.83Z"/><path class="cls-10" d="M120.85,75.16a.58.58,0,0,0-.57,0,6.39,6.39,0,0,0-2.93.49l0,0c-1.18.14-2.36.29-3.55.42-3.34.35-6.64,1.23-10,.43a19.94,19.94,0,0,0-6.25-.72l-.25,0a.31.31,0,0,1-.15.1l-2.24.44c-1.11.29-2.13.69-2.38,2,0,.23-.28.26-.48.28a.25.25,0,0,0-.19,0,2.31,2.31,0,0,1,1.44-2.83,10.43,10.43,0,0,1,7.24-.77c4,1.27,8.09.93,12.19.61a38.46,38.46,0,0,0,6.64-1.16,4.44,4.44,0,0,0,4.26-1.56c.33.43,0,.78-.14,1.16l-1.29.77A2.63,2.63,0,0,0,120.85,75.16Z"/><path class="cls-3" d="M50.21,54.83a19.65,19.65,0,0,0-9.15-1,10,10,0,0,0-5,2l-.68,0c-.23-.33-.68-.17-1-.49,1-.56,2.26-.81,2.32-2.27,0-.17.49-.34.78-.46,3.54-1.45,7.08-1.13,10.61,0l1.47.46C49.71,53.7,50.23,54.15,50.21,54.83Z"/><path class="cls-9" d="M79.25,98.46H80v.47a16.07,16.07,0,0,1-8.89,2.19,32.92,32.92,0,0,1-7-.51,2.27,2.27,0,0,1-.41-.21c.58-.87,1.61-.92,2.44-1.17A13.41,13.41,0,0,1,72.51,99,10.41,10.41,0,0,0,79.25,98.46Z"/><path class="cls-6" d="M54.56,33.6c-.87.57-1.12,1.66-1.94,2.27a2.19,2.19,0,0,0-2.93-1.46c-1.37-1-2.77-2-4.63-1.87-.39,0-.46-.21-.41-.53a3.74,3.74,0,0,1,2.69-1.16c1.26.66,2.71.94,3.73,2,.4.43.65,1.26,1.2,1.23s.47-1,.93-1.42c.91-.83.39-1.4-.34-2-.92-.75-2.12-.8-3.13-1.33.75-.4,1.42-1,2.38-.87.36.16.74.29,1.08.48,1.25.7,2.46,1.46,2.84,3C54,31.79,54,31.79,54.56,33.6Z"/><path class="cls-3" d="M44.65,32c0,.32,0,.57.41.53,1.86-.15,3.26.82,4.63,1.87a1.21,1.21,0,0,1,.13.93c-.46.73.11,1.48-.08,2.22l-.48-.07c0-.54-.43-.73-.76-1A8.42,8.42,0,0,0,43,34.86c-.26-.39-.63-.16-1-.18,0-.46.36-.59.63-.77A5.72,5.72,0,0,0,44.65,32Z"/><path class="cls-11" d="M36.33,56.48a4.91,4.91,0,0,1,3.61-.93c-1.5.75-3.25,1.07-4.38,2.52h1.23a.86.86,0,0,1,.2.8,8,8,0,0,0-.84.81,1.25,1.25,0,0,0-.39,1.19c.18.45.7.11,1.06.19a2.6,2.6,0,0,1-.42.93c-.76,1.27-2,2.32-1.93,4h0a9.15,9.15,0,0,1-1.14-3.29c-.13-.72-.39-1.43-.59-2.14.46.13.67-.21.91-.49.44.22.87.41,1.29,0,.26-.29,1-.1.85-.77s-.64-.32-1-.42C34.77,57.71,35.63,57.15,36.33,56.48Z"/><path class="cls-6" d="M43,34.86a8.42,8.42,0,0,1,5.47,1.65c.33.25.78.44.76,1s-.39.32-.62.15-.6-.79-1-.32a.9.9,0,0,0,.13,1.44c.41.34.67.91,1.3.94a6.48,6.48,0,0,0-1.14,1.93l-.84-.3c.25-.75-.29-1.48,0-2.23s-.13-1-.64-1.24a10.47,10.47,0,0,0-4.6-1.12C41.91,35.92,42.63,35.49,43,34.86Z"/><path class="cls-10" d="M117.41,65.35a9.27,9.27,0,0,1-4-3.25c-.59-.74-.22-1.67.73-2.29a10.06,10.06,0,0,1,1.28-.62c1.36.27,1.59,1.41,1.83,2.49S117.11,64.13,117.41,65.35Z"/><path class="cls-6" d="M38.24,39.7l2.36-2.92a.65.65,0,0,0,.53.3c-.06.14-.12.29-.17.44-.22.63-1.2,1.13-.9,1.68s1.3.1,2,.25c1.57.34,3.31.3,4.35,1.87-.05.63-.83.7-1,1.25a18.16,18.16,0,0,0-5.27-1C40.1,39.92,39.88,39.69,38.24,39.7Z"/><path class="cls-12" d="M46.38,109.75c.61-.09.89.14,1,.79s-.21.63-.62.66a.94.94,0,0,0-.22.07c.7,1.51-2.29,2.25-.8,4,.36.43.16,1.39.09,2.1s-.79.62-1.12.41a4.52,4.52,0,0,0-3.23-.25,1.81,1.81,0,0,1-1.88-.57,16.68,16.68,0,0,0,3.67,0,2.35,2.35,0,0,1,.83.05c.4.06.8.69,1.16.23s.15-1.13,0-1.72c-.32-1.37-1.22-2.55-1.28-4,0-1.14,1-2.39-.32-3.41.33-.36.11-1.06.77-1.21,0,.88-.31,1.85,1.33,1.48,1-.22.37.88.56,1.35-1.78-.11-2.26.65-1.7,2.81A4.07,4.07,0,0,0,46.38,109.75Z"/><path class="cls-2" d="M105.87,116.45c.15-.43.58-.87-.07-1.28-.43-.27-.39-.73-.42-1.17a11,11,0,0,1,.84-5.18,5.3,5.3,0,0,0,.09-2.24,24.9,24.9,0,0,0,0-5.32,29.7,29.7,0,0,1-.92-5.85,2.59,2.59,0,0,1,.88,2.08,19.88,19.88,0,0,0,.86,4.5,3.44,3.44,0,0,1-.19,2.7,1,1,0,0,0-.17.67c.64,2.11-.28,4-.7,6a21,21,0,0,0-.26,2.49c-.07.61.34.93.76,1.24a.74.74,0,0,0,.78.38l.19,0A1.64,1.64,0,0,1,105.87,116.45Z"/><path class="cls-13" d="M49.73,29.36c1,.53,2.21.58,3.13,1.33.73.6,1.25,1.17.34,2-.46.41-.35,1.38-.93,1.42s-.8-.8-1.2-1.23c-1-1.09-2.47-1.37-3.73-2Z"/><path class="cls-1" d="M123.56,72.84a4.44,4.44,0,0,1-4.26,1.56c0-.42.28-.58.54-.83,1.16-1.15,1.82-2.47,1.15-4.13.8-.16,1.92.39,2.17-1,.66.28.38.91.53,1.38a8.61,8.61,0,0,1,0,2.21Z"/><path class="cls-12" d="M27.65,92.46c1.09.27,1.37-.9,1.33-1.25-.17-1.34.85-2.18,1.24-3.23s.1-2.16.69-3.2a9.86,9.86,0,0,1,1-1.42,12.29,12.29,0,0,1-1,4c-.92,2.56-1.55,5.22-2.69,7.71-.19.42-.64.73-.58,1.27-.32,0-.45-.18-.48-.48-.07-.53-.29-.65-.7-.25-.41,0-.87.17-1.21-.24a1.46,1.46,0,0,1,1-1,1.23,1.23,0,0,0,.9-1.43h0a.42.42,0,0,0,.47-.49Z"/><path class="cls-3" d="M56,32c-.38-1.53-1.59-2.29-2.84-3-.34-.19-.72-.32-1.08-.48a6.07,6.07,0,0,1,2.45-.81c2,.46,3,1.39,3.1,3.09-.48.65-.41,1.7-1.43,2C56,32.51,56.81,32,56,32Z"/><path class="cls-7" d="M8,95.23c.05.31.27.42.51.29,1.9-1,3.65,0,5.4.45.6.17,1.21.3,2,.46A5,5,0,0,1,12.82,98c0-1.15-2-2.2-3.23-1.77-.4.14-.76.43-1.24.29C7.48,96.25,7.22,95.88,8,95.23Z"/><path class="cls-7" d="M49.75,57.2a2.33,2.33,0,0,0-2.24-.74c-1.27.27-2.07-.91-3.22-1,0-.14,0-.28-.07-.42a12.75,12.75,0,0,1,6.63,1.25,4.75,4.75,0,0,0,.81,1.62l-.07,1.2a1.93,1.93,0,0,0-1.17-.26A1.36,1.36,0,0,0,49.75,57.2Z"/><path class="cls-1" d="M20.46,93.68c-.27,1-1.11,1-1.9,1.18,0-.32,0-.7-.45-.69a4.7,4.7,0,0,1-3.42-1.82,1.43,1.43,0,0,0-2.12,0,1.59,1.59,0,0,1,2.17-1.46,2.28,2.28,0,0,1,1.09.89c.43,1,1.41,1.28,2.2,1.84A2.11,2.11,0,0,0,20.46,93.68Z"/><path class="cls-12" d="M106.84,119.79a1.9,1.9,0,0,1-.5-.3,1.47,1.47,0,0,1-.27-1.41c.19-.42.71,0,1.07,0,1,.26,2,.49,3,.84a2.36,2.36,0,0,1,1.76,2.07C110.29,120.2,108.48,120.33,106.84,119.79Z"/><path class="cls-7" d="M23.79,99.57c-.57-.46.19-.89,0-1.42-.22-.69-.84-1.14-.94-1.85h.94a15.63,15.63,0,0,1,3.29,1.07c.56.36,1.27.55,1.52,1.29-1,.61-2,.1-3-.14s-1.85-1-1.47.85C24.19,99.51,24,99.58,23.79,99.57Z"/><path class="cls-3" d="M64.64,16.16a.51.51,0,0,1,.43.7c-.4,1.37,0,2.82-.5,4.17a3.33,3.33,0,0,0-2.6-.8c.32-.69.08-1.56.7-2.16Z"/><path class="cls-6" d="M57.66,30.77c-.14-1.7-1.08-2.63-3.1-3.09a2.08,2.08,0,0,1,1.66-1.13,9.21,9.21,0,0,1,1.14.55c.79.52,1.8.82,2,1.95-.17.48-1.39.37-.73,1.31A1,1,0,0,1,57.66,30.77Z"/><path class="cls-14" d="M38,47.85A5.81,5.81,0,0,0,34.85,49a2.3,2.3,0,0,1-1.07.4,3.58,3.58,0,0,1,.76-2.44l.41-.24c.74-.46,1.56-1.1,2.35-.94.41.09.62,1.22.92,1.87Z"/><path class="cls-2" d="M78.76,70.89c-.08-.81-.16-1.63-.25-2.44A15.92,15.92,0,0,1,83,64.79a1.42,1.42,0,0,1,1-.13c-1.19,1.17-2.91,1.62-4,3-.39.5-.71.8-.25,1.52s.09,1.64.15,2.47C79.44,71.57,78.87,71.62,78.76,70.89Z"/><path class="cls-1" d="M47,123.4a3,3,0,0,1,.57-3.43,7.56,7.56,0,0,1,.85-.64c.35-.21.88-.71,1.1-.29s.76,1,.42,1.67c0,.05-.15.05-.22.07C48.13,120.93,47.64,122.23,47,123.4Z"/><path class="cls-14" d="M32.57,53.62a34.47,34.47,0,0,1,3.36-2.16c.17.45-.61,1,.18,1.24.15.06.18.34,0,.4-1.31.63-2.08,2.06-3.57,2.4A3.09,3.09,0,0,1,32.57,53.62Z"/><path class="cls-7" d="M14,99.17c1.75-.67,3.49-1.4,5.28-2,1.63-.56,1.65-.5,1.69,1.23-.4-.37-.8-.12-1.22,0A17.23,17.23,0,0,1,14,99.17Z"/><path class="cls-4" d="M28.62,98.65c-.25-.74-1-.93-1.52-1.29a15.73,15.73,0,0,0-3.28-1.07v-.94h1.43c.34.41.8.2,1.21.24.16.28.45.23.7.25,0,.3.16.49.48.48a7.41,7.41,0,0,1,1.19,1.11C29.11,97.82,29.39,98.37,28.62,98.65Z"/><path class="cls-14" d="M36.33,56.48c-.7.67-1.56,1.23-1.54,2.36-.68.13-.87.73-1.15,1.24-.24.28-.45.62-.91.49a2.13,2.13,0,0,1-.38-1.19l3-3.52.68,0C36,56.09,36.05,56.34,36.33,56.48Z"/><path class="cls-13" d="M59.38,29.05c-.22-1.13-1.23-1.43-2-1.95a9.21,9.21,0,0,0-1.14-.55A4,4,0,0,1,57.79,26a2.59,2.59,0,0,1,2.74,1.94c-.37.43-.35,1.07-.82,1.44Z"/><path class="cls-12" d="M112.55,117.89a1,1,0,0,1-1,.1,5.3,5.3,0,0,0-2.4-.69,5.13,5.13,0,0,1,5.47-.5.48.48,0,0,1,.3.47l-.4,0a1,1,0,0,0-1.22.08Z"/><path class="cls-1" d="M38.48,118.75c.07-.2.19-.39.42-.34a18.93,18.93,0,0,0,5.26-.22.61.61,0,0,1,.69.33c.16.37-.06.59-.34.79a1.53,1.53,0,0,1-1.35.07,11,11,0,0,0-4.38.21Z"/><path class="cls-6" d="M63.5,24.41l-.39.55A.69.69,0,0,1,62,24.88a2.22,2.22,0,0,0-2.1-.8,1.58,1.58,0,0,1,.86-1.48C61.87,22.84,63.21,22.82,63.5,24.41Z"/><path class="cls-14" d="M38.24,39.7c1.64,0,1.86.22,1.9,1.91a.21.21,0,0,1-.17,0,12.08,12.08,0,0,0-3,.66A2.81,2.81,0,0,1,38.24,39.7Z"/><path class="cls-7" d="M12.57,92.31a1.43,1.43,0,0,1,2.12,0,4.7,4.7,0,0,0,3.42,1.82c.43,0,.43.37.45.69l-.51,0H17.6c-.87.18-1.69.73-2.63.35.27-.49,1.21.37,1.26-.6A8.73,8.73,0,0,0,12.57,92.31Z"/><path class="cls-5" d="M27.87,79c.21.6-.28,1.11-.21,1.69a.77.77,0,0,0-.27.71h0a1.63,1.63,0,0,0-1,1.73A2.08,2.08,0,0,1,26,84.59a4.18,4.18,0,0,0-.67,3.25l-.11.08c-.82-.66-.54-1.59-.35-2.32.28-1.08.92-2.06.89-3.23a.8.8,0,0,1,.37-.58,2.45,2.45,0,0,0,1.07-2.24C27.16,79.11,27.55,79.07,27.87,79Z"/><path class="cls-6" d="M60.53,27.94A2.59,2.59,0,0,0,57.79,26a1.78,1.78,0,0,1,1-1.1,4.21,4.21,0,0,1,2.71,1.64C61.91,27.51,61,27.56,60.53,27.94Z"/><path class="cls-9" d="M61.53,26.54a4.21,4.21,0,0,0-2.71-1.64c.18-.48.63-.61,1-.82a2.22,2.22,0,0,1,2.1.8.69.69,0,0,0,1.16.08A2.6,2.6,0,0,1,61.53,26.54Z"/><path class="cls-14" d="M49,39.7c-.63,0-.89-.6-1.3-.94a.9.9,0,0,1-.13-1.44c.43-.47.72.08,1,.32s.56.5.62-.15l.48.07a.64.64,0,0,0,.54.7C50.12,39,49.55,39.3,49,39.7Z"/><path class="cls-6" d="M62,20.23a3.33,3.33,0,0,1,2.6.8c.12.56-.34.89-.51,1.34a4.05,4.05,0,0,0-2.6-.68Z"/><path class="cls-14" d="M49.82,35.34a1.21,1.21,0,0,0-.13-.93,2.19,2.19,0,0,1,2.93,1.46,4.61,4.61,0,0,1-1.34.78C50.73,36.28,50.58,35.47,49.82,35.34Z"/><path class="cls-2" d="M64.64,16.16l-2,1.91.06-1.4a2.41,2.41,0,0,0,.39-1.22c.05-.45-.09-1,.56-1.14s.59.62.9.92Z"/><path class="cls-12" d="M95.1,118.1c.57-1.65,1.31-1.84,4-1-.53.77-1.38.66-2.08.89l-.46,0a.16.16,0,0,0-.28,0l-.48,0h-.67Z"/><path class="cls-13" d="M61.46,21.69a4.05,4.05,0,0,1,2.6.68,6.32,6.32,0,0,1-.56,2c-.29-1.59-1.63-1.57-2.79-1.81A1.82,1.82,0,0,1,61.46,21.69Z"/><path class="cls-14" d="M45.41,42.57c.14-.55.92-.62,1-1.25h.68l.84.3a4.19,4.19,0,0,1-.45,1.87c-.78.12-1.19-.76-1.94-.71Z"/><path class="cls-14" d="M47.78,49a8,8,0,0,1-1.22-.42c-.4-.21-1.17-.25-.75-1s.86-.91,1.54-.37a1.52,1.52,0,0,0,.44.15A2.15,2.15,0,0,1,47.78,49Z"/><path class="cls-8" d="M51.59,59.12l.07-1.2c.91.22.12,1.17.65,1.56a2.21,2.21,0,0,1,3-.56c-.11.4-.36.46-.72.32a.7.7,0,0,0-1,.42l-1,.44-1,.17C51.66,59.89,51.62,59.51,51.59,59.12Z"/><path class="cls-1" d="M25.26,90.79a1.53,1.53,0,0,1-1.57,1.68c-1.17.11-2,1.1-3.22,1.2.64-1,1.76-1.19,2.72-1.64C23.92,91.68,24.82,91.62,25.26,90.79Z"/><path class="cls-2" d="M95.82,61.32c-.1.14.73.3,0,.44-2.26.1-4.43.82-6.68,1l-.08-.09c.56-.71,1.49-.6,2.19-.7C92.76,61.75,94.29,61.51,95.82,61.32Z"/><path class="cls-6" d="M49.82,35.34c.76.13.91.94,1.46,1.31l-1,1.61a.64.64,0,0,1-.54-.7C49.93,36.82,49.36,36.07,49.82,35.34Z"/><path class="cls-14" d="M41.13,37.08a.65.65,0,0,1-.53-.3,5.34,5.34,0,0,1,1.47-2.1c.33,0,.7-.21,1,.18-.4.63-1.12,1.06-1.25,1.88Z"/><path class="cls-14" d="M56,32c.78.07,0,.55.2.77a4.81,4.81,0,0,1-1.68.87C54,31.79,54,31.79,56,32Z"/><path class="cls-5" d="M64.58,15.23c-.31-.3-.22-1-.9-.92s-.51.69-.56,1.14a2.41,2.41,0,0,1-.39,1.22c0-.48,0-1,0-1.43,0-.85.3-1.43,1.19-1.43C65,13.81,64.49,14.68,64.58,15.23Z"/><path class="cls-7" d="M12.28,98c-.17.34-.6.13-.78.34-.19.61.88,0,.58.73-.63,0-1.57-.23-1.47-.76C10.77,97.55,11.65,97.81,12.28,98Z"/><path class="cls-5" d="M41.08,77.58c0,.83,0,1.65,0,2.48,0,.38.06.81-.49.91l-.25-.07C40.88,79.86,40.54,78.62,41.08,77.58Z"/><path class="cls-14" d="M59.38,29.05l.33.33c-.09.62-.57.8-1.06,1C58,29.42,59.21,29.53,59.38,29.05Z"/><path class="cls-2" d="M87.64,63.2c.31-.61.92-.41,1.41-.52l.08.09c-.3.71-1,.29-1.47.52Z"/><path class="cls-10" d="M123.67,72.05a8.61,8.61,0,0,0,0-2.21C123.68,70.58,123.68,71.31,123.67,72.05Z"/><path class="cls-12" d="M44.49,105.66c.7.41.69.82,0,1.22Z"/><path class="cls-5" d="M25.48,90.06l-.2,0,0-2.17.11-.08C25.71,88.56,25.4,89.32,25.48,90.06Z"/><path class="cls-3" d="M80,98.93v-.47c.18-.28.47-.23.74-.22A.68.68,0,0,1,80,98.93Z"/><path class="cls-5" d="M107.34,115.47a.74.74,0,0,1-.78-.38C106.93,115,107.25,115,107.34,115.47Z"/><path class="cls-5" d="M113.3,117.37a1,1,0,0,1,1.22-.08A2.53,2.53,0,0,1,113.3,117.37Z"/><path class="cls-5" d="M98.6,91.34a.72.72,0,0,1-.66-.29C98.21,91,98.53,90.92,98.6,91.34Z"/><path class="cls-5" d="M95.11,118.12h.67C95.55,118.42,95.33,118.46,95.11,118.12Z"/><path class="cls-11" d="M34.91,66.35,34.46,66h0l.45.28Z"/><path class="cls-10" d="M117.66,65.57c-.39.25-.21-.11-.26-.23Z"/><path class="cls-5" d="M98.93,91.49l-.3-.13Z"/><path class="cls-5" d="M96.26,118.09a.16.16,0,0,1,.28,0Z"/><path class="cls-8" d="M92,78.6c.2,0,.44,0,.48-.28.25-1.32,1.27-1.72,2.38-2,.3.06.54.18.5.54-.07.62.38.65.8.78.75.23,1.55.2,1.89-.49s-.62-.84-1-1.27a.38.38,0,0,0,.15-.09l.25-.06a19.94,19.94,0,0,1,6.25.72c3.41.8,6.71-.08,10-.43,1.19-.13,2.37-.28,3.55-.42,0,.76-.54.52-.92.56s-.82,0-1,.61c-.32,1.54-1.13,2.34-2.7,2.22-2-.15-3.61,1-5.5,1-.45,1.15-2,1-2.5,2.29-.29.81-1.42,1-2.16,1.41-.58.34-1.36.19-1.89,1a2.17,2.17,0,0,1-1.84.59c-1.19-.09-2.39,0-3.58,0-1.62-.07-3.13.84-4.77.48.16-.72,1.21-1,1-1.91a3.32,3.32,0,0,0,.59-3.94A3.61,3.61,0,0,1,92,78.6Zm11.89.16c.31-.07,1,.25,1.12-.36s-.5-.83-1-1a2.63,2.63,0,0,0-1.6-.37c-.44.11-1.12,0-1.24.54s.59.62,1,.86A2.78,2.78,0,0,0,103.87,78.76ZM96,81.41c.46,0,.92.1,1-.51.07-1-.66-1.3-1.36-1.56-.48-.18-1.14.11-1.08.6A2,2,0,0,0,96,81.41Z"/><path class="cls-12" d="M121,69.44c.67,1.66,0,3-1.15,4.13-.26.25-.58.41-.54.83a38.46,38.46,0,0,1-6.64,1.16c-4.1.32-8.14.66-12.19-.61a10.43,10.43,0,0,0-7.24.77,2.31,2.31,0,0,0-1.44,2.83c-1.39-1.51-.52-3.18-.09-4.65C92,73,93.41,73,94.38,72.83a18.3,18.3,0,0,1,2.87,0c.07.59.53.48.91.48l5.1,0h1.64c.39,0,.88.19,1-.44a25.64,25.64,0,0,0,4.44-.61c1.26-.2,2.73-.54,3.42-2,.73-.46,1.93-.42,1.89-1.73,1.61-.47,3.22-.93,4.65.44,0,.33.15.49.48.47ZM118.11,69c-.79,0-1.16.46-1.12,1.33s1.29,2.25,2.21,2.15,1.11-.95,1.19-1.68C120.5,69.88,119.26,69,118.11,69Z"/><path class="cls-15" d="M83.21,68a2.72,2.72,0,0,1,3.1-1.46A5.38,5.38,0,0,0,89.55,66,10.54,10.54,0,0,1,95,65.45c1.07.09,2.14.14,3.22.17L98.25,67l-.12.63c-.7.05-1.41.08-2.12.15a2.57,2.57,0,0,0-2,2.27,10.6,10.6,0,0,1-.37,1.71c-.13.57-.6.6-1.05.52s-.78-.36-.62-.93a1.28,1.28,0,0,0,0-.7c-.29-.87,0-1.34.89-1.52a.74.74,0,0,0,.64-.64c-2.09.26-4.15-.73-6.2,0a7.77,7.77,0,0,0-2.65,1.67c-.27.26-.39.87-.88.58a1.43,1.43,0,0,1-.85-1.34c0-.31.09-.62.14-.94Z"/><path class="cls-10" d="M70.12,86c.51-1.27.18-2.8,0-4.34-.05-.46-.1-1.06.54-1.17s.63.49.76.88a12.55,12.55,0,0,0,3,4.39,2.46,2.46,0,0,1,.47,2.65c-.43,1.29-1.45,1.52-2.33.48a3.79,3.79,0,0,0-1.9-1.54C70.07,87.22,70.14,86.71,70.12,86Z"/><path class="cls-2" d="M98.13,67.63c0-.21.08-.42.13-.63.39,0,.5.55.92.5.21,1.8.94,3.18,2.86,3.63h0c.17.31.48.22.74.26a1,1,0,0,0,1.18,0c.71-.1,1.48-.08,1.69-1h0c.27-.05.36-.25.41-.48l.53-.21c.76-.09,1.23-.38.93-1.25.43.05.93-.19,1.27.29a5.19,5.19,0,0,0-.76,1.89,4.93,4.93,0,0,1-4.08,2.16c-.32,0-.65,0-.68.45l-5.1,0c-.38,0-.84.11-.91-.48h4.28C99.33,71.76,98,70.16,98.13,67.63Z"/><path class="cls-5" d="M99.18,67.5c-.42,0-.53-.49-.92-.5,0-.46-.05-.92-.07-1.38,1.83-3.6,8-2.5,9.42.78.26.6.35,1.49,1.37,1.37a.63.63,0,0,1-.2,1c-.34-.48-.84-.24-1.27-.29-1-.06-.87-1.08-1.39-1.54-.62-1.31-1.9-1.61-3.11-2-.74,0-1.51-.27-2.21.19C99.64,65.48,99.35,66.45,99.18,67.5Z"/><path class="cls-15" d="M90,74.7A1.56,1.56,0,0,1,89,76.43c-.65.3-1.09-.12-1.4-.57a8.93,8.93,0,0,0-1.66-2.3c-.35-.27-.18-.69.07-1a4.06,4.06,0,0,0,1-2.47.66.66,0,0,1,.67-.68c.38,0,.81,0,.91.39C89,71.59,89,73.45,90,74.7Z"/><path class="cls-12" d="M83.21,68l-.15.43c-.52,0-.65.24-.7.73a13.19,13.19,0,0,0,.57,5.12A2.63,2.63,0,0,0,84.78,76,6.54,6.54,0,0,1,87,77.07a.68.68,0,0,0-.3.54l-.93-.25c-.34-.41-.8-.2-1.22-.23-.67,0-1.42.21-1.76-.75-.15-.39-.72-.17-1.09-.24a5,5,0,0,1-.25-2c0-.37.1-.82-.45-.93,0-.23,0-.47,0-.7a.73.73,0,0,0,.46-.73V68.48l.18-.29C82.4,66.86,82.4,66.86,83.21,68Z"/><path class="cls-4" d="M87.66,63.29c.48-.23,1.17.19,1.47-.52,2.25-.19,4.42-.91,6.68-1a6.45,6.45,0,0,1-9,2.19C86.93,63.52,87.62,63.81,87.66,63.29Z"/><path class="cls-10" d="M83.55,81.17A2.85,2.85,0,0,1,85,84.76a.8.8,0,0,1-.65.46,3,3,0,0,1-2.65-1.11,3.66,3.66,0,0,1-.64-3c.06-.25.33-.32.59-.32A1.35,1.35,0,0,0,83.55,81.17Z"/><path class="cls-15" d="M108.78,68.75a.63.63,0,0,0,.2-1c.8,0,1.39.52,2.1.74a4.8,4.8,0,0,0,2,.14l2.57-.15c0,1.31-1.16,1.27-1.89,1.73a5.14,5.14,0,0,0-2.47.22,4.49,4.49,0,0,1-3.26.19A5.19,5.19,0,0,1,108.78,68.75Z"/><path class="cls-7" d="M45.42,63.93c-.17.85-1.3,1.15-1.21,2.14A1.92,1.92,0,0,0,43,67.28c-1.16.56-1.76,1.69-2.6,2.58a6.21,6.21,0,0,1-.61.73c-.4.31-.88.66-1.35.14s.15-.75.38-1.06a18.45,18.45,0,0,1,4.34-4.56A4.39,4.39,0,0,1,45.42,63.93Z"/><path class="cls-15" d="M76.82,80.19l-1-.29c-.91-.27-1.45-.66-1.09-1.79a6.22,6.22,0,0,0,0-2.11,1.93,1.93,0,0,1,.46-1.65c.62.23.6,1.19,1.4,1.21.89.5,1.38,1.1.5,2C76,78.36,76.61,79.3,76.82,80.19Z"/><path class="cls-5" d="M62.22,89.59a4.44,4.44,0,0,0-3.52-1c-.19,0-.5,0-.57-.09-1.07-1.64-2.91-.71-4.33-1.26-1-.38-2.28-.07-3.43-.06s-2-1-3-1.42a2.58,2.58,0,0,1,1.69.38c1,.76,2.16.57,3.3.62a21.14,21.14,0,0,0,3.47.18c2.07-.32,3.39,1.44,5.3,1.26C61.82,88.16,62.26,88.77,62.22,89.59Z"/><path class="cls-5" d="M91.48,83.83c.25.92-.8,1.19-1,1.91h0c-.48.16-1.19-.37-1.43.49h0c-2,1-3.78,2.46-5.73,3.59a3.21,3.21,0,0,1-1.47.24c.56-.74,1.47-1,2.19-1.48,2.15-1.54,4.58-2.66,6.52-4.5A1.2,1.2,0,0,1,91.48,83.83Z"/><path class="cls-15" d="M78.76,70.89c.11.73.68.68,1.2.72l.22.22A14,14,0,0,1,79,75a5.21,5.21,0,0,1-.71-3.43C78.33,71.29,78.32,70.94,78.76,70.89Z"/><path class="cls-10" d="M66.7,81.82c-1.19-1.3-1.17-2.91-1.14-4.51,0-.49.07-1,.66-1.13-.44,1.7-.29,2.14.79,2.39a.9.9,0,0,1,.46.9A2.84,2.84,0,0,0,66.7,81.82Z"/><path class="cls-10" d="M59.28,81.62c-.25,0-.49,0-.61-.22a6.79,6.79,0,0,1-.21-3.52c0-.29.35-.25.59-.22.05.45.4.47.74.53.19.25.5.44.46.82A3.56,3.56,0,0,0,59.28,81.62Z"/><path class="cls-2" d="M79,75a14,14,0,0,0,1.16-3.21A3.43,3.43,0,0,1,80,74.92c-.3.64-.62,1.16-.12,1.82a2.06,2.06,0,0,1,.27.79c.06.26.15.58-.21.71s-.52-.12-.66-.37C78.79,77,79.09,76,79,75Z"/><path class="cls-10" d="M64.85,82.15c1-.12,1,.51,1,1.21a3.54,3.54,0,0,0-.28,1.54c-1.19-1.41-2.35-2.84-1.69-4.89C64.17,80.74,64,81.7,64.85,82.15Z"/><path class="cls-5" d="M42.52,79.51c-.65-.51-.48-1.64-1.44-1.93.15-1-.52-2.31,1-2.87v.49c-.15.31-.4.63,0,1-.12.72-.37,1.43.31,2.09C42.66,78.53,42.58,79.07,42.52,79.51Z"/><path class="cls-5" d="M86.65,77.61a.68.68,0,0,1,.3-.54c1-.06,1.57.84,2.35,1.26,0,.6,0,1.3-.79.37-.2-.23-.42,0-.62.08a.81.81,0,0,1-.22-.07c-.14-.48-.56-.57-1-.66h0C86.69,77.9,86.67,77.76,86.65,77.61Z"/><path class="cls-2" d="M48.77,80.91a.93.93,0,0,1-.87,1c-.64,0-.9-.53-1-1s.36-.86.9-.86S48.66,80.39,48.77,80.91Z"/><path class="cls-12" d="M87.89,78.78c.2-.06.42-.31.62-.08.76.93.75.23.79-.37a4.64,4.64,0,0,1,.77.26c.46.26,1,.73.74,1.18S90,80,89.5,79.68,88.09,79.7,87.89,78.78Z"/><path class="cls-2" d="M83.55,81.17a1.35,1.35,0,0,1-1.91-.43c.21-.47-.6-1.08,0-1.36s.86.52,1.26.84S83.56,80.71,83.55,81.17Z"/><path class="cls-2" d="M57.64,80.2c-.07.23.18.74-.48.62A1.27,1.27,0,0,1,56,79.53c0-.53.41-.48.77-.49C57.54,79,57.7,79.5,57.64,80.2Z"/><path class="cls-2" d="M52.86,79.15c0,.54-.25.83-.8.84-.71,0-.84-.49-.87-1,0-.36.06-.89.49-.75S52.81,78.43,52.86,79.15Z"/><path class="cls-2" d="M56.13,73.75c.55,0,1,.06,1,.68a.73.73,0,0,1-.87.76.9.9,0,0,1-.93-.77C55.25,73.81,55.75,73.77,56.13,73.75Z"/><path class="cls-2" d="M76.58,75.56c-.8,0-.78-1-1.4-1.21.09-.53.09-1.33.62-1.38s.33.81.63,1.21S76.59,75.09,76.58,75.56Z"/><path class="cls-2" d="M67,78.57c-1.08-.25-1.23-.69-.79-2.39.66-.06,1.2-.08.87.9A5.23,5.23,0,0,0,67,78.57Z"/><path class="cls-2" d="M46.64,75.08a.93.93,0,0,1,.89-.82c.57,0,.77.33.76.85s-.14.77-.58.75A1,1,0,0,1,46.64,75.08Z"/><path class="cls-2" d="M50.23,84.18c.39-.37.64-.65.94-.88a1,1,0,0,1,1.21,0c.3.23.11.5,0,.75a.67.67,0,0,1-1,.38A10.43,10.43,0,0,0,50.23,84.18Z"/><path class="cls-2" d="M57.66,84.79c.54,0,1,.28,1,.69s-.38.74-.89.74a.71.71,0,0,1-.82-.78C56.92,84.89,57.24,84.76,57.66,84.79Z"/><path class="cls-2" d="M61.74,82.39c.47,0,.72.16.71.73s-.17.74-.68.7-.93-.3-1-.84S61.25,82.4,61.74,82.39Z"/><path class="cls-2" d="M76.82,80.19c-.21-.89-.81-1.83.26-2.59-.12.8.68,1.38.51,2.24C77.47,80.48,77.24,80.45,76.82,80.19Z"/><path class="cls-2" d="M68.94,79c0-.44.25-.82.68-.85s.7.37.72.8-.22.92-.73.91S69,79.48,68.94,79Z"/><path class="cls-2" d="M75.65,82.22c-.08.28.09.87-.3.74-.62-.21-.78-.92-.88-1.55,0-.28.12-.65.42-.58C75.61,81,75.59,81.65,75.65,82.22Z"/><path class="cls-2" d="M59.28,81.62a3.56,3.56,0,0,1,1-2.61,4.39,4.39,0,0,1-.06,2.16C60.16,81.38,59.91,82.14,59.28,81.62Z"/><path class="cls-2" d="M64.85,82.15c-.9-.45-.68-1.41-1-2.14.36,0,.82-.48,1,0a1.55,1.55,0,0,1,.18,1.45C65,81.71,64.94,81.94,64.85,82.15Z"/><path class="cls-2" d="M59.79,78.19c-.34-.06-.69-.08-.74-.53s.19-.77.27-1.16.1-.84.58-.7.34.6.21,1S59.89,77.72,59.79,78.19Z"/><path class="cls-2" d="M65.58,84.9a3.54,3.54,0,0,1,.28-1.54c1,.45.69,1.34.6,2.07-.06.45-.44.33-.68,0l-.21-.53Z"/><path class="cls-2" d="M62.67,77.42a.65.65,0,0,1-.81.63.63.63,0,0,1-.59-.75.65.65,0,0,1,.81-.64C62.51,76.71,62.68,77,62.67,77.42Z"/><path class="cls-2" d="M78,88c0-.31-.08-.81.49-.72a.84.84,0,0,1,.69.87.6.6,0,0,1-.62.71C78,88.87,78.06,88.4,78,88Z"/><path class="cls-2" d="M64.83,87.84c-.38-.1-.69-.25-.69-.7s.07-.85.59-.86.59.34.59.74S65.29,87.75,64.83,87.84Z"/><path class="cls-2" d="M66.7,81.82a2.84,2.84,0,0,1,.77-2.35,5.7,5.7,0,0,1-.23,2.43C67,82.6,66.83,82.23,66.7,81.82Z"/><path class="cls-2" d="M81,73.26c.55.11.46.56.45.93a5,5,0,0,0,.25,2c-.59.07-.75-.25-.73-.77C81,74.67,80.94,74,81,73.26Z"/><path class="cls-2" d="M81.4,68.48v1.91A1.08,1.08,0,0,1,81.4,68.48Z"/><path class="cls-2" d="M86.65,77.61c0,.15,0,.29,0,.44-.52,0-1,.08-1-.69Z"/><path class="cls-2" d="M86.7,78.05c.41.09.83.18,1,.66C86.92,79.12,86.89,78.47,86.7,78.05Z"/><path class="cls-2" d="M42.05,76.16c-.39-.33-.14-.65,0-1C43.12,75.53,42.11,75.84,42.05,76.16Z"/><path class="cls-2" d="M81.4,71.83a.73.73,0,0,1-.46.73C80.91,72.2,80.92,71.87,81.4,71.83Z"/><path class="cls-2" d="M63.4,90.08c-.26,0-.56.09-.7-.25C63,89.83,63.25,89.77,63.4,90.08Z"/><path class="cls-10" d="M65.57,84.91l.21.53C65.57,85.32,65.59,85.1,65.57,84.91Z"/><path class="cls-2" d="M63.63,90.34c-.08-.09-.16-.17-.23-.26C63.47,90.17,63.55,90.25,63.63,90.34Z"/><path class="cls-12" d="M46.19,104.21c-.48,0-.75-.22-.76-.71a.75.75,0,0,1,.57-.81c.47,0,.77.36.82.82S46.61,104.17,46.19,104.21Z"/><path class="cls-8" d="M117.35,75.62a6.39,6.39,0,0,1,2.93-.49c0,.56-.45.54-.85.54Z"/><path class="cls-8" d="M89.08,86.23c.24-.86,1-.33,1.43-.49C90.28,86.63,89.56,86.06,89.08,86.23Z"/><path class="cls-8" d="M120.85,75.16a2.63,2.63,0,0,1,1.28-.39C121.89,75.52,121.3,75.09,120.85,75.16Z"/><path class="cls-7" d="M50.69,60.79c-1,0-1.66.88-2.61,1-4.19.35-7.5,2.39-10.35,5.35-.4.42-.84,1.49-1.52.85s.29-1.18.71-1.68a15.28,15.28,0,0,1,9.29-5.62A9.57,9.57,0,0,1,50.69,60.79Z"/><path class="cls-7" d="M36.82,61.06c-.36-.08-.88.26-1.06-.19a1.25,1.25,0,0,1,.39-1.19,8,8,0,0,1,.84-.81c.71,0,1.24-.79,2-.41-.36.46-.56.92-.11,1.44a3,3,0,0,0,2.15.69,1.34,1.34,0,0,1,.07.18c-1-.06-1.6.7-2.31,1.24-.33.26-.54.69-1,.72C37.57,62.11,38.44,60.87,36.82,61.06Z"/><path class="cls-15" d="M36.82,61.06c1.62-.19.75,1,1,1.67l0,0c-.24.07-.21.26-.2.44l0,.06a1,1,0,0,0-.41.88.44.44,0,0,0-.08.11l-1.13,1.38c-.45,0-.44.74-1,.65L34.47,66c-.09-1.68,1.17-2.73,1.93-4A2.6,2.6,0,0,0,36.82,61.06Z"/><path class="cls-1" d="M25.48,90.06c-.08-.74.23-1.5-.12-2.22A4.18,4.18,0,0,1,26,84.59a2.08,2.08,0,0,0,.41-1.45,1.63,1.63,0,0,1,1-1.73c.19.68.55,1.36-.4,1.84-.44.22-.37.79-.38,1.19s.23,1-.27,1.43c-.05,0-.11.17-.09.21C27.34,87.67,25.19,88.63,25.48,90.06Z"/><path class="cls-15" d="M49.75,57.2a1.36,1.36,0,0,1,.67,1.66l-.65.09c-.68-.91-1.7-.38-2.55-.61.43-.67-.2-.38-.4-.4-.76-.08-1.6.3-2.25-.41C46.27,57,48,57.32,49.75,57.2Z"/><path class="cls-11" d="M47.22,58.34c.85.23,1.87-.3,2.55.61a28.14,28.14,0,0,1-4.34.91c0-.54-.57-.42-.73-.76Z"/><path class="cls-2" d="M25.25,95.35H23.33c.22-.78,1-.52,1.52-.89a9.74,9.74,0,0,1,2.33-1.52,1.23,1.23,0,0,1-.9,1.43A1.46,1.46,0,0,0,25.25,95.35Z"/><path class="cls-6" d="M44.7,59.1c.16.34.78.22.73.76a6.11,6.11,0,0,1-1.94.62l-.76-.27c.17-.35.76-.3.76-.8A1.58,1.58,0,0,1,44.7,59.1Z"/><path class="cls-11" d="M43.49,59.41c0,.5-.59.45-.76.8l.76.27c-.73.6-1.58.17-2.37.29a1.34,1.34,0,0,0-.07-.18l1-1C42.55,59.57,43,59.21,43.49,59.41Z"/><path class="cls-1" d="M27.18,84.31c0-.41,0-.91.54-.89a.88.88,0,0,1,.85,1,.89.89,0,0,1-.85.84C27.21,85.2,27.18,84.73,27.18,84.31Z"/><path class="cls-1" d="M23.33,95.35h.49v.94h-.95C22.91,95.93,22.69,95.42,23.33,95.35Z"/><path class="cls-7" d="M35.89,65.62,37,64.24A1.42,1.42,0,0,1,35.89,65.62Z"/><path class="cls-7" d="M37.1,64.13a1,1,0,0,1,.41-.88A.83.83,0,0,1,37.1,64.13Z"/><path class="cls-1" d="M17.6,94.9h.45c0,.16,0,.34-.22.35S17.61,95.06,17.6,94.9Z"/><path class="cls-2" d="M27.65,92.46a.42.42,0,0,1-.47.49A.43.43,0,0,1,27.65,92.46Z"/><path class="cls-1" d="M27.39,81.42a.77.77,0,0,1,.27-.71C27.65,81,27.71,81.27,27.39,81.42Z"/><path class="cls-7" d="M37.55,63.19c0-.18,0-.37.2-.44Z"/><path class="cls-7" d="M45.92,63.68a.45.45,0,0,1-.49.25C45.52,63.71,45.71,63.68,45.92,63.68Z"/><path class="cls-11" d="M71.54,71.64c0,.39,0,.59-.18.72a4.23,4.23,0,0,1-2.57-.46c-.28-.74-1-1.07-1.53-1.45-.35-.23-.72-.41-.66-.86s.53-.39.86-.47a3.34,3.34,0,0,0,1.74-.71c.36-.36,1-.34,1.11.1A16.33,16.33,0,0,0,71.54,71.64Zm-1.85-1.36c-.3-.24-.12-.86-.62-.76-.34.06-.95,0-1,.49s.62.51.93.78C69,70.4,69.57,70.6,69.69,70.28Z"/><path class="cls-15" d="M59.42,71.3A4.87,4.87,0,0,1,63.26,70a9.3,9.3,0,0,1,3.37.65c.3.12.62.27.58.66s-.31.42-.58.54a2.17,2.17,0,0,1-2.26-.2,1.8,1.8,0,0,0-2.11-.09A2.5,2.5,0,0,1,59.42,71.3Z"/><path class="cls-7" d="M61,66c-.2-.13-.39-.27-.6-.38-.74-.39-.87-.87-.08-1.28a9.64,9.64,0,0,1,5.4-1.06c.38,0,1,.09,1,.69s-.52.65-.89.85a4.81,4.81,0,0,1-2.35.24c-.81,0-1.57.12-2,.94Z"/><path class="cls-15" d="M52.65,60.1l1-.44c.49.17,1.08.12,1.4.66h0c-.48.15-1.19-.4-1.43.47h0a3.7,3.7,0,0,0-.93,2.43c0,.36.27.44.58.39l.1,0c-.09.32-.65.58,0,1,.3.19.3.49-.13.58s-.68.39-.4.74,1,.37,1.13.05c.34-1.08,1.15-.71,1.84-.79a3.35,3.35,0,0,1-1.91,1.33c-.53.21-1.15.49-1.69.06s-.06-1,0-1.53c-.57-.33-1.56.32-1.76-.58s.8-1,1.29-1.37C52.52,62.23,52.3,61.07,52.65,60.1Z"/><path class="cls-15" d="M58.34,66.94c-.11.36-.45.46-.73.54-1.35.43-2.78.69-3.71,1.93-.12.16-.42.2-.65.27s-.74.25-1-.06-.08-.79.15-1.1a5.41,5.41,0,0,1,3.05-2,4.06,4.06,0,0,1,2.34-.15C58,66.5,58.36,66.56,58.34,66.94Z"/><path class="cls-11" d="M55.71,65.11c-.69.08-1.5-.29-1.84.79-.11.32-.84.34-1.13-.05s-.06-.65.4-.74.43-.39.13-.58c-.6-.38,0-.64,0-1,1.16,0,2.35.07,3.24-1a9,9,0,0,1-2.27-1.05.89.89,0,0,1,1.09-.19c1,.7,1.95,1.66,3.41,1.62-.79.17-1.22.92-2.07.81-.47-.06-.52.5-.49.91h0c-.23,0-.42,0-.48.3A.14.14,0,0,1,55.71,65.11Z"/><path class="cls-15" d="M57.83,70.67c-.51-.07-1-.12-1.52-.22-.33-.07-.82,0-1-.33s.33-.66.59-.92a2.74,2.74,0,0,1,2.76-.58c.61.14,1.17.43,1.11,1.17s-.74.72-1.26.82a4.21,4.21,0,0,1-.71,0Z"/><path class="cls-15" d="M61,66h.47c.86.66.91,1.83,1.62,2.59.12.13.07.5-.12.5-.63,0-1.48.13-1.85-.21a13.74,13.74,0,0,0-2-1.62c-.2-.12-.44-.31-.29-.57s.34-.17.52-.18A2.71,2.71,0,0,0,61,66Z"/><path class="cls-15" d="M56.23,64.66c0-.41,0-1,.49-.91.85.11,1.28-.64,2.07-.81-1.46,0-2.36-.92-3.41-1.62a.89.89,0,0,0-1.09.19l-.44.09-.28-.8h0c.47-.17,1.18.39,1.43-.47h0a22.52,22.52,0,0,0,2.16,1.44c.46.19.86.52,1.45.33a.83.83,0,0,1,1,.63c.22.57-.19.85-.58,1C58.12,64.08,57.17,64.35,56.23,64.66Z"/><path class="cls-7" d="M64.65,67.8c-.44-.17-1,.2-1.11-.33-.07-.37.42-.63.74-.85a3.19,3.19,0,0,1,2.38-.52.78.78,0,0,1,.73.67c0,.39-.34.53-.63.6C66,67.55,65.3,67.67,64.65,67.8Z"/><path class="cls-15" d="M55.75,65c.06-.26.25-.32.48-.3C56.17,64.9,55.94,64.91,55.75,65Z"/><path class="cls-2" d="M102.06,116.45h3.81c-.84,1-1.94.31-2.91.47C102.61,117,102.14,117,102.06,116.45Z"/><path class="cls-2" d="M101.08,115.51a1.24,1.24,0,0,1,1,.93C101.33,116.53,100.93,116.31,101.08,115.51Z"/><path class="cls-3" d="M38,47.85l.23-.25a15.31,15.31,0,0,1,6.39.28c.35.09.84.06.66.72-.26.92.42,1.29,1.1,1.57A3.08,3.08,0,0,1,48,51.25c-1.51-.23-2.86-.68-4.28-.84a12,12,0,0,0-4.63.09c-1.35.39-2.12-.35-3.1-1C36.7,48.85,38.06,49.18,38,47.85Z"/><path class="cls-3" d="M45.41,42.57l.1.22a15.26,15.26,0,0,0,1.15,4,17,17,0,0,0-7.95-1.57c1.16-.36.91-.86.35-1.39s-.45-.75.06-1.15a5.41,5.41,0,0,0,.85-1,.21.21,0,0,0,.17,0A18.16,18.16,0,0,1,45.41,42.57Z"/><path class="cls-10" d="M111,63.64a7,7,0,0,1,2.77.4c.72.36,1.21.85.85,1.69a1.2,1.2,0,0,1-1.77.62,5.52,5.52,0,0,1-2.54-2.21C110.07,63.69,110.23,63.46,111,63.64Z"/><path class="cls-1" d="M120.77,69.41c-.33,0-.48-.14-.48-.47A.48.48,0,0,1,120.77,69.41Z"/><path class="cls-7" d="M43.49,59.41c-.5-.2-.94.16-1.42.16-.72-.26-1.26-.56-.2-1.13l.86-.55c.58.09.94-.54,1.51-.46l.33.1c.65.71,1.49.33,2.25.41.2,0,.83-.27.4.4l-2.52.76A1.58,1.58,0,0,0,43.49,59.41Z"/><path class="cls-7" d="M36.79,58.07H35.56c1.13-1.45,2.88-1.77,4.38-2.52a.63.63,0,0,0,.19,0c.37-.07.74-.14,1.11-.19.77-.09.26.38.27.63a3.82,3.82,0,0,1-2.33,2.41c0-.38.35-.5.53-.75s.51-.33.35-.68a.74.74,0,0,0-.79-.43A3.6,3.6,0,0,0,36.79,58.07Z"/><path class="cls-4" d="M36.79,58.07a3.6,3.6,0,0,1,2.48-1.56.74.74,0,0,1,.79.43c.16.35-.2.47-.35.68s-.54.37-.53.75a.21.21,0,0,1-.17.09c-.78-.38-1.31.45-2,.41A.86.86,0,0,0,36.79,58.07Z"/><path class="cls-15" d="M41.87,58.44c-1.06.57-.52.87.2,1.13l-1,1a3,3,0,0,1-2.15-.69c.59-.44,1.16-.9,1.78-1.31A1.12,1.12,0,0,1,41.87,58.44Z"/><path class="cls-11" d="M41.51,56c0-.25.5-.72-.27-.63-.37.05-.74.12-1.11.19.79-1.16,1.72-.94,2.77-.16Z"/><path class="cls-9" d="M44.24,57.43c-.57-.08-.93.55-1.51.46.18-.51.37-1,.58-1.6A3,3,0,0,1,44.24,57.43Z"/><path class="cls-11" d="M44.22,55.05c0,.14.05.28.07.42-.25,0-.64.2-.65-.22S44,55.06,44.22,55.05Z"/><path class="cls-13" d="M97.08,75.87c.33.43,1.31.55,1,1.27s-1.14.72-1.89.49c-.42-.13-.87-.16-.8-.78,0-.36-.2-.48-.5-.54Z"/><path class="cls-13" d="M97.48,75.72l-.25.06Z"/><path class="cls-6" d="M33.64,60.08c.28-.51.47-1.11,1.15-1.24.35.1.87-.14,1,.42s-.59.48-.85.77C34.51,60.49,34.08,60.3,33.64,60.08Z"/><path class="cls-13" d="M41.13,37.08l.65-.34a10.47,10.47,0,0,1,4.6,1.12c.51.28.85.61.64,1.24s.29,1.48,0,2.23h-.68c-1-1.57-2.78-1.53-4.35-1.87-.67-.15-1.64.36-2-.25s.68-1.05.9-1.68C41,37.37,41.07,37.22,41.13,37.08Z"/><path class="cls-2" d="M46.38,109.75a4.07,4.07,0,0,1-1.71,2.8c-.56-2.16-.08-2.92,1.7-2.81Z"/><path class="cls-2" d="M27.16,95.84c-.25,0-.54,0-.7-.25C26.87,95.19,27.09,95.31,27.16,95.84Z"/><path class="cls-13" d="M103.87,78.76a2.78,2.78,0,0,1-1.74-.34c-.37-.24-1.1-.24-1-.86s.8-.43,1.24-.54a2.63,2.63,0,0,1,1.6.37c.48.18,1.11.41,1,1S104.18,78.69,103.87,78.76Z"/><path class="cls-13" d="M96,81.41a2,2,0,0,1-1.47-1.47c-.06-.49.6-.78,1.08-.6.7.26,1.43.6,1.36,1.56C96.92,81.51,96.46,81.39,96,81.41Z"/><path class="cls-1" d="M108,70.64a4.49,4.49,0,0,0,3.26-.19,5.14,5.14,0,0,1,2.47-.22c-.69,1.43-2.16,1.77-3.42,2a25.62,25.62,0,0,1-4.45.61.86.86,0,0,0-1,.44h-1.64c0-.45.36-.43.68-.45A4.93,4.93,0,0,0,108,70.64Z"/><path class="cls-11" d="M118.11,69c1.15,0,2.39.9,2.28,1.8-.08.73-.22,1.58-1.19,1.68S117,71.31,117,70.31,117.32,69,118.11,69Z"/><path class="cls-2" d="M104.9,73.25a.86.86,0,0,1,1-.44C105.78,73.44,105.29,73.24,104.9,73.25Z"/><path class="cls-13" d="M103,64.92c1.21.39,2.49.69,3.11,2-.11.87.51,1.74,0,2.62-.07.11.31.13.49.17l-.53.21c-.31,0-.43.19-.41.48h0a4.24,4.24,0,0,0-1.69,1,1,1,0,0,1-1.18,0,.61.61,0,0,0-.74-.26h0a5.35,5.35,0,0,1-1-3.73A6.36,6.36,0,0,1,103,64.92Zm-.5,4.74.22.24.47,1.42a8.43,8.43,0,0,0,.55-3.58,2.8,2.8,0,0,0,.59-.1c.35-.15.84-.26.76-.78s-.6-.53-1-.54a.8.8,0,0,0-.63.27.38.38,0,0,1-.52,0,2.18,2.18,0,0,0-.36,3.12Z"/><path class="cls-6" d="M101.07,67.4a5.35,5.35,0,0,0,1,3.73c-1.92-.45-2.65-1.83-2.86-3.63.17-1,.46-2,1.62-2.39.16.1.65-.09.48.23C100.91,66,101.2,66.73,101.07,67.4Z"/><path class="cls-6" d="M106.58,69.71c-.18,0-.56-.06-.49-.17.54-.88-.08-1.75,0-2.62.52.46.42,1.48,1.39,1.54C107.81,69.33,107.34,69.62,106.58,69.71Z"/><path class="cls-10" d="M104,71.41a4.24,4.24,0,0,1,1.69-1C105.43,71.33,104.66,71.31,104,71.41Z"/><path class="cls-10" d="M105.64,70.4c0-.29.1-.47.41-.48C106,70.15,105.91,70.35,105.64,70.4Z"/><path class="cls-6" d="M102,71.12a.61.61,0,0,1,.74.26C102.51,71.34,102.2,71.43,102,71.12Z"/><path class="cls-11" d="M101.07,67.4c.13-.67-.16-1.37.21-2.06.17-.32-.32-.13-.48-.23.7-.46,1.47-.2,2.21-.19A6.36,6.36,0,0,0,101.07,67.4Z"/><path class="cls-9" d="M69.69,70.28c-.12.32-.65.12-.67.51-.31-.27-1-.31-.93-.78s.64-.43,1-.49C69.57,69.42,69.39,70,69.69,70.28Z"/><path class="cls-9" d="M53.85,61.6l.44-.09a9,9,0,0,0,2.27,1.05c-.89,1.09-2.08,1-3.24,1l-.1,0Z"/><path class="cls-11" d="M53.85,61.6l-.63,2c-.31.05-.6,0-.58-.39a3.7,3.7,0,0,1,.93-2.43Z"/><path class="cls-11" d="M55,60.33c-.25.86-1,.3-1.43.47C53.81,59.93,54.52,60.48,55,60.33Z"/><path class="cls-14" d="M103.75,67.74a8.43,8.43,0,0,1-.55,3.58l-.47-1.42-.22-.24,0,0a11.33,11.33,0,0,1,.36-3.12.38.38,0,0,0,.52,0A1.89,1.89,0,0,0,103.75,67.74Z"/><path class="cls-9" d="M103.75,67.74a1.89,1.89,0,0,1-.33-1.15.8.8,0,0,1,.63-.27c.45,0,1,0,1,.54s-.41.63-.76.78A2.8,2.8,0,0,1,103.75,67.74Z"/><path class="cls-9" d="M102.9,66.56a11.33,11.33,0,0,0-.36,3.12A2.18,2.18,0,0,1,102.9,66.56Z"/><path class="cls-9" d="M102.51,69.66l.22.24Z"/></svg>