<svg id="Layer_1" data-name="Layer 1" xmlns="http://www.w3.org/2000/svg" viewBox="0 0 365.61 179.37"><defs><style>.cls-1{fill:#fff;}.cls-2{fill:#2a308e;}</style></defs><path class="cls-1" d="M226.53,158.63h-17a5.33,5.33,0,0,0,2.17,3.3,7.23,7.23,0,0,0,4.25,1.21,8.59,8.59,0,0,0,3.11-.53,7.44,7.44,0,0,0,2.52-1.64l3.46,3.75q-3.16,3.63-9.26,3.63a14.73,14.73,0,0,1-6.71-1.48,10.94,10.94,0,0,1-4.5-4.11,11.28,11.28,0,0,1-1.58-6,11.45,11.45,0,0,1,1.56-5.94,10.92,10.92,0,0,1,4.29-4.13,13.29,13.29,0,0,1,12.07-.06,10.3,10.3,0,0,1,4.19,4.06,12.09,12.09,0,0,1,1.52,6.15C226.65,157,226.61,157.55,226.53,158.63Zm-15.22-7.21a5.34,5.34,0,0,0-1.83,3.42h11a5.37,5.37,0,0,0-1.83-3.4,5.51,5.51,0,0,0-3.67-1.27A5.62,5.62,0,0,0,211.31,151.42Z"/><path class="cls-1" d="M251.35,147.75q2.57,2.5,2.57,7.42V168h-6.51V156.17a5.91,5.91,0,0,0-1.16-4,4.31,4.31,0,0,0-3.38-1.31A5.19,5.19,0,0,0,239,152.4a6.32,6.32,0,0,0-1.46,4.52V168H231V145.59h6.21v2.62a8.73,8.73,0,0,1,3.21-2.19,11.26,11.26,0,0,1,4.21-.77A9.25,9.25,0,0,1,251.35,147.75Z"/><path class="cls-1" d="M281.64,145.59l-10.13,23.8a11.74,11.74,0,0,1-3.82,5.46,9.3,9.3,0,0,1-5.48,1.58,11.41,11.41,0,0,1-3.46-.54,7.57,7.57,0,0,1-2.79-1.5l2.37-4.63a5.58,5.58,0,0,0,1.74,1.05,5.33,5.33,0,0,0,1.93.37,3.44,3.44,0,0,0,2.17-.64,5.48,5.48,0,0,0,1.5-2.15l.09-.21L256,145.59h6.71l6.3,15.21,6.34-15.21Z"/><path class="cls-1" d="M300.61,147.73c1.86,1.66,2.79,4.15,2.79,7.49V168h-6.09v-2.79c-1.22,2.08-3.5,3.13-6.83,3.13a10.47,10.47,0,0,1-4.48-.88,6.64,6.64,0,0,1-2.9-2.42,6.23,6.23,0,0,1-1-3.5,5.85,5.85,0,0,1,2.35-4.92q2.35-1.78,7.28-1.79h5.17a4.14,4.14,0,0,0-1.3-3.27,5.65,5.65,0,0,0-3.87-1.15,11.53,11.53,0,0,0-3.53.56,9.34,9.34,0,0,0-2.93,1.53L282.93,148a14,14,0,0,1,4.4-2,19.82,19.82,0,0,1,5.27-.71C296.08,145.25,298.74,146.08,300.61,147.73Zm-5.55,15.47a4.29,4.29,0,0,0,1.84-2.27v-2.3h-4.46q-4,0-4,2.63a2.36,2.36,0,0,0,1,2,4.41,4.41,0,0,0,2.69.73A5.7,5.7,0,0,0,295.06,163.2Z"/><path class="cls-1" d="M308.86,167.18a4,4,0,0,1-1.17-2.92,3.82,3.82,0,0,1,1.17-2.9,4.06,4.06,0,0,1,2.88-1.1,4,4,0,0,1,2.87,1.1,3.82,3.82,0,0,1,1.17,2.9,4,4,0,0,1-1.17,2.92,4.12,4.12,0,0,1-5.75,0Z"/><path class="cls-1" d="M337.67,147.73c1.86,1.66,2.79,4.15,2.79,7.49V168h-6.09v-2.79c-1.22,2.08-3.5,3.13-6.83,3.13a10.55,10.55,0,0,1-4.49-.88,6.62,6.62,0,0,1-2.89-2.42,6.23,6.23,0,0,1-1-3.5,5.85,5.85,0,0,1,2.35-4.92q2.36-1.78,7.28-1.79H334a4.14,4.14,0,0,0-1.3-3.27,5.65,5.65,0,0,0-3.87-1.15,11.53,11.53,0,0,0-3.53.56,9.34,9.34,0,0,0-2.93,1.53L320,148a14,14,0,0,1,4.4-2,19.82,19.82,0,0,1,5.27-.71C333.14,145.25,335.8,146.08,337.67,147.73Zm-5.55,15.47a4.29,4.29,0,0,0,1.84-2.27v-2.3H329.5q-4,0-4,2.63a2.36,2.36,0,0,0,1,2,4.41,4.41,0,0,0,2.69.73A5.7,5.7,0,0,0,332.12,163.2Z"/><path class="cls-1" d="M346.67,141.42a3.39,3.39,0,0,1-1.12-2.59,3.36,3.36,0,0,1,1.12-2.58,4.1,4.1,0,0,1,2.92-1,4.23,4.23,0,0,1,2.92,1,3.19,3.19,0,0,1,1.12,2.5,3.55,3.55,0,0,1-1.12,2.69,4.59,4.59,0,0,1-5.84,0Zm-.33,4.17h6.5V168h-6.5Z"/><path class="cls-2" d="M198,122.72a8.52,8.52,0,0,0-5.09-8.21,7.81,7.81,0,0,0-9.15,2,21.33,21.33,0,0,0-3,5.2,31.85,31.85,0,0,1-10.24,12.87,43,43,0,0,0-7.57,7.56c-3.3,4.23-7.06,7.7-12,9.83a48.78,48.78,0,0,0-4.43,2.14,8.3,8.3,0,0,0,3,15.48,8.33,8.33,0,0,0,8.35-4.37c.69-1.28,1.22-2.65,1.94-3.9a53.7,53.7,0,0,1,4.49-7.41c3.26-4,8.22-3.94,11.67-.12a19.15,19.15,0,0,1,2.58,3.72c1.45,2.66,2.62,5.47,4.13,8.08A8,8,0,0,0,192.93,169a8.25,8.25,0,0,0,4.7-9.85c-.78-2.94-2.94-4.54-5.51-5.85a98.85,98.85,0,0,1-9.41-5.21,7.16,7.16,0,0,1-3.21-7.92c.61-2.86,2.67-4.7,5.09-6.05,2.91-1.64,6-3,8.91-4.59A8.12,8.12,0,0,0,198,122.72Zm-47.55,7.68a8.12,8.12,0,0,0,8.3-8.24,8.3,8.3,0,0,0-8.29-8.35,8.55,8.55,0,0,0-8.3,8.24A8.29,8.29,0,0,0,150.41,130.4Z"/><path class="cls-2" d="M198,122.72a8.12,8.12,0,0,1-4.46,6.76c-2.95,1.56-6,3-8.91,4.59-2.42,1.35-4.48,3.19-5.09,6.05a7.16,7.16,0,0,0,3.21,7.92,98.85,98.85,0,0,0,9.41,5.21c2.57,1.31,4.73,2.91,5.51,5.85a8.25,8.25,0,0,1-4.7,9.85,8,8,0,0,1-10.34-3.36c-1.51-2.61-2.68-5.42-4.13-8.08a19.15,19.15,0,0,0-2.58-3.72c-3.45-3.82-8.41-3.87-11.67.12a53.7,53.7,0,0,0-4.49,7.41c-.72,1.25-1.25,2.62-1.94,3.9a8.27,8.27,0,0,1-15.51-2.68,8.2,8.2,0,0,1,4.18-8.43,48.78,48.78,0,0,1,4.43-2.14c5-2.13,8.72-5.6,12-9.83a43,43,0,0,1,7.57-7.56,31.85,31.85,0,0,0,10.24-12.87,21.33,21.33,0,0,1,3-5.2,7.81,7.81,0,0,1,9.15-2A8.52,8.52,0,0,1,198,122.72Z"/><path class="cls-2" d="M150.41,130.4a8.29,8.29,0,0,1-8.29-8.35,8.55,8.55,0,0,1,8.3-8.24,8.3,8.3,0,0,1,8.29,8.35A8.12,8.12,0,0,1,150.41,130.4Z"/><path class="cls-1" d="M35.3,99.41,3.46,2H22.75L36.26,46.34C40.12,58.4,43,70,45.91,82h.49c2.41-11.57,6.27-23.64,10.13-35.22l14-44.38H89.33L55.56,99.9H35.3Z"/><path class="cls-1" d="M133.24,99.41l-1-7.72h-.48a26.64,26.64,0,0,1-20.74,9.65c-14,0-22.2-10.13-22.2-20.74,0-17.85,15.92-26.54,42-26.54v-1c0-4.83-1.93-12.06-14.48-12.06-6.75,0-14,1.93-18.81,5.3L94.16,34.76c5.31-3.37,14.47-6.27,25.57-6.27,22.68,0,29,14.48,29,29.43V83.49a161,161,0,0,0,1,16.89h-16.4Zm-2.41-34.25c-12.55-.48-24.61,2.41-24.61,13,0,6.76,4.34,10.14,10.13,10.14a15,15,0,0,0,14-9.65,11.84,11.84,0,0,0,.49-3.86Z"/><path class="cls-1" d="M167,51.65c0-9.65,0-16.4-.48-22.68H182l.48,13.51h.48c3.38-10.13,11.58-14.95,19.3-14.95a12,12,0,0,1,4.34.48V44.89a16.52,16.52,0,0,0-5.3-.48c-8.69,0-14.48,5.31-15.93,13.51a18.21,18.21,0,0,0-.48,5.31V99.9H167Z"/><path class="cls-1" d="M218.63,50.2c0-8.2,0-15-.48-20.74h15.44l1,10.61H235C237.93,34.76,245.65,28,257.23,28c12.06,0,25.09,8.2,25.09,30.39v42H265V60.82C265,50.68,261.09,43,251.44,43c-7.24,0-12.06,4.82-14,10.61a21.75,21.75,0,0,0-.48,5.79v41.49H219.12V50.2Z"/><path class="cls-1" d="M341.18,99.41l-1-7.72h-.48A26.64,26.64,0,0,1,319,101.34c-14,0-22.2-10.13-22.2-20.74,0-17.85,15.92-26.54,42-26.54v-1c0-4.83-1.93-12.06-14.48-12.06-6.75,0-14,1.93-18.81,5.3L302.1,34.76c5.31-3.37,14.47-6.27,25.57-6.27,22.68,0,28.95,14.48,28.95,29.43V83.49a161,161,0,0,0,1,16.89h-16.4Zm-2.41-34.25c-12.55-.48-24.61,2.41-24.61,13,0,6.76,4.34,10.14,10.13,10.14a15,15,0,0,0,14-9.65,11.84,11.84,0,0,0,.49-3.86Z"/><path class="cls-1" d="M106.42,145.6a10.79,10.79,0,0,1,4.17,4.2,13.83,13.83,0,0,1,0,12.57,10.7,10.7,0,0,1-4.17,4.19,11.86,11.86,0,0,1-5.9,1.49c-3.19,0-5.63-1-7.3-3v2.68H86.78V135.65h6.74v11.27a9,9,0,0,1,7-2.81A11.86,11.86,0,0,1,106.42,145.6Zm-2.81,15.17a7.42,7.42,0,0,0,0-9.38,6,6,0,0,0-8.51,0,7.46,7.46,0,0,0,0,9.38,6,6,0,0,0,8.51,0Z"/><path class="cls-1" d="M139,144.46l-10.5,24.67a12.07,12.07,0,0,1-4,5.66,9.63,9.63,0,0,1-5.68,1.64,11.65,11.65,0,0,1-3.59-.56,7.88,7.88,0,0,1-2.89-1.55l2.46-4.8a5.9,5.9,0,0,0,1.79,1.08,5.6,5.6,0,0,0,2,.39,3.56,3.56,0,0,0,2.25-.67,5.79,5.79,0,0,0,1.55-2.22l.09-.22-10.07-23.42h7L126,160.23l6.57-15.77Z"/></svg>