<?xml version="1.0" encoding="utf-8"?>
<!-- Generator: Adobe Illustrator 25.1.0, SVG Export Plug-In . SVG Version: 6.00 Build 0)  -->
<svg version="1.1" id="Layer_1" xmlns="http://www.w3.org/2000/svg" xmlns:xlink="http://www.w3.org/1999/xlink" x="0px" y="0px"
	 viewBox="0 0 182.8 179.4" style="enable-background:new 0 0 182.8 179.4;" xml:space="preserve">
<style type="text/css">
	.st0{fill:#2A308E;}
</style>
<path class="st0" d="M175.5,32c0.6-10.6-5.8-20.6-15.5-24.8c-9.7-4.2-20.9-1.8-27.6,6.1c-3.6,4.8-7,10-9.1,15.8
	C116.7,44.4,105.8,58,92.5,68c-8.5,6.7-16.4,14.2-23,23c-10,12.7-21.5,23.3-36.4,29.7c-4.5,1.8-9.1,4.2-13.3,6.4
	c-12.1,6.7-16.4,22.1-9.7,34.2c3.9,7,10.9,11.8,18.8,12.7c10.3,1.2,20.3-3.9,25.5-13.3c2.1-3.9,3.6-7.9,5.8-11.8
	c3.9-7.9,8.5-15.5,13.6-22.4c10-12.1,24.8-11.8,35.5-0.3c3,3.3,5.8,7.3,7.9,11.2c4.2,8.2,7.9,16.7,12.4,24.5
	c6.1,10.9,19.7,15.5,30.9,10.3c11.5-4.8,17.6-17.9,14.2-30c-2.4-8.8-8.8-13.6-16.7-17.9c-9.7-4.8-19.4-10-28.5-15.8
	c-8.2-4.8-12.1-14.8-9.7-23.9c1.8-8.8,8.2-14.2,15.5-18.5c8.8-4.8,18.2-9.1,27-13.9C169.7,48.6,174.9,40.7,175.5,32z M31.2,55.3
	c13.6,0.3,24.8-10.6,25.1-23.9c0-0.3,0-0.6,0-0.9c0-13.9-11.2-25.1-24.8-25.1l0,0C17.9,5.6,7,16.5,6.4,30.1
	C6.1,43.8,17.3,55.3,31.2,55.3L31.2,55.3L31.2,55.3z"/>
</svg>
