<?xml version="1.0" encoding="utf-8"?>
<!-- Generator: Adobe Illustrator 25.1.0, SVG Export Plug-In . SVG Version: 6.00 Build 0)  -->
<svg version="1.1" id="Layer_1" xmlns="http://www.w3.org/2000/svg" xmlns:xlink="http://www.w3.org/1999/xlink" x="0px" y="0px"
	 viewBox="0 0 365.6 179.4" style="enable-background:new 0 0 365.6 179.4;" xml:space="preserve">
<style type="text/css">
	.st0{fill:#7D7D7D;}
	.st1{fill:#2A308E;}
</style>
<path class="st0" d="M226.5,158.6h-17c0.3,1.3,1.1,2.5,2.2,3.3c1.3,0.8,2.7,1.3,4.2,1.2c1.1,0,2.1-0.2,3.1-0.5
	c0.9-0.4,1.8-0.9,2.5-1.6l3.5,3.8c-2.1,2.4-5.2,3.6-9.3,3.6c-2.3,0-4.6-0.5-6.7-1.5c-1.9-0.9-3.4-2.3-4.5-4.1s-1.6-3.9-1.6-6
	s0.5-4.1,1.6-5.9c1-1.7,2.5-3.2,4.3-4.1c3.8-2,8.3-2,12.1-0.1c1.8,0.9,3.2,2.3,4.2,4.1c1,1.9,1.6,4,1.5,6.1
	C226.6,157,226.6,157.6,226.5,158.6z M211.3,151.4c-1,0.9-1.7,2.1-1.8,3.4h11c-0.2-1.3-0.8-2.5-1.8-3.4s-2.3-1.3-3.7-1.3
	C213.6,150.1,212.3,150.6,211.3,151.4z"/>
<path class="st0" d="M251.4,147.8c1.7,1.7,2.6,4.1,2.6,7.4V168h-6.5v-11.8c0.1-1.4-0.3-2.9-1.2-4c-0.9-0.9-2.1-1.4-3.4-1.3
	c-1.4,0-2.9,0.5-3.9,1.5c-1.1,1.3-1.6,2.9-1.5,4.5V168H231v-22.4h6.2v2.6c0.9-1,2-1.7,3.2-2.2c1.3-0.5,2.8-0.8,4.2-0.8
	C247.1,145.1,249.5,146,251.4,147.8z"/>
<path class="st0" d="M281.6,145.6l-10.1,23.8c-0.7,2.2-2,4-3.8,5.5c-1.6,1.1-3.5,1.6-5.5,1.6c-1.2,0-2.3-0.2-3.5-0.5
	c-1-0.3-2-0.8-2.8-1.5l2.4-4.6c0.5,0.5,1.1,0.8,1.7,1.1c0.6,0.2,1.3,0.4,1.9,0.4c0.8,0,1.5-0.2,2.2-0.6c0.7-0.6,1.2-1.3,1.5-2.1
	l0.1-0.2l-9.8-22.6h6.7l6.3,15.2l6.3-15.2h6.4V145.6z"/>
<path class="st0" d="M300.6,147.7c1.9,1.7,2.8,4.1,2.8,7.5V168h-6.1v-2.8c-1.2,2.1-3.5,3.1-6.8,3.1c-1.5,0-3.1-0.3-4.5-0.9
	c-1.2-0.5-2.2-1.3-2.9-2.4c-0.7-1-1-2.3-1-3.5c-0.1-1.9,0.8-3.8,2.4-4.9c1.6-1.2,4-1.8,7.3-1.8h5.2c0.1-1.2-0.4-2.4-1.3-3.3
	c-1.1-0.8-2.5-1.3-3.9-1.1c-1.2,0-2.4,0.2-3.5,0.6c-1.1,0.3-2.1,0.8-2.9,1.5l-2.3-4.5c1.3-0.9,2.8-1.6,4.4-2
	c1.7-0.5,3.5-0.7,5.3-0.7C296.1,145.2,298.7,146.1,300.6,147.7z M295.1,163.2c0.9-0.5,1.5-1.3,1.8-2.3v-2.3h-4.5c-2.7,0-4,0.9-4,2.6
	c0,0.8,0.4,1.5,1,2c0.8,0.5,1.7,0.8,2.7,0.7C293.2,164,294.2,163.7,295.1,163.2z"/>
<path class="st0" d="M308.9,167.2c-0.8-0.8-1.2-1.8-1.2-2.9c0-1.1,0.4-2.1,1.2-2.9c0.8-0.7,1.8-1.1,2.9-1.1s2.1,0.4,2.9,1.1
	c0.8,0.8,1.2,1.8,1.2,2.9c0,1.1-0.4,2.1-1.2,2.9C313,168.7,310.5,168.7,308.9,167.2z"/>
<path class="st0" d="M337.7,147.7c1.9,1.7,2.8,4.1,2.8,7.5V168h-6.1v-2.8c-1.2,2.1-3.5,3.1-6.8,3.1c-1.5,0-3.1-0.3-4.5-0.9
	c-1.2-0.5-2.2-1.4-2.9-2.4c-0.7-1-1-2.3-1-3.5c-0.1-1.9,0.8-3.8,2.4-4.9c1.6-1.2,4-1.8,7.3-1.8h5.2c0.1-1.2-0.4-2.4-1.3-3.3
	c-1.1-0.8-2.5-1.3-3.9-1.1c-1.2,0-2.4,0.2-3.5,0.6c-1.1,0.3-2.1,0.8-2.9,1.5L320,148c1.3-0.9,2.8-1.6,4.4-2c1.7-0.5,3.5-0.7,5.3-0.7
	C333.1,145.2,335.8,146.1,337.7,147.7z M332.1,163.2c0.9-0.5,1.5-1.3,1.8-2.3v-2.3h-4.5c-2.7,0-4,0.9-4,2.6c0,0.8,0.4,1.5,1,2
	c0.8,0.5,1.7,0.8,2.7,0.7C330.2,164,331.2,163.7,332.1,163.2L332.1,163.2z"/>
<path class="st0" d="M346.7,141.4c-0.7-0.7-1.1-1.6-1.1-2.6s0.4-1.9,1.1-2.6c0.8-0.7,1.9-1.1,2.9-1c1.1,0,2.1,0.3,2.9,1
	c0.7,0.6,1.1,1.5,1.1,2.5s-0.4,2-1.1,2.7C350.8,142.8,348.4,142.8,346.7,141.4L346.7,141.4z M346.3,145.6h6.5V168h-6.5V145.6z"/>
<path class="st1" d="M198,122.7c0.2-3.5-1.9-6.8-5.1-8.2c-3.2-1.4-6.9-0.6-9.1,2c-1.2,1.6-2.3,3.3-3,5.2c-2.2,5.1-5.8,9.6-10.2,12.9
	c-2.8,2.2-5.4,4.7-7.6,7.6c-3.3,4.2-7.1,7.7-12,9.8c-1.5,0.6-3,1.4-4.4,2.1c-4,2.2-5.4,7.3-3.2,11.3c1.3,2.3,3.6,3.9,6.2,4.2
	c3.4,0.4,6.7-1.3,8.4-4.4c0.7-1.3,1.2-2.6,1.9-3.9c1.3-2.6,2.8-5.1,4.5-7.4c3.3-4,8.2-3.9,11.7-0.1c1,1.1,1.9,2.4,2.6,3.7
	c1.4,2.7,2.6,5.5,4.1,8.1c2,3.6,6.5,5.1,10.2,3.4c3.8-1.6,5.8-5.9,4.7-9.9c-0.8-2.9-2.9-4.5-5.5-5.9c-3.2-1.6-6.4-3.3-9.4-5.2
	c-2.7-1.6-4-4.9-3.2-7.9c0.6-2.9,2.7-4.7,5.1-6.1c2.9-1.6,6-3,8.9-4.6C196.1,128.2,197.8,125.6,198,122.7z M150.4,130.4
	c4.5,0.1,8.2-3.5,8.3-7.9c0-0.1,0-0.2,0-0.3c0-4.6-3.7-8.3-8.2-8.3l0,0c-4.5,0.1-8.1,3.7-8.3,8.2
	C142.1,126.6,145.8,130.4,150.4,130.4L150.4,130.4L150.4,130.4z"/>
<path class="st0" d="M35.3,99.4L3.5,2h19.3l13.5,44.3C40.1,58.4,43,70,45.9,82h0.5c2.4-11.6,6.3-23.6,10.1-35.2l14-44.4h18.8
	L55.6,99.9H35.3V99.4z"/>
<path class="st0" d="M133.2,99.4l-1-7.7h-0.5c-5.1,6.2-12.7,9.7-20.7,9.7c-14,0-22.2-10.1-22.2-20.7c0-17.8,15.9-26.5,42-26.5v-1
	c0-4.8-1.9-12.1-14.5-12.1c-6.8,0-14,1.9-18.8,5.3l-3.4-11.5c5.3-3.4,14.5-6.3,25.6-6.3c22.7,0,29,14.5,29,29.4v25.6
	c0,5.6,0.4,11.3,1,16.9h-16.4L133.2,99.4z M130.8,65.2c-12.6-0.5-24.6,2.4-24.6,13c0,6.8,4.3,10.1,10.1,10.1c6.2,0,11.8-3.8,14-9.7
	c0.4-1.3,0.5-2.6,0.5-3.9V65.2z"/>
<path class="st0" d="M167,51.7c0-9.7,0-16.4-0.5-22.7H182l0.5,13.5h0.5c3.4-10.1,11.6-15,19.3-15c1.5-0.1,2.9,0.1,4.3,0.5v16.9
	c-1.7-0.4-3.5-0.6-5.3-0.5c-8.7,0-14.5,5.3-15.9,13.5c-0.4,1.7-0.6,3.5-0.5,5.3v36.7H167V51.7z"/>
<path class="st0" d="M218.6,50.2c0-8.2,0-15-0.5-20.7h15.4l1,10.6h0.4c2.9-5.3,10.6-12.1,22.2-12.1c12.1,0,25.1,8.2,25.1,30.4v42
	H265V60.8c0-10.1-3.9-17.8-13.6-17.8c-7.2,0-12.1,4.8-14,10.6c-0.4,1.9-0.6,3.8-0.5,5.8v41.5h-17.8V50.2H218.6z"/>
<path class="st0" d="M341.2,99.4l-1-7.7h-0.5c-5.1,6.2-12.7,9.7-20.7,9.6c-14,0-22.2-10.1-22.2-20.7c0-17.8,15.9-26.5,42-26.5v-1
	c0-4.8-1.9-12.1-14.5-12.1c-6.8,0-14,1.9-18.8,5.3l-3.4-11.5c5.3-3.4,14.5-6.3,25.6-6.3c22.7,0,29,14.5,29,29.4v25.6
	c0,5.6,0.4,11.3,1,16.9h-16.4L341.2,99.4z M338.8,65.2c-12.5-0.5-24.6,2.4-24.6,13c0,6.8,4.3,10.1,10.1,10.1c6.2,0,11.8-3.8,14-9.7
	c0.4-1.3,0.5-2.6,0.5-3.9V65.2z"/>
<path class="st0" d="M106.4,145.6c1.8,1,3.2,2.4,4.2,4.2c2,3.9,2,8.6,0,12.6c-1,1.8-2.4,3.2-4.2,4.2c-1.8,1-3.8,1.5-5.9,1.5
	c-3.2,0-5.6-1-7.3-3v2.7h-6.4v-32.1h6.7V147c1.8-1.9,4.4-2.9,7-2.8C102.6,144.1,104.6,144.6,106.4,145.6z M103.6,160.8
	c2.2-2.7,2.2-6.6,0-9.4c-2.3-2.3-6.1-2.4-8.5,0l0,0c-2.2,2.7-2.2,6.6,0,9.4C97.4,163.1,101.2,163.1,103.6,160.8L103.6,160.8z"/>
<path class="st0" d="M139,144.5l-10.5,24.7c-0.8,2.2-2.1,4.2-4,5.7c-1.7,1.1-3.7,1.7-5.7,1.6c-1.2,0-2.4-0.2-3.6-0.6
	c-1.1-0.3-2-0.8-2.9-1.6l2.5-4.8c0.5,0.5,1.1,0.8,1.8,1.1c0.6,0.3,1.3,0.4,2,0.4c0.8,0,1.6-0.2,2.2-0.7c0.7-0.6,1.2-1.4,1.6-2.2
	l0.1-0.2l-10.1-23.4h7l6.6,15.8l6.6-15.8H139z"/>
</svg>
