<svg baseProfile="full" height="100%" version="1.1" viewBox="25.0,5.0,475.0,100.0" width="100%" xmlns="http://www.w3.org/2000/svg" xmlns:ev="http://www.w3.org/2001/xml-events" xmlns:xlink="http://www.w3.org/1999/xlink"><defs /><g><line stroke="lightgrey" stroke-dasharray="2" x1="50.0" x2="49.0" y1="15.0" y2="15.0" /><line stroke="lightgrey" stroke-dasharray="2" x1="50.0" x2="49.0" y1="35.0" y2="35.0" /><line stroke="lightgrey" stroke-dasharray="2" x1="50.0" x2="49.0" y1="55.0" y2="55.0" /><line stroke="lightgrey" stroke-dasharray="2" x1="50.0" x2="49.0" y1="75.0" y2="75.0" /><line stroke="lightgrey" stroke-dasharray="2" x1="50.0" x2="49.0" y1="95.0" y2="95.0" /></g><g><line stroke="#c65353" stroke-width="2.0" x1="35.0" x2="35.0" y1="15.0" y2="35.0" /><line stroke="#c6c653" stroke-width="2.0" x1="35.0" x2="35.0" y1="35.0" y2="55.0" /><line stroke="#53c653" stroke-width="2.0" x1="35.0" x2="35.0" y1="55.0" y2="75.0" /><line stroke="#53c6c6" stroke-width="2.0" x1="35.0" x2="35.0" y1="75.0" y2="95.0" /></g><g /><g /><g><circle cx="35.0" cy="15.0" fill="#c65353" r="6.0" stroke="white" stroke-width="2.0" /><text dominant-baseline="middle" font-family="sans-serif" x="55.0" y="15.0">Position: 1 | Claim: 0xfae2..af66</text><circle cx="35.0" cy="35.0" fill="#c6c653" r="6.0" stroke="white" stroke-width="2.0" /><text dominant-baseline="middle" font-family="sans-serif" x="55.0" y="35.0">Position: 10 | Claim: 0xb7c4..aad6</text><circle cx="35.0" cy="55.0" fill="#53c653" r="6.0" stroke="white" stroke-width="2.0" /><text dominant-baseline="middle" font-family="sans-serif" x="55.0" y="55.0">Position: 100 | Claim: 0x0d2a..4e0c</text><circle cx="35.0" cy="75.0" fill="#53c6c6" r="6.0" stroke="white" stroke-width="2.0" /><text dominant-baseline="middle" font-family="sans-serif" x="55.0" y="75.0">Position: 1010 | Claim: 0x458b..432d</text><circle cx="35.0" cy="95.0" fill="#5353c6" r="6.0" stroke="white" stroke-width="2.0" /><text dominant-baseline="middle" font-family="sans-serif" x="55.0" y="95.0">Position: 10100 | Claim: 0x5210..c0d6</text></g></svg>