<svg width="12" height="17" viewBox="0 0 12 17" fill="none" xmlns="http://www.w3.org/2000/svg">
<path d="M6 12.75C6.82875 12.75 7.5 12.0787 7.5 11.25C7.5 10.4213 6.82875 9.75 6 9.75C5.17125 9.75 4.5 10.4213 4.5 11.25C4.5 12.0787 5.17125 12.75 6 12.75ZM10.5 6H9.75V4.5C9.75 2.43 8.07 0.75 6 0.75C3.93 0.75 2.25 2.43 2.25 4.5H3.675C3.675 3.2175 4.7175 2.175 6 2.175C7.2825 2.175 8.325 3.2175 8.325 4.5V6H1.5C0.67125 6 0 6.67125 0 7.5V15C0 15.8287 0.67125 16.5 1.5 16.5H10.5C11.3287 16.5 12 15.8287 12 15V7.5C12 6.67125 11.3287 6 10.5 6ZM10.5 15H1.5V7.5H10.5V15Z" fill="#101010"/>
</svg>
