<svg id="Layer_1" data-name="Layer 1" xmlns="http://www.w3.org/2000/svg" viewBox="0 0 200 200"><defs><style>.cls-1{fill:#58595b;}.cls-2{fill:#ca3752;}</style></defs><path class="cls-1" d="M16.44,189.31V157.36h11.8a14.21,14.21,0,0,1,4.91.78,8.52,8.52,0,0,1,3.41,2.19,9.15,9.15,0,0,1,1.95,3.26,12.49,12.49,0,0,1,.65,4.12,10.22,10.22,0,0,1-1.8,6.21,9.73,9.73,0,0,1-5.3,3.46l8.28,11.93H33.82l-7.65-11.38H21.89v11.38ZM21.89,173h5.18a7,7,0,0,0,4.81-1.47,5.64,5.64,0,0,0,.06-7.91,6.5,6.5,0,0,0-4.52-1.43H21.89Z"/><path class="cls-1" d="M53,189.66a8.32,8.32,0,0,1-6.06-2.13q-2.18-2.13-2.18-6.81V167.36h5v12c0,2.12.34,3.6,1,4.45a4.07,4.07,0,0,0,3.35,1.26,5.07,5.07,0,0,0,4-1.9,7.81,7.81,0,0,0,1.65-5.29V167.36h5v21.95h-5v-2.75l-.09,0A8.34,8.34,0,0,1,53,189.66Z"/><path class="cls-1" d="M71.19,189.31V167.36h5v3h.08a9.11,9.11,0,0,1,3.26-2.47,9.7,9.7,0,0,1,4.08-.87,7.69,7.69,0,0,1,5.91,2.28q2.13,2.3,2.13,7.08v12.92h-5v-11.6c0-2.23-.4-3.81-1.19-4.74a4.46,4.46,0,0,0-3.58-1.39,5.18,5.18,0,0,0-4.14,1.76,7.28,7.28,0,0,0-1.52,4.94v11Z"/><path class="cls-1" d="M97.87,189.31V167.36h5v3H103a9.07,9.07,0,0,1,3.25-2.47,9.75,9.75,0,0,1,4.09-.87,7.69,7.69,0,0,1,5.91,2.28q2.13,2.3,2.13,7.08v12.92h-5v-11.6q0-3.35-1.2-4.74a4.45,4.45,0,0,0-3.57-1.39,5.18,5.18,0,0,0-4.14,1.76,7.29,7.29,0,0,0-1.53,4.94v11Z"/><path class="cls-1" d="M129.78,163.12a3.4,3.4,0,0,1-4.8,0,3.37,3.37,0,0,1,4.8-4.73,3.3,3.3,0,0,1,0,4.73Zm-4.93,26.19V167.36h5v21.95Z"/><path class="cls-1" d="M136.78,189.31V167.36h5v3h.09a9.16,9.16,0,0,1,3.25-2.47,9.78,9.78,0,0,1,4.09-.87,7.69,7.69,0,0,1,5.91,2.28q2.13,2.3,2.13,7.08v12.92h-5v-11.6q0-3.35-1.2-4.74a4.45,4.45,0,0,0-3.57-1.39,5.18,5.18,0,0,0-4.14,1.76,7.29,7.29,0,0,0-1.53,4.94v11Z"/><path class="cls-1" d="M173.26,198.54a17,17,0,0,1-9-2.31l1.23-4.39a24.25,24.25,0,0,0,3.73,1.63A12,12,0,0,0,173,194a7,7,0,0,0,4.83-1.55,5,5,0,0,0,1.7-3.86V186.3h-.09a9.07,9.07,0,0,1-6.68,2.66,10.47,10.47,0,0,1-7.68-3,10.61,10.61,0,0,1-3-7.85,11.09,11.09,0,0,1,2.95-7.95,9.85,9.85,0,0,1,7.49-3.12,9.55,9.55,0,0,1,6.83,2.66h.11v-2.33h5v19.71a16,16,0,0,1-.61,4.61,10.26,10.26,0,0,1-1.91,3.61,8.29,8.29,0,0,1-3.5,2.4A14.24,14.24,0,0,1,173.26,198.54Zm-4.32-15.95a6.18,6.18,0,0,0,4.49,1.73,5.92,5.92,0,0,0,4.47-1.81,6.38,6.38,0,0,0,1.75-4.63,6.34,6.34,0,0,0-10.74-4.49,6.26,6.26,0,0,0-1.74,4.58A6.19,6.19,0,0,0,168.94,182.59Z"/><path class="cls-2" d="M100,60.66q13.45,0,20.51,11.29t7.06,30.45q0,19.18-7.06,30.49T100,144.19q-13.41,0-20.5-11.3T72.4,102.4q0-19.16,7.08-30.45T100,60.66Zm-15.4,58.58,27.22-42.7q-2.58-4.71-5.6-6.36a12.85,12.85,0,0,0-6.26-1.65q-8.46,0-12.87,9.41t-4.41,23.89q0,3.3.2,7.11A63.43,63.43,0,0,0,84.58,119.24Zm30.63-33.3-27,43a16.31,16.31,0,0,0,5,5.56,11.36,11.36,0,0,0,6.33,1.85q9.64,0,13.69-10.79a67.51,67.51,0,0,0,4.06-24A58.32,58.32,0,0,0,115.21,85.94Z"/><path class="cls-1" d="M48.39,152H16.44V131.16H21.3v15.42h9.53v-13h4.92v13H48.39Z"/><path class="cls-1" d="M48.39,126.92H26.44v-5h3.27v-.09a9.42,9.42,0,0,1-2.66-3.06,7.74,7.74,0,0,1-.94-3.73v-.64h5.62c-.06.79-.08,1.3-.08,1.54a5.56,5.56,0,0,0,1.78,4.38,6.6,6.6,0,0,0,4.57,1.6H48.39Z"/><path class="cls-1" d="M48.74,100.64a11.24,11.24,0,0,1-3.2,8.31,10.93,10.93,0,0,1-8.09,3.2,11.73,11.73,0,0,1-5.8-1.42,10.21,10.21,0,0,1-4.06-4,12.1,12.1,0,0,1-1.48-6,11.41,11.41,0,0,1,3.15-8.31,10.94,10.94,0,0,1,8.19-3.23,10.89,10.89,0,0,1,8.14,3.23A11.41,11.41,0,0,1,48.74,100.64Zm-4.59,0a6.11,6.11,0,0,0-1.89-4.55,6.62,6.62,0,0,0-4.81-1.85,6.74,6.74,0,0,0-4.89,1.83,6.05,6.05,0,0,0-1.9,4.57,5.94,5.94,0,0,0,1.93,4.6A6.93,6.93,0,0,0,37.45,107a6.73,6.73,0,0,0,4.76-1.79A6,6,0,0,0,44.15,100.64Z"/><path class="cls-1" d="M48.39,83.85H26.44v-5h3v-.09A9.07,9.07,0,0,1,27,75.48a9.78,9.78,0,0,1-.87-4.09,7.69,7.69,0,0,1,2.28-5.91q2.3-2.13,7.08-2.13H48.39v5H36.79q-3.34,0-4.74,1.2a4.45,4.45,0,0,0-1.39,3.57,5.21,5.21,0,0,0,1.75,4.14,7.31,7.31,0,0,0,5,1.53h11Z"/><path class="cls-1" d="M48.74,50.67a5.68,5.68,0,0,1-1.83,4.51,8.07,8.07,0,0,1-5.44,1.6H30.7v2.7H26.44v-2.7h-7.3l-.55-5h7.85V45.31H30.7v6.44H41a4.11,4.11,0,0,0,2.35-.51A1.85,1.85,0,0,0,44,49.62a6.79,6.79,0,0,0-1-3.23l4.37-1.3a10.11,10.11,0,0,1,1,2.37A12.75,12.75,0,0,1,48.74,50.67Z"/></svg>