<svg id="Layer_1" data-name="Layer 1" xmlns="http://www.w3.org/2000/svg" viewBox="0 0 200 200"><defs><style>.cls-1{fill:#58595b;}.cls-2{fill:#009444;}</style></defs><path class="cls-1" d="M26.14,189.31V157.36H37.72a14.27,14.27,0,0,1,4.92.78,8.49,8.49,0,0,1,3.42,2.19A9.4,9.4,0,0,1,48,163.59a12.49,12.49,0,0,1,.65,4.12c0,3.35-1,5.9-3.11,7.62s-4.89,2.6-8.45,2.6H31.59v11.38ZM31.59,173h4.94a7,7,0,0,0,4.86-1.47,5.7,5.7,0,0,0,0-7.91A6.39,6.39,0,0,0,37,162.22H31.59Z"/><path class="cls-1" d="M53.82,189.31V167.36h5v3.27h.08A9.53,9.53,0,0,1,62,168a7.77,7.77,0,0,1,3.73-.94h.64v5.62c-.79-.05-1.3-.08-1.54-.08a5.56,5.56,0,0,0-4.38,1.78,6.59,6.59,0,0,0-1.59,4.57v10.39Z"/><path class="cls-1" d="M75.79,163.12a3.31,3.31,0,0,1-2.41,1,3.35,3.35,0,1,1,0-6.7,3.3,3.3,0,0,1,2.41,1,3.3,3.3,0,0,1,0,4.73Zm-4.94,26.19V167.36h5v21.95Z"/><path class="cls-1" d="M89.07,189.31l-8.68-21.95h5.4L91.51,183h0l5.71-15.64h5.37l-8.75,21.95Z"/><path class="cls-1" d="M114.84,189.66a10.14,10.14,0,0,1-7.61-3.11,11.22,11.22,0,0,1-3-8.14,11.47,11.47,0,0,1,3-8.16A9.9,9.9,0,0,1,114.8,167a8.22,8.22,0,0,1,6.81,3l.09,0v-2.64h5v21.95h-4.81v-2.88l-.09,0A8.23,8.23,0,0,1,114.84,189.66Zm.82-4.59a6,6,0,0,0,4.44-1.86,6.52,6.52,0,0,0,1.82-4.75,7.1,7.1,0,0,0-1.78-4.92,5.79,5.79,0,0,0-4.48-2,5.93,5.93,0,0,0-4.5,1.88,7,7,0,0,0-1.79,5,6.63,6.63,0,0,0,1.75,4.76A6,6,0,0,0,115.66,185.07Z"/><path class="cls-1" d="M143,189.66a11.52,11.52,0,0,1-8-19.48,11.14,11.14,0,0,1,8.19-3.15,12.86,12.86,0,0,1,5.14,1.06,10.56,10.56,0,0,1,4.09,3l-3.43,3a6.83,6.83,0,0,0-5.51-2.52,6.27,6.27,0,0,0-4.73,1.87,7.48,7.48,0,0,0,0,9.76,6.27,6.27,0,0,0,4.71,1.86,7.3,7.3,0,0,0,3.21-.69,6.14,6.14,0,0,0,2.3-1.86l3.48,3Q149.27,189.67,143,189.66Z"/><path class="cls-1" d="M159.6,198.23l4-10.13-9-20.74H160l6,14.7h.09l5.63-14.7h5.18l-12.06,30.87Z"/><path class="cls-2" d="M97.64,133.93V73.15a73.92,73.92,0,0,1-8.28,5.76,64.43,64.43,0,0,1-11,4.85V75.23A66.76,66.76,0,0,0,97.64,63h9.44v70.94h19v7.87H78.34v-7.87Z"/></svg>