<svg id="Layer_1" data-name="Layer 1" xmlns="http://www.w3.org/2000/svg" viewBox="0 0 200 200"><defs><style>.cls-1{fill:#58595b;}.cls-2{fill:#ca3752;}</style></defs><path class="cls-1" d="M54.8,189.31V157.36h5.45l10.53,19.12h.08l10.55-19.12h5.43v31.95H81.41V167.93H81.3l-8.72,15.21H69L60.3,167.93h0v21.38Z"/><path class="cls-1" d="M94.66,189.31V157.36h20.13v4.86H100.11v8.83H112v4.86H100.11v8.54h15.62v4.86Z"/><path class="cls-1" d="M131.33,189.31,119.4,157.36h5.87l8.5,24.13h0l8.46-24.13h5.8l-11.93,31.95Z"/><path class="cls-2" d="M105.09,60.66q13.45,0,20.52,11.29t7,30.45q0,19.18-7,30.49t-20.52,11.3q-13.41,0-20.49-11.3T77.52,102.4q0-19.16,7.08-30.45T105.09,60.66ZM89.7,119.24l27.22-42.7q-2.58-4.71-5.6-6.36a12.88,12.88,0,0,0-6.26-1.65q-8.46,0-12.88,9.41t-4.41,23.89q0,3.3.21,7.11A62.34,62.34,0,0,0,89.7,119.24Zm30.63-33.3-27,43a16.41,16.41,0,0,0,5,5.56,11.39,11.39,0,0,0,6.34,1.85q9.63,0,13.69-10.79a67.73,67.73,0,0,0,4.06-24A58.72,58.72,0,0,0,120.33,85.94Z"/></svg>