<svg width="32" height="32" viewBox="0 0 32 32" fill="none" xmlns="http://www.w3.org/2000/svg">
<mask id="path-1-inside-2" fill="white">
<path fill-rule="evenodd" clip-rule="evenodd" d="M11.9999 19.0004C15.8659 19.0004 18.9999 15.8664 18.9999 12.0004C18.9999 10.6107 18.5949 9.31553 17.8966 8.22656C21.3993 9.07819 23.9999 12.2356 23.9999 16.0004C23.9999 20.4187 20.4182 24.0004 15.9999 24.0004C12.2351 24.0004 9.07769 21.3998 8.22607 17.897C9.31505 18.5954 10.6102 19.0004 11.9999 19.0004Z"/>
</mask>
<path d="M17.8966 8.22656L18.2509 6.76902L14.6125 5.88442L16.6339 9.03633L17.8966 8.22656ZM8.22607 17.897L9.03585 16.6344L5.88395 14.6129L6.76853 18.2514L8.22607 17.897ZM17.4999 12.0004C17.4999 15.038 15.0375 17.5004 11.9999 17.5004V20.5004C16.6943 20.5004 20.4999 16.6948 20.4999 12.0004H17.4999ZM16.6339 9.03633C17.182 9.89088 17.4999 10.9062 17.4999 12.0004H20.4999C20.4999 10.3151 20.0079 8.74018 19.1592 7.4168L16.6339 9.03633ZM17.5422 9.6841C20.3883 10.3761 22.4999 12.9435 22.4999 16.0004H25.4999C25.4999 11.5277 22.4104 7.78031 18.2509 6.76902L17.5422 9.6841ZM22.4999 16.0004C22.4999 19.5902 19.5898 22.5004 15.9999 22.5004V25.5004C21.2466 25.5004 25.4999 21.2471 25.4999 16.0004H22.4999ZM15.9999 22.5004C12.943 22.5004 10.3756 20.3887 9.68362 17.5426L6.76853 18.2514C7.77981 22.4109 11.5272 25.5004 15.9999 25.5004V22.5004ZM11.9999 17.5004C10.9057 17.5004 9.8904 17.1824 9.03585 16.6344L7.4163 19.1596C8.73969 20.0084 10.3146 20.5004 11.9999 20.5004V17.5004Z" fill="white" mask="url(#path-1-inside-2)"/>
</svg>
