<svg width="72" height="68" viewBox="0 0 72 68" fill="none" xmlns="http://www.w3.org/2000/svg">
<path d="M68.1769 1.07422L40.2881 21.7876L45.4454 9.567L68.1769 1.07422Z" fill="#E2761B"/>
<path fill-rule="evenodd" clip-rule="evenodd" d="M68.3 1.0107C68.3334 1.07202 68.3165 1.14855 68.2605 1.19017L40.3717 21.9036C40.3209 21.9413 40.2513 21.9403 40.2016 21.9013C40.1518 21.8623 40.1344 21.7948 40.159 21.7366L45.3163 9.51596C45.3313 9.48044 45.3603 9.45266 45.3964 9.43917L68.1279 0.946384C68.1933 0.921952 68.2667 0.949375 68.3 1.0107ZM45.5511 9.68059L40.617 21.3723L67.2986 1.55541L45.5511 9.68059Z" fill="#E2761B"/>
<path d="M3.79346 1.07422L31.4581 21.9838L26.553 9.567L3.79346 1.07422Z" fill="#E4761B"/>
<path fill-rule="evenodd" clip-rule="evenodd" d="M3.67112 1.01021C3.70461 0.949222 3.77777 0.92204 3.84296 0.946364L26.6025 9.43915C26.6397 9.45303 26.6693 9.48203 26.6838 9.51896L31.5889 21.9358C31.612 21.9942 31.5934 22.0609 31.5434 22.0989C31.4934 22.1369 31.4242 22.137 31.3741 22.0991L3.70946 1.18947C3.65396 1.14752 3.63763 1.07119 3.67112 1.01021ZM4.64392 1.54441L31.1448 21.5745L26.4461 9.67995L4.64392 1.54441Z" fill="#E4761B"/>
<path d="M58.142 49.0859L50.7144 60.4657L66.6068 64.8382L71.1755 49.3382L58.142 49.0859Z" fill="#E4761B"/>
<path fill-rule="evenodd" clip-rule="evenodd" d="M58.0247 49.0128C58.0511 48.9723 58.0964 48.9483 58.1447 48.9492L71.1782 49.2015C71.2219 49.2024 71.2627 49.2235 71.2885 49.2588C71.3144 49.294 71.3223 49.3393 71.3099 49.3812L66.7412 64.8813C66.7196 64.9546 66.6433 64.9971 66.5696 64.9768L50.6772 60.6043C50.634 60.5924 50.5992 60.5606 50.5833 60.5188C50.5675 60.4769 50.5725 60.43 50.597 60.3925L58.0247 49.0128ZM58.217 49.231L50.9367 60.385L66.5113 64.67L70.9891 49.4782L58.217 49.231Z" fill="#E4761B"/>
<path d="M0.850586 49.3382L5.39128 64.8382L21.2837 60.4657L13.856 49.0859L0.850586 49.3382Z" fill="#E4761B"/>
<path fill-rule="evenodd" clip-rule="evenodd" d="M13.8533 48.9492C13.9016 48.9483 13.947 48.9723 13.9734 49.0128L21.4011 60.3925C21.4255 60.43 21.4306 60.4769 21.4148 60.5188C21.3989 60.5606 21.3641 60.5924 21.3209 60.6043L5.42847 64.9768C5.35471 64.9971 5.2783 64.9545 5.2568 64.8811L0.716103 49.381C0.703827 49.3391 0.711783 49.2939 0.73762 49.2587C0.763457 49.2235 0.804223 49.2024 0.847877 49.2015L13.8533 48.9492ZM1.03664 49.4782L5.48703 64.67L21.0614 60.385L13.7811 49.231L1.03664 49.4782Z" fill="#E4761B"/>
<path d="M20.3871 29.8704L15.9585 36.5693L31.7388 37.27L31.1782 20.3125L20.3871 29.8704Z" fill="#E4761B"/>
<path fill-rule="evenodd" clip-rule="evenodd" d="M31.2336 20.1735C31.2835 20.195 31.3165 20.2434 31.3183 20.2976L31.8789 37.2552C31.8802 37.2942 31.8651 37.332 31.8374 37.3595C31.8096 37.3869 31.7716 37.4015 31.7326 37.3998L15.9523 36.6991C15.9019 36.6968 15.8565 36.6677 15.8336 36.6227C15.8107 36.5777 15.8138 36.5239 15.8416 36.4818L20.2702 29.7829C20.2769 29.7726 20.285 29.7634 20.2942 29.7552L31.0853 20.1973C31.126 20.1613 31.1838 20.1521 31.2336 20.1735ZM20.4938 29.9528L16.2118 36.43L31.5937 37.1131L31.048 20.6048L20.4938 29.9528Z" fill="#E4761B"/>
<path d="M51.5837 29.8654L40.6525 20.1113L40.2881 37.2651L56.0403 36.5643L51.5837 29.8654Z" fill="#E4761B"/>
<path fill-rule="evenodd" clip-rule="evenodd" d="M40.5965 19.9863C40.6467 19.9644 40.705 19.9738 40.7458 20.0102L51.6771 29.7643C51.686 29.7722 51.6939 29.7813 51.7005 29.7912L56.1571 36.4902C56.1851 36.5322 56.1882 36.5861 56.1654 36.6312C56.1425 36.6763 56.0971 36.7055 56.0466 36.7078L40.2943 37.4085C40.2556 37.4102 40.2179 37.3958 40.1902 37.3688C40.1624 37.3417 40.1472 37.3043 40.148 37.2655L40.5124 20.1118C40.5135 20.0571 40.5464 20.0081 40.5965 19.9863ZM40.7861 20.4218L40.4314 37.1219L55.7863 36.4388L51.4771 29.9614L40.7861 20.4218Z" fill="#E4761B"/>
<path d="M21.2847 60.4744L30.7585 55.8496L22.574 49.459L21.2847 60.4744Z" fill="#E4761B"/>
<path fill-rule="evenodd" clip-rule="evenodd" d="M22.52 49.3214C22.5667 49.3019 22.6203 49.3091 22.6603 49.3402L30.8447 55.7309C30.8828 55.7606 30.9029 55.8079 30.8978 55.8559C30.8928 55.904 30.8634 55.9461 30.8199 55.9673L21.3462 60.5921C21.3001 60.6145 21.2455 60.6101 21.2036 60.5805C21.1618 60.5508 21.1395 60.5007 21.1455 60.4498L22.4348 49.4344C22.4407 49.3841 22.4733 49.3409 22.52 49.3214ZM22.6842 49.7146L21.4537 60.2277L30.4955 55.8138L22.6842 49.7146Z" fill="#E4761B"/>
<path d="M41.2124 55.8496L50.7142 60.4744L49.3968 49.459L41.2124 55.8496Z" fill="#E4761B"/>
<path fill-rule="evenodd" clip-rule="evenodd" d="M49.4507 49.3213C49.4974 49.3407 49.53 49.3838 49.536 49.4341L50.8534 60.4495C50.8595 60.5004 50.8373 60.5506 50.7955 60.5803C50.7537 60.61 50.699 60.6146 50.6529 60.5921L41.1511 55.9673C41.1076 55.9462 41.0781 55.9041 41.073 55.856C41.068 55.8079 41.0881 55.7606 41.1262 55.7309L49.3106 49.3402C49.3505 49.3091 49.404 49.3019 49.4507 49.3213ZM41.4757 55.8136L50.5446 60.2277L49.2872 49.7141L41.4757 55.8136Z" fill="#E4761B"/>
<path d="M50.7162 60.4724L41.2144 55.8477L41.9711 62.0421L41.8871 64.6488L50.7162 60.4724Z" fill="#D7C1B3"/>
<path fill-rule="evenodd" clip-rule="evenodd" d="M41.1315 55.737C41.1733 55.7072 41.2281 55.7026 41.2742 55.7251L50.7761 60.3499C50.8245 60.3734 50.8552 60.4227 50.8549 60.4766C50.8546 60.5306 50.8234 60.5795 50.7746 60.6026L41.9455 64.7789C41.9014 64.7997 41.8496 64.7961 41.8087 64.7694C41.7679 64.7426 41.744 64.6965 41.7455 64.6477L41.8293 62.0518L41.0738 55.8681C41.0676 55.8171 41.0897 55.7668 41.1315 55.737ZM41.3833 56.0899L42.1088 62.0285C42.1097 62.0356 42.11 62.0428 42.1098 62.05L42.0331 64.4274L50.3908 60.4741L41.3833 56.0899Z" fill="#D7C1B3"/>
<path d="M21.2847 60.4724L30.1138 64.6488L30.0577 62.0421L30.7585 55.8477L21.2847 60.4724Z" fill="#D7C1B3"/>
<path fill-rule="evenodd" clip-rule="evenodd" d="M30.8393 55.7366C30.8811 55.7661 30.9035 55.816 30.8977 55.8668L30.198 62.0519L30.2539 64.6492C30.2549 64.6977 30.2308 64.7434 30.19 64.7698C30.1493 64.7962 30.0978 64.7996 30.0539 64.7789L21.2248 60.6026C21.176 60.5795 21.1449 60.5306 21.1445 60.4767C21.1442 60.4229 21.1748 60.3736 21.2232 60.3499L30.697 55.7251C30.7429 55.7027 30.7975 55.7071 30.8393 55.7366ZM21.6082 60.4739L29.9688 64.4286L29.9176 62.0485C29.9175 62.0422 29.9178 62.036 29.9185 62.0297L30.5905 56.089L21.6082 60.4739Z" fill="#D7C1B3"/>
<path d="M30.2533 45.3595L22.3491 43.0331L27.9269 40.4824L30.2533 45.3595Z" fill="#233447"/>
<path fill-rule="evenodd" clip-rule="evenodd" d="M27.8686 40.3584C27.9382 40.3266 28.0204 40.3565 28.0534 40.4255L30.3798 45.3026C30.4036 45.3525 30.3958 45.4118 30.3599 45.4539C30.3241 45.496 30.2668 45.513 30.2137 45.4974L22.3096 43.171C22.2535 43.1545 22.2135 43.1048 22.2093 43.0465C22.2052 42.9882 22.2377 42.9334 22.2908 42.9091L27.8686 40.3584ZM22.7485 43.008L29.9916 45.1398L27.8598 40.6707L22.7485 43.008Z" fill="#233447"/>
<path d="M41.7168 45.3595L44.0432 40.4824L49.649 43.0331L41.7168 45.3595Z" fill="#233447"/>
<path fill-rule="evenodd" clip-rule="evenodd" d="M43.9167 40.4255C43.9496 40.3566 44.0317 40.3267 44.1013 40.3583L49.7071 42.909C49.7603 42.9332 49.7929 42.988 49.7888 43.0465C49.7847 43.1049 49.7446 43.1545 49.6885 43.171L41.7562 45.4974C41.7032 45.513 41.646 45.4959 41.6101 45.4538C41.5743 45.4117 41.5665 45.3525 41.5903 45.3026L43.9167 40.4255ZM44.1104 40.6704L41.9783 45.1402L49.2481 43.0081L44.1104 40.6704Z" fill="#233447"/>
<path d="M21.2836 60.4657L22.629 49.0859L13.856 49.3382L21.2836 60.4657Z" fill="#CD6116"/>
<path fill-rule="evenodd" clip-rule="evenodd" d="M22.7324 48.9967C22.7599 49.0268 22.773 49.0673 22.7682 49.1078L21.4228 60.4875C21.4159 60.5458 21.3734 60.5937 21.3163 60.6074C21.2592 60.621 21.1997 60.5977 21.1671 60.5489L13.7394 49.4214C13.7111 49.379 13.7081 49.3246 13.7314 49.2793C13.7548 49.234 13.801 49.205 13.8519 49.2035L22.625 48.9512C22.6657 48.9501 22.7049 48.9667 22.7324 48.9967ZM14.1131 49.4764L21.1891 60.077L22.4708 49.2361L14.1131 49.4764Z" fill="#CD6116"/>
<path d="M49.3682 49.0859L50.7136 60.4657L58.1413 49.3382L49.3682 49.0859Z" fill="#CD6116"/>
<path fill-rule="evenodd" clip-rule="evenodd" d="M49.2648 48.9967C49.2923 48.9667 49.3315 48.9501 49.3722 48.9512L58.1453 49.2035C58.1963 49.205 58.2424 49.234 58.2658 49.2793C58.2892 49.3246 58.2861 49.379 58.2578 49.4214L50.8301 60.5489C50.7975 60.5977 50.738 60.621 50.6809 60.6074C50.6238 60.5937 50.5813 60.5458 50.5744 60.4875L49.229 49.1078C49.2242 49.0673 49.2373 49.0268 49.2648 48.9967ZM49.5264 49.2361L50.8081 60.077L57.8841 49.4764L49.5264 49.2361Z" fill="#CD6116"/>
<path d="M56.0389 36.5605L40.2866 37.2613L41.7441 45.3616L44.0705 40.4846L49.6763 43.0352L56.0389 36.5605Z" fill="#CD6116"/>
<path fill-rule="evenodd" clip-rule="evenodd" d="M56.1669 36.5069C56.1904 36.5595 56.1793 36.6211 56.1389 36.6622L49.7763 43.1369C49.735 43.1789 49.6719 43.1906 49.6183 43.1662L44.1378 40.6726L41.8706 45.4254C41.8444 45.4803 41.7858 45.5121 41.7255 45.504C41.6652 45.4959 41.617 45.4498 41.6062 45.3899L40.1487 37.2895C40.1415 37.2497 40.1519 37.2088 40.1771 37.1772C40.2024 37.1456 40.24 37.1265 40.2804 37.1247L56.0327 36.424C56.0902 36.4214 56.1435 36.4543 56.1669 36.5069ZM40.4529 37.3976L41.805 44.912L43.9441 40.4277C43.977 40.3587 44.059 40.3288 44.1286 40.3605L49.6451 42.8705L55.6893 36.7198L40.4529 37.3976Z" fill="#CD6116"/>
<path d="M22.3491 43.0352L27.9549 40.4846L30.2533 45.3616L31.7388 37.2613L15.9585 36.5605L22.3491 43.0352Z" fill="#CD6116"/>
<path fill-rule="evenodd" clip-rule="evenodd" d="M15.8304 36.5071C15.8538 36.4544 15.9071 36.4214 15.9647 36.424L31.745 37.1247C31.7855 37.1265 31.8232 37.1457 31.8484 37.1774C31.8737 37.2091 31.884 37.2501 31.8767 37.29L30.3911 45.3903C30.3801 45.4502 30.3318 45.4962 30.2714 45.504C30.211 45.5119 30.1525 45.4799 30.1265 45.4248L27.8871 40.6729L22.4072 43.1662C22.3537 43.1906 22.2907 43.1789 22.2494 43.1371L15.8588 36.6624C15.8183 36.6214 15.807 36.5597 15.8304 36.5071ZM16.3093 36.7198L22.3801 42.8706L27.8969 40.3605C27.9666 40.3287 28.049 40.3589 28.0817 40.4283L30.1941 44.9108L31.572 37.3976L16.3093 36.7198Z" fill="#CD6116"/>
<path d="M15.9585 36.5605L22.5733 49.4539L22.3491 43.0352L15.9585 36.5605Z" fill="#E4751F"/>
<path fill-rule="evenodd" clip-rule="evenodd" d="M15.8764 36.4504C15.9324 36.4099 16.0097 36.4163 16.0583 36.4655L22.4489 42.9402C22.4736 42.9652 22.4879 42.9986 22.4892 43.0338L22.7134 49.4524C22.7157 49.518 22.6722 49.5764 22.6086 49.5929C22.5451 49.6095 22.4786 49.5797 22.4487 49.5213L15.8338 36.6279C15.8022 36.5664 15.8203 36.491 15.8764 36.4504ZM16.4997 37.3118L22.4114 48.8345L22.211 43.0982L16.4997 37.3118Z" fill="#E4751F"/>
<path d="M49.6778 43.0352L49.3975 49.4539L56.0403 36.5605L49.6778 43.0352Z" fill="#E4751F"/>
<path fill-rule="evenodd" clip-rule="evenodd" d="M56.1225 36.4504C56.1786 36.491 56.1966 36.5666 56.1649 36.6282L49.5221 49.5215C49.4919 49.58 49.4251 49.6096 49.3615 49.5927C49.2979 49.5758 49.2546 49.5169 49.2575 49.4512L49.5377 43.0326C49.5393 42.998 49.5535 42.9651 49.5778 42.9404L55.9404 36.4657C55.9889 36.4163 56.0663 36.4098 56.1225 36.4504ZM49.8154 43.0985L49.5653 48.8255L55.4924 37.3215L49.8154 43.0985Z" fill="#E4751F"/>
<path d="M31.738 37.2695L30.2524 45.3699L32.1024 54.9278L32.5228 42.3428L31.738 37.2695Z" fill="#E4751F"/>
<path fill-rule="evenodd" clip-rule="evenodd" d="M31.7414 37.1231C31.8098 37.124 31.8675 37.1742 31.8779 37.2418L32.6628 42.315C32.6641 42.3236 32.6646 42.3324 32.6643 42.3411L32.2439 54.9261C32.2415 54.9974 32.186 55.0555 32.1149 55.0611C32.0438 55.0668 31.9798 55.0181 31.9662 54.9481L30.1163 45.3902C30.113 45.373 30.1129 45.3554 30.1161 45.3383L31.6016 37.2379C31.6139 37.1706 31.673 37.1221 31.7414 37.1231ZM30.3965 45.3629L32.0053 53.6746L32.3838 42.3449L31.7277 38.1041L30.3965 45.3629Z" fill="#E4751F"/>
<path d="M40.2871 37.2695L39.5303 42.3147L39.8666 54.9278L41.7446 45.3699L40.2871 37.2695Z" fill="#E4751F"/>
<path fill-rule="evenodd" clip-rule="evenodd" d="M40.285 37.1231C40.3536 37.1221 40.4129 37.1709 40.425 37.2384L41.8825 45.3387C41.8856 45.3559 41.8855 45.3735 41.8821 45.3906L40.0041 54.9485C39.9904 55.0186 39.9261 55.0671 39.8549 55.0611C39.7837 55.0551 39.7284 54.9966 39.7265 54.9252L39.3902 42.3121C39.39 42.3039 39.3905 42.2957 39.3917 42.2876L40.1485 37.2424C40.1587 37.1746 40.2164 37.1241 40.285 37.1231ZM40.2996 38.1243L39.6707 42.317L39.973 53.6531L41.602 45.3624L40.2996 38.1243Z" fill="#E4751F"/>
<path d="M41.7442 45.3616L39.8662 54.9195L41.2116 55.8444L49.3961 49.4538L49.6764 43.0352L41.7442 45.3616Z" fill="#F6851B"/>
<path fill-rule="evenodd" clip-rule="evenodd" d="M49.7628 42.9283C49.7984 42.9562 49.8183 42.9995 49.8164 43.0447L49.5361 49.4633C49.5343 49.5043 49.5146 49.5424 49.4823 49.5677L41.2979 55.9583C41.2497 55.9959 41.1826 55.998 41.1322 55.9633L39.7868 55.0384C39.7408 55.0067 39.7179 54.9507 39.7287 54.8959L41.6066 45.338C41.6167 45.2867 41.6545 45.2452 41.7047 45.2305L49.6369 42.9041C49.6803 42.8914 49.7272 42.9004 49.7628 42.9283ZM41.8653 45.4755L40.0215 54.8596L41.2063 55.6741L49.2589 49.3865L49.5278 43.2282L41.8653 45.4755Z" fill="#F6851B"/>
<path d="M22.3491 43.0352L22.5734 49.4538L30.7578 55.8444L32.1032 54.9195L30.2533 45.3616L22.3491 43.0352Z" fill="#F6851B"/>
<path fill-rule="evenodd" clip-rule="evenodd" d="M22.2632 42.9278C22.2988 42.9002 22.3455 42.8914 22.3887 42.9041L30.2929 45.2305C30.3431 45.2453 30.3809 45.2869 30.3909 45.3384L32.2408 54.8963C32.2514 54.951 32.2285 55.0068 32.1826 55.0384L30.8372 55.9633C30.7868 55.998 30.7198 55.9959 30.6716 55.9583L22.4871 49.5677C22.4545 49.5422 22.4347 49.5035 22.4333 49.4621L22.2091 43.0435C22.2075 42.9985 22.2276 42.9554 22.2632 42.9278ZM22.496 43.2279L22.7111 49.387L30.7631 55.6741L31.9482 54.8594L30.1319 45.4754L22.496 43.2279Z" fill="#F6851B"/>
<path d="M41.884 64.6431L41.9681 62.0364L41.2674 61.4198H30.7004L30.0558 62.0364L30.1118 64.6431L21.2827 60.4668L24.3659 62.9894L30.6164 67.3339H41.3515L47.6299 62.9894L50.7131 60.4668L41.884 64.6431Z" fill="#C0AD9E"/>
<path fill-rule="evenodd" clip-rule="evenodd" d="M21.1662 60.3953C21.2041 60.3355 21.2806 60.3133 21.3446 60.3436L29.9688 64.4229L29.9176 62.0429C29.9168 62.0036 29.9325 61.9658 29.9609 61.9386L30.6055 61.322C30.6316 61.297 30.6663 61.2831 30.7024 61.2831H41.2693C41.3034 61.2831 41.3363 61.2955 41.3619 61.318L42.0626 61.9347C42.0941 61.9623 42.1115 62.0026 42.1101 62.0444L42.0334 64.4218L50.6552 60.3436C50.7192 60.3133 50.7957 60.3355 50.8335 60.3953C50.8714 60.4552 50.8586 60.5339 50.8038 60.5787L47.7206 63.1013C47.7177 63.1037 47.7147 63.106 47.7116 63.1081L41.4332 67.4526C41.4097 67.4688 41.3819 67.4775 41.3534 67.4775H30.6183C30.5897 67.4775 30.5618 67.4687 30.5383 67.4524L24.2879 63.1079C24.2849 63.1058 24.282 63.1036 24.2791 63.1013L21.1959 60.5787C21.1411 60.5339 21.1284 60.4552 21.1662 60.3953ZM22.2584 61.0859L24.4524 62.8809L30.6622 67.1972H41.3097L47.5475 62.8808L49.7413 61.0859L41.9459 64.7732C41.9017 64.7941 41.8499 64.7905 41.8091 64.7637C41.7683 64.737 41.7443 64.6908 41.7459 64.642L41.8278 62.1014L41.2164 61.5634H30.7586L30.1992 62.0985L30.2539 64.6435C30.255 64.6921 30.2308 64.7377 30.19 64.7641C30.1493 64.7906 30.0978 64.794 30.0539 64.7732L22.2584 61.0859Z" fill="#C0AD9E"/>
<path d="M41.2131 55.8507L39.8677 54.9258H32.1037L30.7583 55.8507L30.0576 62.0451L30.7023 61.4285H41.2692L41.9699 62.0451L41.2131 55.8507Z" fill="#161616"/>
<path fill-rule="evenodd" clip-rule="evenodd" d="M32.0248 54.802C32.0482 54.7859 32.0759 54.7773 32.1042 54.7773H39.8683C39.8966 54.7773 39.9243 54.7859 39.9477 54.802L41.293 55.727C41.3261 55.7497 41.3479 55.7856 41.3528 55.8255L42.1095 62.0199C42.1166 62.0776 42.0873 62.1337 42.0358 62.1608C41.9844 62.188 41.9215 62.1805 41.8779 62.1421L41.2168 61.5604H30.759L30.155 62.1382C30.1124 62.1789 30.0487 62.1887 29.9959 62.1625C29.943 62.1363 29.9122 62.0798 29.9189 62.0211L30.6196 55.8267C30.6241 55.7863 30.646 55.75 30.6794 55.727L32.0248 54.802ZM32.1478 55.0576L30.8909 55.9217L30.2409 61.6681L30.6059 61.319C30.632 61.294 30.6667 61.2801 30.7028 61.2801H41.2697C41.3038 61.2801 41.3367 61.2925 41.3623 61.315L41.7867 61.6885L41.0822 55.9221L39.8247 55.0576H32.1478Z" fill="#161616"/>
<path d="M69.355 23.133L71.7374 11.6972L68.1777 1.07422L41.2139 21.0869L51.5846 29.86L66.2437 34.1484L69.4951 30.3645L68.0937 29.3555L70.336 27.3094L68.5982 25.964L70.8405 24.2542L69.355 23.133Z" fill="#763D16"/>
<path fill-rule="evenodd" clip-rule="evenodd" d="M68.2183 0.943948C68.2611 0.957405 68.2949 0.990558 68.3092 1.03312L71.8689 11.6561C71.8768 11.6797 71.8782 11.7049 71.8732 11.7292L69.5088 23.0781L70.9235 24.1457C70.9585 24.1722 70.9791 24.2134 70.9792 24.2573C70.9793 24.3011 70.9589 24.3425 70.924 24.3691L68.8268 25.9682L70.4203 27.202C70.453 27.2273 70.4729 27.2658 70.4746 27.3071C70.4762 27.3484 70.4596 27.3884 70.429 27.4163L68.3142 29.346L69.5755 30.2542C69.6074 30.2771 69.6282 30.3124 69.6328 30.3514C69.6375 30.3903 69.6255 30.4295 69.6 30.4593L66.3486 34.2432C66.3127 34.2849 66.2558 34.3018 66.203 34.2863L51.5438 29.9979C51.525 29.9924 51.5076 29.983 51.4926 29.9704L41.1219 21.1973C41.0892 21.1697 41.071 21.1286 41.0723 21.0859C41.0737 21.0431 41.0945 21.0033 41.1289 20.9778L68.0928 0.96511C68.1288 0.938359 68.1755 0.930491 68.2183 0.943948ZM41.4379 21.0975L51.651 29.7372L66.1949 33.992L69.2878 30.3924L68.0103 29.4726C67.9761 29.4479 67.9547 29.4091 67.9523 29.367C67.9499 29.3248 67.9666 29.2838 67.9977 29.2554L70.117 27.3216L68.5109 26.0782C68.4765 26.0515 68.4564 26.0104 68.4566 25.9669C68.4568 25.9233 68.4771 25.8823 68.5118 25.8559L70.6072 24.2582L69.2691 23.2483C69.2258 23.2156 69.2053 23.1609 69.2163 23.1079L71.591 11.7092L68.1048 1.30526L41.4379 21.0975Z" fill="#763D16"/>
<path d="M0.262207 11.6972L2.64467 23.133L1.13111 24.2542L3.37343 25.964L1.66366 27.3094L3.90598 29.3555L2.50453 30.3645L5.72786 34.1484L20.387 29.86L30.7577 21.0869L3.79386 1.07422L0.262207 11.6972Z" fill="#763D16"/>
<path fill-rule="evenodd" clip-rule="evenodd" d="M3.75169 0.943998C3.79455 0.930472 3.8413 0.938324 3.87739 0.96511L30.8413 20.9778C30.8756 21.0033 30.8965 21.0431 30.8978 21.0859C30.8992 21.1286 30.8809 21.1697 30.8483 21.1973L20.4775 29.9704C20.4626 29.983 20.4452 29.9924 20.4264 29.9979L5.76722 34.2863C5.71419 34.3019 5.65701 34.2848 5.62118 34.2427L2.39785 30.4588C2.37246 30.429 2.3607 30.3899 2.36541 30.3511C2.37012 30.3122 2.39087 30.2771 2.42265 30.2542L3.68398 29.346L1.5692 27.4163C1.53878 27.3885 1.52211 27.3488 1.52361 27.3077C1.52512 27.2665 1.54464 27.2281 1.577 27.2026L3.14459 25.9691L1.04614 24.3691C1.0111 24.3423 0.990667 24.3007 0.990973 24.2566C0.991279 24.2126 1.01229 24.1712 1.0477 24.145L2.48919 23.0772L0.125016 11.7292C0.119972 11.705 0.121425 11.6799 0.129227 11.6564L3.66088 1.03343C3.67506 0.990784 3.70883 0.957523 3.75169 0.943998ZM3.86579 1.30555L0.407115 11.709L2.78188 23.1079C2.79303 23.1614 2.77203 23.2165 2.7281 23.2491L1.36437 24.2592L3.45841 25.8559C3.49288 25.8822 3.51324 25.923 3.51357 25.9663C3.5139 26.0097 3.49416 26.0507 3.4601 26.0775L1.88025 27.3207L4.00045 29.2554C4.03164 29.2838 4.04833 29.3248 4.04589 29.367C4.04345 29.4091 4.02214 29.4479 3.98787 29.4726L2.70983 30.3928L5.77567 33.9918L20.3192 29.7372L30.5323 21.0975L3.86579 1.30555Z" fill="#763D16"/>
<path d="M66.2429 34.1498L51.5837 29.8613L56.0403 36.5603L49.3975 49.4536L58.1425 49.3415H71.176L66.2429 34.1498Z" fill="#F6851B"/>
<path fill-rule="evenodd" clip-rule="evenodd" d="M51.4699 29.7817C51.5047 29.7343 51.5656 29.7137 51.6221 29.7303L66.2813 34.0187C66.3257 34.0317 66.3609 34.0658 66.3752 34.1099L71.3083 49.3016C71.3222 49.3443 71.3148 49.391 71.2884 49.4273C71.262 49.4636 71.2199 49.485 71.175 49.485H58.1415L49.3983 49.5972C49.3491 49.5978 49.3032 49.5726 49.2773 49.5307C49.2514 49.4889 49.2494 49.4366 49.2719 49.3928L55.8771 36.5727L51.4661 29.9424C51.4334 29.8934 51.435 29.8292 51.4699 29.7817ZM51.9124 30.1072L56.156 36.4861C56.1842 36.5284 56.1872 36.5827 56.1639 36.6279L49.6279 49.3139L58.1415 49.2047L70.9822 49.2048L66.1315 34.2669L51.9124 30.1072Z" fill="#F6851B"/>
<path d="M20.3868 29.8613L5.72763 34.1498L0.850586 49.3415H13.856L22.573 49.4536L15.9582 36.5603L20.3868 29.8613Z" fill="#F6851B"/>
<path fill-rule="evenodd" clip-rule="evenodd" d="M20.4996 29.7816C20.5345 29.8289 20.5361 29.893 20.5037 29.942L16.1203 36.5726L22.6978 49.393C22.7202 49.4368 22.7181 49.4891 22.6922 49.5308C22.6663 49.5726 22.6204 49.5978 22.5713 49.5972L13.856 49.485H0.850595C0.805821 49.485 0.763742 49.4637 0.737361 49.4275C0.710979 49.3913 0.703472 49.3447 0.717158 49.3021L5.5942 34.1104C5.60841 34.0661 5.64366 34.0317 5.68829 34.0187L20.3475 29.7303C20.4039 29.7137 20.4647 29.7342 20.4996 29.7816ZM5.83835 34.2668L1.04278 49.2048H13.8578L22.3421 49.3139L15.8335 36.6277C15.8104 36.5826 15.8134 36.5286 15.8413 36.4864L20.0588 30.1067L5.83835 34.2668Z" fill="#F6851B"/>
<path d="M40.2884 37.259L41.2134 21.0863L45.4738 9.56641H26.5542L30.7585 21.0863L31.7396 37.259L32.0759 42.3603L32.1039 54.9173H39.868L39.924 42.3603L40.2884 37.259Z" fill="#F6851B"/>
<path fill-rule="evenodd" clip-rule="evenodd" d="M26.4394 9.4895C26.4656 9.45201 26.5085 9.42969 26.5542 9.42969H45.4738C45.5196 9.42969 45.5626 9.45212 45.5888 9.48975C45.615 9.52737 45.6211 9.57544 45.6052 9.61844L41.3521 21.1187L40.4283 37.2705L40.4282 37.2725L40.0642 42.3691L40.0081 54.9214C40.0078 54.9985 39.9451 55.0609 39.868 55.0609H32.1039C32.0267 55.0609 31.964 54.9983 31.9638 54.9211L31.9358 42.3685L31.5997 37.2717L31.5997 37.271L30.6199 21.1186L26.4226 9.61788C26.4069 9.57491 26.4132 9.52698 26.4394 9.4895ZM26.7545 9.70998L30.8902 21.0417C30.8948 21.0544 30.8976 21.0677 30.8984 21.0813L31.8794 37.2533L31.8795 37.254L32.2158 42.3545C32.216 42.3575 32.2161 42.3605 32.2161 42.3634L32.2438 54.7806H39.7285L39.7839 42.3631C39.7839 42.36 39.784 42.3569 39.7842 42.3538L40.1485 37.2545L40.1486 37.2525L41.0734 21.0817C41.0742 21.0679 41.0771 21.0542 41.0819 21.0411L45.2725 9.70998H26.7545Z" fill="#F6851B"/>
</svg>
