<?xml version="1.0" encoding="utf-8"?>
<!-- Generator: Adobe Illustrator 25.4.1, SVG Export Plug-In . SVG Version: 6.00 Build 0)  -->
<svg version="1.1" id="Layer_1" xmlns="http://www.w3.org/2000/svg" xmlns:xlink="http://www.w3.org/1999/xlink" x="0px" y="0px"
	 viewBox="0 0 520.09 521.42" style="enable-background:new 0 0 520.09 521.42;" xml:space="preserve">
<style type="text/css">
	.st0{fill:#FEFEFE;}
	.st1{fill:#B62D74;}
	.st2{fill:#E68F34;}
	.st3{fill:#5FC9ED;}
	.st4{fill:#3E8C72;}
	.st5{fill:none;stroke:#3F7BBE;stroke-width:23;stroke-miterlimit:10;}
</style>
<g>
	<path class="st0" d="M242.74,59.41c-9.75,1.6-19.5,3.21-29.25,4.81c-1.08,0.22-2.16,0.44-3.23,0.65
		c-20.75,9.31-42.48,16.94-62.02,28.32c-31.06,18.1-53.28,45.23-69.15,77.47c-1.25,2.53-2.6,5.03-3.74,7.61
		c-13.2,29.83-16.99,97.1-16.81,98.83c5.8,58.15,30.86,106.37,77.56,141.44c18.01,13.52,40,21.75,60.17,32.39
		c0.99-0.29,1.98-0.57,2.96-0.86c2.27,1.38,4.36,3.39,6.82,4.06c51.15,13.91,100.56,8.7,147.6-15.33
		c42.78-21.86,73.73-55.43,92.85-99.51c12.64-29.14,18.14-59.68,15.6-91.5c-0.05-2.16,0.34-4.43-0.21-6.45
		c-6.12-22.37-10.56-45.42-19.03-66.87c-12.87-32.6-36.14-57.9-64.62-78.01c-9.03-6.37-19.62-10.54-29.49-15.72
		c-0.95-0.79-1.91-1.59-2.86-2.38c-0.34-0.51-0.56-1.32-1.02-1.49c-10.79-3.87-21.61-7.67-32.43-11.49
		c-1.74-0.39-3.48-0.78-5.22-1.18c-0.28-0.1-0.56-0.2-0.84-0.29c-0.4-0.04-0.79-0.08-1.19-0.12c-8.77-1.4-17.54-2.8-26.31-4.21
		C266.83,59.53,254.79,59.47,242.74,59.41z"/>
	<path class="st1" d="M462.11,247.8c2.54,31.82-2.96,62.36-15.6,91.5c-19.12,44.09-50.07,77.66-92.85,99.51
		c-47.03,24.03-96.45,29.24-147.6,15.33c-2.46-0.67-4.56-2.67-6.82-4.06c-2.13-29.43-4.55-58.84-6.3-88.28
		c-1.31-22.03-7.02-42.79-8.02-64.84c-0.05-1.19,1.04,0.02,0,0c-8.98-0.17-15.58-4.59-24.57-4.5c-0.16-0.43-0.33-0.86-0.49-1.28
		c2.81-4.97,5.44-10.04,8.46-14.88c10.79-17.29,21.94-34.36,32.52-51.77c11.79-19.4,23.05-39.13,34.66-58.64
		c6.84-11.5,13.89-22.89,20.96-34.25c0.51-0.82,2.41-1.71,3.05-1.38c12.22,6.34,24.62,12.42,36.44,19.46
		c15.49,9.21,30.49,19.25,45.74,28.85c9.81,6.18,19.67,12.28,29.58,18.29c7.58,4.59,15.38,8.82,22.92,13.47
		c8.41,5.18,16.58,10.75,24.96,15.98c8.46,5.27,16.83,10.74,25.65,15.34C450.19,244.46,456.32,245.8,462.11,247.8z"/>
	<path class="st2" d="M462.11,247.8c-5.79-2-11.92-3.34-17.29-6.14c-8.82-4.61-17.2-10.07-25.65-15.34
		c-8.38-5.23-16.55-10.8-24.96-15.98c-7.54-4.65-15.34-8.88-22.92-13.47c-9.92-6-19.77-12.11-29.58-18.29
		c-15.26-9.6-30.25-19.64-45.74-28.85c-11.82-7.03-24.22-13.11-36.44-19.46c-0.64-0.33-2.54,0.56-3.05,1.38
		c-7.08,11.36-14.12,22.75-20.96,34.25c-11.61,19.51-22.87,39.24-34.66,58.64c-10.58,17.41-21.73,34.48-32.52,51.77
		c-3.02,4.84-5.65,9.91-8.46,14.88c-7.69,1.52-15.33,4.03-23.07,4.39c-22.45,1.04-76.72-11.66-77.6-12.54
		c-0.29-0.35-0.39-10.8-0.69-11.15c-2.38-32.64,3.64-63.76,16.84-93.59c1.14-2.58,2.49-5.07,3.74-7.61
		c1.14,0.02,2.28,0.03,3.43,0.05c2.93,0.26,6.19,1.49,8.73,0.61c15.08-5.2,29.93-11.03,44.96-16.36
		c13.82-4.9,27.85-9.23,41.66-14.19c16.07-5.77,31.91-12.22,48.02-17.87c18.93-6.65,38.05-12.76,57.08-19.11
		c13.04-4.35,26.12-8.59,39.1-13.1c8.97-3.12,17.8-6.61,26.69-9.94c9.87,5.18,20.46,9.35,29.49,15.72
		c28.48,20.1,51.75,45.41,64.62,78.01c8.47,21.46,12.91,44.5,19.03,66.87C462.45,243.37,462.06,245.64,462.11,247.8z"/>
	<path class="st3" d="M185.72,294.27c0.86-0.02,2.47,1.53,2.54,2.44c2.28,31.19,4.75,62.37,6.46,93.59
		c1.11,20.18,4.04,39.56,4.52,59.77c-24.23-9.59-45.13-18-63.14-31.53c-46.7-35.07-71.76-83.29-77.56-141.44
		C58.37,275.38,176.98,294.5,185.72,294.27z"/>
	<path class="st4" d="M348.75,80.75c-8.89,3.33-242.43,85.39-257.51,90.58c-2.54,0.87-9.22-0.41-12.15-0.66
		c2.46-5,4.35-10.41,7.51-14.92c7.11-10.12,13.85-20.81,22.58-29.42c12.43-12.26,26.12-23.36,40.01-33.99
		c7.61-5.82,16.5-10.14,25.24-14.23c10.56-4.94,21.58-8.91,32.4-13.3c1.08-0.22,2.16-0.44,3.23-0.65c9.75-1.6,19.5-3.21,29.25-4.81
		c12.05,0.06,24.09,0.12,36.14,0.18c8.77,1.4,28.06,4.53,28.33,4.62c1.74,0.39,3.48,0.78,5.22,1.18
		c11.15,4.32,22.3,8.65,33.45,12.97C343.42,79.11,352.09,82.45,348.75,80.75z"/>
	<path class="st3" d="M242.74,59.41c-9.75,1.6-19.5,3.21-29.25,4.81C223.24,62.62,232.99,61.01,242.74,59.41z"/>
	<path class="st3" d="M305.19,63.8c-8.77-1.4-17.54-2.81-26.31-4.21C287.65,61,296.42,62.4,305.19,63.8z"/>
	<path class="st3" d="M307.21,64.22c-0.28-0.1-0.56-0.2-0.84-0.29C306.66,64.02,306.93,64.12,307.21,64.22z"/>
</g>
<circle class="st5" cx="260.36" cy="260.55" r="230.23"/>
</svg>
