<svg id="Layer_1" data-name="Layer 1" xmlns="http://www.w3.org/2000/svg" viewBox="0 0 1133.86 566.93"><defs><style>.cls-1{fill:#7b2bf9;}</style></defs><title>Celestia-logo-color-black</title><path class="cls-1" d="M1001.84,311.23l-33.18-57.55a5.81,5.81,0,0,0-9.94,0l-33.18,57.55a5.22,5.22,0,0,0-.65,2.28,5.84,5.84,0,0,0,5.57,6.23c2.27.05,4-1.09,5.41-3.53l5.13-8.92a3.75,3.75,0,0,1,3.26-1.89H983a3.76,3.76,0,0,1,3.26,1.89l5.13,8.92c1.29,2.31,3,3.46,5.14,3.53a5.78,5.78,0,0,0,6-5.73A6.53,6.53,0,0,0,1001.84,311.23Zm-27.67-17.3h-21a2.57,2.57,0,0,1-2.22-3.85l10.55-18.21a2.57,2.57,0,0,1,4.45,0l10.48,18.21A2.57,2.57,0,0,1,974.17,293.93ZM351.33,260.34a111.21,111.21,0,0,0-187.41-55.5,112.39,112.39,0,0,0-13.61,16.48,39.44,39.44,0,0,0-3.18,5,111.23,111.23,0,1,0,197.24,102,41,41,0,0,0,1.76-4.23,112.28,112.28,0,0,0,5.26-63.41Zm-38.57-50.85c.64.61,1.27,1.23,1.9,1.86a101.71,101.71,0,0,1,22.46,33.82,1.72,1.72,0,0,1-1.9,2.34,51,51,0,0,0-9.87-.7,5.14,5.14,0,0,1-5.17-4.22,149.64,149.64,0,0,0-8.54-30.36l-.63-1.51A1.09,1.09,0,0,1,312.76,209.49Zm10.57,65.24a1.19,1.19,0,0,1,2.15-.72c.84,1.17,1.64,2.35,2.41,3.53q1.53,2.35,2.85,4.68a2.55,2.55,0,0,1-.33,3q-1.79,2-3.88,4.06L325,290.82a1,1,0,0,1-1.73-.77c.07-1.67.11-3.35.14-5C323.44,281.56,323.42,278.13,323.33,274.73Zm-140-74.33a101.2,101.2,0,0,1,59.2-18.92,102.81,102.81,0,0,1,16.79,1.37,1.71,1.71,0,0,1,.79,3c-5.32,4.18-10.27,10.36-14.65,18.37a4.78,4.78,0,0,1-5.48,2.31A138.45,138.45,0,0,0,198,201a95.53,95.53,0,0,0-13.81,1.46A1.15,1.15,0,0,1,183.34,200.4ZM168.77,352.74c-2.14-4.05.63-13.42,14.71-27.66h0a3.51,3.51,0,0,0-.31-5.22l-1.68-1.34a3.51,3.51,0,0,0-4.7.25l-.55.55c-7,7.22-12,13.91-14.72,19.92a2.4,2.4,0,0,1-4.18.33,101.29,101.29,0,0,1-16.79-56.11,102.4,102.4,0,0,1,2.22-21.28,1,1,0,0,1,2-.09,84.89,84.89,0,0,0,10.31,21.52,135.18,135.18,0,0,0,24.87,28h0c3.42,3,7,5.83,10.79,8.59a190.45,190.45,0,0,0,24.74,15.35c3.91,2,7.72,4,11.62,5.72a8.83,8.83,0,0,0,6.86.19q2.76-1.08,5.55-2.25a4.43,4.43,0,0,0,2.59-5.18c-.07-.27-.12-.48-.15-.61a197.93,197.93,0,0,1-5-42.71h0v-.55c0-.83,0-1.67,0-2.5,0-.26,0-.71,0-1v-.32h0c0-.95,0-1.9,0-2.86,0-2.61.14-5.21.28-7.78h0c1-18.39,4.07-35.67,9-50.2a2.58,2.58,0,0,0-1.6-3.27c-1.32-.44-2.63-.87-3.93-1.28a2.56,2.56,0,0,0-3.19,1.61c-5.37,15.78-8.69,34.51-9.58,54.33a7.45,7.45,0,0,1-3.64,6.08,280.38,280.38,0,0,0-31.83,21.77,5.16,5.16,0,0,1-6.59-.14,125.59,125.59,0,0,1-23.12-26c-11.67-17.92-14.45-34.8-7.81-47.52l.05-.09c.85-1.41,1.73-2.79,2.64-4.16,7.63-10.09,21.82-15.94,40.64-16.6q1.78-.06,3.6-.06a132.8,132.8,0,0,1,36.54,5.54h0l.83.25.64.18h0q4.37,1.31,8.75,2.88h0l.21.07,2.28.85.72.27.69.26h0a183.63,183.63,0,0,1,18.38,8.3,176.31,176.31,0,0,1,31.87,21.12c-17.87,4.09-38.63,12-59.52,22.64a3,3,0,0,0-1.65,2.54c-.08,1.29-.17,3.89-.24,6a1.69,1.69,0,0,0,2.48,1.55h0c20.67-10.86,41.31-19,59-23.26a6.63,6.63,0,0,0,5-7.36q-.49-3.54-1.1-7a11.59,11.59,0,0,0-4.39-7.18,188,188,0,0,0-27.24-17.21,193.46,193.46,0,0,0-20-9,2.51,2.51,0,0,1-1.3-3.58c6.91-12.37,15.13-19.29,23.14-19.29h.25c9.45.17,18.87,10,25.84,27A141.36,141.36,0,0,1,311.27,245l0,0c.8,4.6,1.44,9.35,1.92,14.22l-.13.08.17.17a222.27,222.27,0,0,1,1,25.39c-.1,5.5-.39,10.92-.86,16.23a288.35,288.35,0,0,1-45.45,29.48c-5.64,3-11.29,5.77-16.87,8.34l-.26.12-1.29.58h0q-6.94,3.15-13.72,5.8h0l-.76.29-1,.37-2.26.86-.62.23-2.73,1-.33.13h0a186.82,186.82,0,0,1-27.27,7.66C180.5,359.84,171,356.84,168.77,352.74Zm27.95-39.59a265.3,265.3,0,0,1,31.07-21.53,209.59,209.59,0,0,0,4.73,41.77q-6.42-2.75-12.79-6A180.46,180.46,0,0,1,196.72,313.15Zm59,71.46a102.54,102.54,0,0,1-13.16.84,101.23,101.23,0,0,1-55.06-16.1,1.37,1.37,0,0,1,.68-2.52l.77,0A109.58,109.58,0,0,0,202.51,365a207.44,207.44,0,0,0,34.25-10.11,2.16,2.16,0,0,1,2.75,1.21v0c4.72,11.48,10.52,20.15,17,25.67A1.63,1.63,0,0,1,255.7,384.61Zm43.12-27.23c-7.29,14.32-16.25,22.36-24.94,22.2-9.45-.17-18.87-10-25.85-27v0a2.15,2.15,0,0,1,1.14-2.78l.22-.09a2.13,2.13,0,0,1,1.45-.1,141.68,141.68,0,0,0,38,5.57c1.31,0,2.61,0,3.89-.07,1.51-.05,3-.13,4.46-.25A1.74,1.74,0,0,1,298.82,357.38ZM302,345.06a86.79,86.79,0,0,1-9.59.85,120.11,120.11,0,0,1-25.69-2.05,1.15,1.15,0,0,1-.3-2.16c1.93-1,3.87-2,5.8-3a316,316,0,0,0,37.35-23.13,1.15,1.15,0,0,1,1.81,1.12A165.39,165.39,0,0,1,305,342.53,3.76,3.76,0,0,1,302,345.06ZM317,353.15c-.77.82-1.55,1.63-2.35,2.43q-2.09,2.09-4.27,4a1.13,1.13,0,0,1-1.78-1.32l.44-1q.92-2,1.77-4.14a1.17,1.17,0,0,1,.77-.67c1.45-.36,2.86-.77,4.23-1.21A1.13,1.13,0,0,1,317,353.15Zm20.5-32.35c-.49,1.25-1,2.48-1.55,3.71-.08.17-.16.34-.25.51-3.36,6.47-9,11.57-16.54,15.12a2.18,2.18,0,0,1-3-2.56,193.5,193.5,0,0,0,5.62-28.87,7.68,7.68,0,0,1,2.62-4.89c3.1-2.69,6-5.37,8.66-8l0,0a2.45,2.45,0,0,1,4.08,1C339.77,305.54,339.92,313.69,337.51,320.8Zm2-47.78a2.08,2.08,0,0,1-3.56.11l-.39-.61a120.25,120.25,0,0,0-10.45-13.72,1.7,1.7,0,0,1,1.28-2.81h0c9.14,0,13.93,2.26,15.39,5C343.07,263.31,342.7,267.34,339.55,273Zm4.93,13.48a.64.64,0,0,1-1.23.23c-.11-.27-.23-.55-.35-.82a1.53,1.53,0,0,1,.17-1.53l.37-.49c.45-.58,1.09-.49,1.09.15C344.53,284.89,344.51,285.63,344.48,286.5Zm323.64-24.12h38.34a5.75,5.75,0,0,0,5.69-6.44,5.84,5.84,0,0,0-5.84-5H658.65a5.75,5.75,0,0,0-5.73,5.73V314a5.75,5.75,0,0,0,5.73,5.73h47.81a5.75,5.75,0,0,0,5.69-6.43,5.84,5.84,0,0,0-5.84-5H668.12a3.73,3.73,0,0,1-3.73-3.73v-9.75a3.73,3.73,0,0,1,3.73-3.73H696.9a5.75,5.75,0,0,0,5.69-6.43,5.84,5.84,0,0,0-5.84-5H668.12a3.73,3.73,0,0,1-3.73-3.73v-9.75A3.73,3.73,0,0,1,668.12,262.38Zm117.19,22.28c-5.26-3.35-12.34-5.07-21.23-5.07-11.76,0-17.69-2.87-17.69-8.61s5.93-8.6,17.69-8.6A49.39,49.39,0,0,1,782.72,266c3.45,1.05,5.84-.19,7.17-3.54,1.15-3-.38-5.83-3.53-7.26a55.1,55.1,0,0,0-22.28-4.3c-8.7,0-15.68,1.81-21.13,5.35a16.8,16.8,0,0,0-8,14.72c0,6.6,2.68,11.67,7.94,15s12.33,5.07,21.22,5.07c11.76,0,17.69,2.87,17.69,8.61s-5.93,8.6-17.69,8.6h-2.87a53.2,53.2,0,0,1-18.55-3.63,5.59,5.59,0,0,0-7.26,3.44,5.86,5.86,0,0,0,3.54,7.46,56.75,56.75,0,0,0,22.27,4.2h2.87c8.7,0,15.68-1.81,21-5.35a16.68,16.68,0,0,0,8.13-14.72C793.24,293.07,790.56,288,785.31,284.66Zm114.78-33.75a5.75,5.75,0,0,0-5.74,5.73V314a5.74,5.74,0,0,0,11.47,0V256.64A5.75,5.75,0,0,0,900.09,250.91Zm-30.32,0H812.56a5.74,5.74,0,0,0-5.69,6.43,5.82,5.82,0,0,0,5.84,5h19.06a3.74,3.74,0,0,1,3.74,3.74V314a5.75,5.75,0,0,0,6.43,5.69,5.84,5.84,0,0,0,5-5.85V266.12a3.73,3.73,0,0,1,3.74-3.74h19.2a5.76,5.76,0,0,0,5.7-6.44A5.84,5.84,0,0,0,869.77,250.91ZM628.39,308.27H590.22a3.75,3.75,0,0,1-3.75-3.74V256.79a5.84,5.84,0,0,0-5-5.84,5.75,5.75,0,0,0-6.44,5.69V314a5.75,5.75,0,0,0,5.74,5.73h47.8a5.74,5.74,0,0,0,5.69-6.43A5.82,5.82,0,0,0,628.39,308.27ZM441.46,262.38a21.69,21.69,0,0,1,16.15,6.79,5.82,5.82,0,0,0,9.85-4.11,6.06,6.06,0,0,0-2.39-4.59,34.33,34.33,0,1,0,.67,49.23,5.75,5.75,0,0,0-8.13-8.12,21.93,21.93,0,0,1-16.15,6.69,22.84,22.84,0,0,1-22.95-22.95,21.93,21.93,0,0,1,6.69-16.15A22.25,22.25,0,0,1,441.46,262.38Zm66,0h38.33a5.76,5.76,0,0,0,5.7-6.44,5.84,5.84,0,0,0-5.85-5H497.94a5.76,5.76,0,0,0-5.74,5.73V314a5.76,5.76,0,0,0,5.74,5.73h47.8a5.75,5.75,0,0,0,5.7-6.43,5.84,5.84,0,0,0-5.85-5H507.41a3.73,3.73,0,0,1-3.73-3.74V294.8a3.73,3.73,0,0,1,3.73-3.74h28.77a5.75,5.75,0,0,0,5.7-6.43,5.84,5.84,0,0,0-5.85-5H507.41a3.73,3.73,0,0,1-3.73-3.74v-9.73A3.73,3.73,0,0,1,507.41,262.38Z"/></svg>