<svg id="Layer_1" data-name="Layer 1" xmlns="http://www.w3.org/2000/svg" viewBox="0 0 236 236"><defs><style>.cls-1{fill:#2a308e;}</style></defs><path class="cls-1" d="M226.18,44.05a33,33,0,0,0-19.84-31.76C193.91,6.92,179.57,10,171,20.11c-4.61,6.14-9,12.8-11.65,20.23A125.09,125.09,0,0,1,119.9,90.15,160.38,160.38,0,0,0,90.45,119.6c-12.81,16.26-27.53,29.84-46.61,38-5.76,2.31-11.66,5.38-17,8.2a32.26,32.26,0,0,0-12.42,43.79,31.83,31.83,0,0,0,24.07,16.26,32.83,32.83,0,0,0,32.65-17c2.69-5,4.61-10.11,7.43-15.11A190.3,190.3,0,0,1,96,165.06c12.81-15.49,31.76-15.11,45.46-.38A74.17,74.17,0,0,1,151.53,179c5.38,10.5,10.12,21.38,15.88,31.37,7.81,14,25.22,19.85,39.57,13.19,14.72-6.15,22.53-22.92,18.18-38.42-3.07-11.26-11.27-17.41-21.39-22.92A386.72,386.72,0,0,1,167.28,142a27.57,27.57,0,0,1-12.42-30.6c2.3-11.27,10.5-18.19,19.85-23.69C186,81.57,198,76.06,209.28,69.92,218.76,65.31,225.42,55.19,226.18,44.05ZM41.4,73.89A31.54,31.54,0,0,0,73.55,43.28V42.13A32,32,0,0,0,41.79,10h0A32.83,32.83,0,0,0,9.65,41.62,31.78,31.78,0,0,0,41.4,73.89Z"/></svg>