<svg xmlns="http://www.w3.org/2000/svg" width="173.892" height="60" viewBox="0 0 173.892 60">
  <path id="OMG_Network" fill="#FFFFFF" data-name="OMG Network" d="M104.642,56.168a13.747,13.747,0,0,1-3.422-9.4,13.809,13.809,0,0,1,3.422-9.423,13,13,0,0,1,18.475,0,13.814,13.814,0,0,1,3.421,9.423,13.755,13.755,0,0,1-3.421,9.4,13.052,13.052,0,0,1-18.475,0Zm1.338-9.4c0,5.219,3.174,8.726,7.9,8.726s7.9-3.506,7.9-8.726c0-5.243-3.174-8.765-7.9-8.765S105.98,41.521,105.98,46.765Zm28.507,12.59-4.65,0V34.1h10.388c5.781,0,8.367,3.7,8.367,7.358a7.164,7.164,0,0,1-5.015,7l6.85,10.888-5.369,0-6.314-10.062h-4.255V59.355Zm0-14.359h5.592c2.641,0,3.823-1.721,3.823-3.426,0-.719-.249-3.065-3.463-3.065h-5.952Zm33.343,14.355-7.863-11.217-2.633,2.741v8.476h-4.69V34.1h4.69v11l9.882-11h6.276L163.431,44.528l10.46,14.824Zm-78.529,0L83.748,40.92,78.193,59.351H73.541L66.652,34.1H71.63l4.436,18,5.446-18h4.617l5.447,18.033L96.01,34.1h4.8L93.92,59.351Zm-36.578,0V38.5H44.538V34.1H65.673v4.4h-8.3V59.351Zm-27.343,0V34.1H42.332v4.4H30.07v5.88H41.36v4.4H30.07V54.95H43.018v4.4Zm-8.285,0L5.879,41.534V59.351H1.262V34.1H6.674L17.492,51.453V34.1h4.617V59.351Zm40.715-45.9c0-6.925,3.93-13.417,12.37-13.417,5.951,0,10.351,3.209,11,8.982h-4.8c-.289-2.85-2.993-4.582-6.348-4.582-5.121,0-7.537,4-7.537,8.873,0,5.194,2.741,8.8,7.646,8.8,3.427,0,6.1-1.73,6.529-5.41H69.423V12.335H81.182V25.861H76.818V22.975c-.937,1.623-3.245,3.534-7.394,3.534C62.355,26.51,57.812,20.883,57.812,13.453ZM3.423,22.677A13.748,13.748,0,0,1,0,13.274,13.807,13.807,0,0,1,3.423,3.851,12.166,12.166,0,0,1,12.661,0,12.164,12.164,0,0,1,21.9,3.851a13.812,13.812,0,0,1,3.42,9.423,13.754,13.754,0,0,1-3.42,9.4,12.19,12.19,0,0,1-9.237,3.831A12.19,12.19,0,0,1,3.423,22.677Zm1.337-9.4c0,5.219,3.175,8.726,7.9,8.726s7.9-3.506,7.9-8.726c0-5.243-3.173-8.765-7.9-8.765S4.76,8.031,4.76,13.274ZM50.113,25.861V8.078L43.62,25.861H39.4L32.909,8.078V25.861H28.617V.614h5.951l7,19.3,7-19.3h5.953V25.861Z" transform="translate(0.001 0.001)" />
</svg>
